%TF.GenerationSoftware,KiCad,Pcbnew,7.0.1*%
%TF.CreationDate,2023-07-30T20:59:50+03:00*%
%TF.ProjectId,Led.R+G,4c65642e-522b-4472-9e6b-696361645f70,rev?*%
%TF.SameCoordinates,Original*%
%TF.FileFunction,Copper,L1,Top*%
%TF.FilePolarity,Positive*%
%FSLAX46Y46*%
G04 Gerber Fmt 4.6, Leading zero omitted, Abs format (unit mm)*
G04 Created by KiCad (PCBNEW 7.0.1) date 2023-07-30 20:59:50*
%MOMM*%
%LPD*%
G01*
G04 APERTURE LIST*
%TA.AperFunction,ComponentPad*%
%ADD10C,2.400000*%
%TD*%
%TA.AperFunction,ComponentPad*%
%ADD11O,2.400000X2.400000*%
%TD*%
%TA.AperFunction,ComponentPad*%
%ADD12R,1.800000X1.800000*%
%TD*%
%TA.AperFunction,ComponentPad*%
%ADD13C,1.800000*%
%TD*%
%TA.AperFunction,ComponentPad*%
%ADD14R,1.980000X3.960000*%
%TD*%
%TA.AperFunction,ComponentPad*%
%ADD15O,1.980000X3.960000*%
%TD*%
%TA.AperFunction,Conductor*%
%ADD16C,1.500000*%
%TD*%
G04 APERTURE END LIST*
D10*
%TO.P,R3,1*%
%TO.N,Net-(R3-Pad1)*%
X56642000Y-71374000D03*
D11*
%TO.P,R3,2*%
%TO.N,Net-(R3-Pad2)*%
X56642000Y-86614000D03*
%TD*%
D12*
%TO.P,D4,1,K*%
%TO.N,Net-(D1-Pad2)*%
X71120000Y-96525000D03*
D13*
%TO.P,D4,2,A*%
%TO.N,Net-(R2-Pad2)*%
X71120000Y-93985000D03*
%TD*%
D12*
%TO.P,D2,1,K*%
%TO.N,Net-(D1-Pad2)*%
X87757000Y-96525000D03*
D13*
%TO.P,D2,2,A*%
%TO.N,Net-(R1-Pad2)*%
X87757000Y-93985000D03*
%TD*%
D10*
%TO.P,R1,1*%
%TO.N,Net-(R1-Pad1)*%
X95123000Y-71374000D03*
D11*
%TO.P,R1,2*%
%TO.N,Net-(R1-Pad2)*%
X95123000Y-86614000D03*
%TD*%
D14*
%TO.P,J1,1,Pin_1*%
%TO.N,Net-(R1-Pad1)*%
X81241000Y-59807000D03*
D15*
%TO.P,J1,2,Pin_2*%
%TO.N,Net-(R2-Pad1)*%
X76241000Y-59807000D03*
%TO.P,J1,3,Pin_3*%
%TO.N,Net-(R3-Pad1)*%
X71241000Y-59807000D03*
%TD*%
D12*
%TO.P,D5,1,K*%
%TO.N,Net-(R3-Pad2)*%
X61849000Y-93975000D03*
D13*
%TO.P,D5,2,A*%
%TO.N,Net-(D1-Pad2)*%
X61849000Y-96515000D03*
%TD*%
D12*
%TO.P,D6,1,K*%
%TO.N,Net-(D1-Pad2)*%
X53975000Y-96525000D03*
D13*
%TO.P,D6,2,A*%
%TO.N,Net-(R3-Pad2)*%
X53975000Y-93985000D03*
%TD*%
D12*
%TO.P,D3,1,K*%
%TO.N,Net-(R2-Pad2)*%
X79121000Y-93975000D03*
D13*
%TO.P,D3,2,A*%
%TO.N,Net-(D1-Pad2)*%
X79121000Y-96515000D03*
%TD*%
D10*
%TO.P,R2,1*%
%TO.N,Net-(R2-Pad1)*%
X76200000Y-71374000D03*
D11*
%TO.P,R2,2*%
%TO.N,Net-(R2-Pad2)*%
X76200000Y-86614000D03*
%TD*%
D12*
%TO.P,D1,1,K*%
%TO.N,Net-(R1-Pad2)*%
X95250000Y-93975000D03*
D13*
%TO.P,D1,2,A*%
%TO.N,Net-(D1-Pad2)*%
X95250000Y-96515000D03*
%TD*%
D16*
%TO.N,Net-(R1-Pad2)*%
X95123000Y-86619000D02*
X95123000Y-86614000D01*
X95240000Y-93985000D02*
X95250000Y-93975000D01*
X95250000Y-93975000D02*
X95250000Y-86741000D01*
X87757000Y-93985000D02*
X95123000Y-86619000D01*
X95250000Y-86741000D02*
X95123000Y-86614000D01*
%TO.N,Net-(D1-Pad2)*%
X87747000Y-96515000D02*
X87757000Y-96525000D01*
X79121000Y-96515000D02*
X87747000Y-96515000D01*
X61849000Y-96515000D02*
X71110000Y-96515000D01*
X53985000Y-96515000D02*
X53975000Y-96525000D01*
X87767000Y-96515000D02*
X87757000Y-96525000D01*
X79111000Y-96525000D02*
X79121000Y-96515000D01*
X71120000Y-96525000D02*
X79111000Y-96525000D01*
X61849000Y-96515000D02*
X53985000Y-96515000D01*
X71110000Y-96515000D02*
X71120000Y-96525000D01*
X95250000Y-96515000D02*
X87767000Y-96515000D01*
%TO.N,Net-(R2-Pad2)*%
X71120000Y-93985000D02*
X71120000Y-91694000D01*
X79121000Y-93975000D02*
X79121000Y-89535000D01*
X71120000Y-91694000D02*
X76200000Y-86614000D01*
X79121000Y-89535000D02*
X76200000Y-86614000D01*
%TO.N,Net-(R3-Pad2)*%
X61849000Y-91821000D02*
X56642000Y-86614000D01*
X56642000Y-86614000D02*
X53975000Y-89281000D01*
X53975000Y-89281000D02*
X53975000Y-93985000D01*
X61849000Y-93975000D02*
X61849000Y-91821000D01*
%TO.N,Net-(R1-Pad1)*%
X83556000Y-59807000D02*
X95123000Y-71374000D01*
X81241000Y-59807000D02*
X83556000Y-59807000D01*
%TO.N,Net-(R2-Pad1)*%
X76241000Y-71333000D02*
X76200000Y-71374000D01*
X76241000Y-59807000D02*
X76241000Y-71333000D01*
%TO.N,Net-(R3-Pad1)*%
X68209000Y-59807000D02*
X56642000Y-71374000D01*
X71241000Y-59807000D02*
X68209000Y-59807000D01*
%TD*%
M02*
