%TF.GenerationSoftware,KiCad,Pcbnew,7.0.1*%
%TF.CreationDate,2023-07-30T20:59:50+03:00*%
%TF.ProjectId,Led.R+G,4c65642e-522b-4472-9e6b-696361645f70,rev?*%
%TF.SameCoordinates,Original*%
%TF.FileFunction,Legend,Top*%
%TF.FilePolarity,Positive*%
%FSLAX46Y46*%
G04 Gerber Fmt 4.6, Leading zero omitted, Abs format (unit mm)*
G04 Created by KiCad (PCBNEW 7.0.1) date 2023-07-30 20:59:50*
%MOMM*%
%LPD*%
G01*
G04 APERTURE LIST*
%ADD10C,0.150000*%
%ADD11C,0.300000*%
%ADD12C,0.120000*%
%ADD13C,2.400000*%
%ADD14O,2.400000X2.400000*%
%ADD15R,1.800000X1.800000*%
%ADD16C,1.800000*%
%ADD17R,1.980000X3.960000*%
%ADD18O,1.980000X3.960000*%
G04 APERTURE END LIST*
D10*
X81550000Y-91310000D02*
X78104782Y-91310000D01*
X79818087Y-86789897D01*
X81550000Y-91310000D01*
G36*
X81550000Y-91310000D02*
G01*
X78104782Y-91310000D01*
X79818087Y-86789897D01*
X81550000Y-91310000D01*
G37*
X64091898Y-91455282D02*
X60646680Y-91455282D01*
X62359985Y-86935179D01*
X64091898Y-91455282D01*
G36*
X64091898Y-91455282D02*
G01*
X60646680Y-91455282D01*
X62359985Y-86935179D01*
X64091898Y-91455282D01*
G37*
X52440015Y-91964821D02*
X50708102Y-87444718D01*
X54153320Y-87444718D01*
X52440015Y-91964821D01*
G36*
X52440015Y-91964821D02*
G01*
X50708102Y-87444718D01*
X54153320Y-87444718D01*
X52440015Y-91964821D01*
G37*
X71170015Y-91574821D02*
X69438102Y-87054718D01*
X72883320Y-87054718D01*
X71170015Y-91574821D01*
G36*
X71170015Y-91574821D02*
G01*
X69438102Y-87054718D01*
X72883320Y-87054718D01*
X71170015Y-91574821D01*
G37*
X99572774Y-91715978D02*
X96127556Y-91715978D01*
X97840861Y-87195875D01*
X99572774Y-91715978D01*
G36*
X99572774Y-91715978D02*
G01*
X96127556Y-91715978D01*
X97840861Y-87195875D01*
X99572774Y-91715978D01*
G37*
X87649139Y-91744125D02*
X85917226Y-87224022D01*
X89362444Y-87224022D01*
X87649139Y-91744125D01*
G36*
X87649139Y-91744125D02*
G01*
X85917226Y-87224022D01*
X89362444Y-87224022D01*
X87649139Y-91744125D01*
G37*
D11*
X91170047Y-72235761D02*
X91074809Y-72331000D01*
X91074809Y-72331000D02*
X90789095Y-72426238D01*
X90789095Y-72426238D02*
X90598619Y-72426238D01*
X90598619Y-72426238D02*
X90312904Y-72331000D01*
X90312904Y-72331000D02*
X90122428Y-72140523D01*
X90122428Y-72140523D02*
X90027190Y-71950047D01*
X90027190Y-71950047D02*
X89931952Y-71569095D01*
X89931952Y-71569095D02*
X89931952Y-71283380D01*
X89931952Y-71283380D02*
X90027190Y-70902428D01*
X90027190Y-70902428D02*
X90122428Y-70711952D01*
X90122428Y-70711952D02*
X90312904Y-70521476D01*
X90312904Y-70521476D02*
X90598619Y-70426238D01*
X90598619Y-70426238D02*
X90789095Y-70426238D01*
X90789095Y-70426238D02*
X91074809Y-70521476D01*
X91074809Y-70521476D02*
X91170047Y-70616714D01*
X60102809Y-73378809D02*
X61055190Y-73378809D01*
X59912333Y-73950238D02*
X60578999Y-71950238D01*
X60578999Y-71950238D02*
X61245666Y-73950238D01*
X81041857Y-71632619D02*
X81327571Y-71727857D01*
X81327571Y-71727857D02*
X81422809Y-71823095D01*
X81422809Y-71823095D02*
X81518047Y-72013571D01*
X81518047Y-72013571D02*
X81518047Y-72299285D01*
X81518047Y-72299285D02*
X81422809Y-72489761D01*
X81422809Y-72489761D02*
X81327571Y-72585000D01*
X81327571Y-72585000D02*
X81137095Y-72680238D01*
X81137095Y-72680238D02*
X80375190Y-72680238D01*
X80375190Y-72680238D02*
X80375190Y-70680238D01*
X80375190Y-70680238D02*
X81041857Y-70680238D01*
X81041857Y-70680238D02*
X81232333Y-70775476D01*
X81232333Y-70775476D02*
X81327571Y-70870714D01*
X81327571Y-70870714D02*
X81422809Y-71061190D01*
X81422809Y-71061190D02*
X81422809Y-71251666D01*
X81422809Y-71251666D02*
X81327571Y-71442142D01*
X81327571Y-71442142D02*
X81232333Y-71537380D01*
X81232333Y-71537380D02*
X81041857Y-71632619D01*
X81041857Y-71632619D02*
X80375190Y-71632619D01*
D10*
%TO.C,R3*%
X60474619Y-79160666D02*
X59998428Y-79493999D01*
X60474619Y-79732094D02*
X59474619Y-79732094D01*
X59474619Y-79732094D02*
X59474619Y-79351142D01*
X59474619Y-79351142D02*
X59522238Y-79255904D01*
X59522238Y-79255904D02*
X59569857Y-79208285D01*
X59569857Y-79208285D02*
X59665095Y-79160666D01*
X59665095Y-79160666D02*
X59807952Y-79160666D01*
X59807952Y-79160666D02*
X59903190Y-79208285D01*
X59903190Y-79208285D02*
X59950809Y-79255904D01*
X59950809Y-79255904D02*
X59998428Y-79351142D01*
X59998428Y-79351142D02*
X59998428Y-79732094D01*
X59474619Y-78827332D02*
X59474619Y-78208285D01*
X59474619Y-78208285D02*
X59855571Y-78541618D01*
X59855571Y-78541618D02*
X59855571Y-78398761D01*
X59855571Y-78398761D02*
X59903190Y-78303523D01*
X59903190Y-78303523D02*
X59950809Y-78255904D01*
X59950809Y-78255904D02*
X60046047Y-78208285D01*
X60046047Y-78208285D02*
X60284142Y-78208285D01*
X60284142Y-78208285D02*
X60379380Y-78255904D01*
X60379380Y-78255904D02*
X60427000Y-78303523D01*
X60427000Y-78303523D02*
X60474619Y-78398761D01*
X60474619Y-78398761D02*
X60474619Y-78684475D01*
X60474619Y-78684475D02*
X60427000Y-78779713D01*
X60427000Y-78779713D02*
X60379380Y-78827332D01*
%TO.C,D4*%
X71732905Y-99656619D02*
X71732905Y-98656619D01*
X71732905Y-98656619D02*
X71971000Y-98656619D01*
X71971000Y-98656619D02*
X72113857Y-98704238D01*
X72113857Y-98704238D02*
X72209095Y-98799476D01*
X72209095Y-98799476D02*
X72256714Y-98894714D01*
X72256714Y-98894714D02*
X72304333Y-99085190D01*
X72304333Y-99085190D02*
X72304333Y-99228047D01*
X72304333Y-99228047D02*
X72256714Y-99418523D01*
X72256714Y-99418523D02*
X72209095Y-99513761D01*
X72209095Y-99513761D02*
X72113857Y-99609000D01*
X72113857Y-99609000D02*
X71971000Y-99656619D01*
X71971000Y-99656619D02*
X71732905Y-99656619D01*
X73161476Y-98989952D02*
X73161476Y-99656619D01*
X72923381Y-98609000D02*
X72685286Y-99323285D01*
X72685286Y-99323285D02*
X73304333Y-99323285D01*
%TO.C,D2*%
X88369905Y-99529619D02*
X88369905Y-98529619D01*
X88369905Y-98529619D02*
X88608000Y-98529619D01*
X88608000Y-98529619D02*
X88750857Y-98577238D01*
X88750857Y-98577238D02*
X88846095Y-98672476D01*
X88846095Y-98672476D02*
X88893714Y-98767714D01*
X88893714Y-98767714D02*
X88941333Y-98958190D01*
X88941333Y-98958190D02*
X88941333Y-99101047D01*
X88941333Y-99101047D02*
X88893714Y-99291523D01*
X88893714Y-99291523D02*
X88846095Y-99386761D01*
X88846095Y-99386761D02*
X88750857Y-99482000D01*
X88750857Y-99482000D02*
X88608000Y-99529619D01*
X88608000Y-99529619D02*
X88369905Y-99529619D01*
X89322286Y-98624857D02*
X89369905Y-98577238D01*
X89369905Y-98577238D02*
X89465143Y-98529619D01*
X89465143Y-98529619D02*
X89703238Y-98529619D01*
X89703238Y-98529619D02*
X89798476Y-98577238D01*
X89798476Y-98577238D02*
X89846095Y-98624857D01*
X89846095Y-98624857D02*
X89893714Y-98720095D01*
X89893714Y-98720095D02*
X89893714Y-98815333D01*
X89893714Y-98815333D02*
X89846095Y-98958190D01*
X89846095Y-98958190D02*
X89274667Y-99529619D01*
X89274667Y-99529619D02*
X89893714Y-99529619D01*
%TO.C,R1*%
X98955619Y-79160666D02*
X98479428Y-79493999D01*
X98955619Y-79732094D02*
X97955619Y-79732094D01*
X97955619Y-79732094D02*
X97955619Y-79351142D01*
X97955619Y-79351142D02*
X98003238Y-79255904D01*
X98003238Y-79255904D02*
X98050857Y-79208285D01*
X98050857Y-79208285D02*
X98146095Y-79160666D01*
X98146095Y-79160666D02*
X98288952Y-79160666D01*
X98288952Y-79160666D02*
X98384190Y-79208285D01*
X98384190Y-79208285D02*
X98431809Y-79255904D01*
X98431809Y-79255904D02*
X98479428Y-79351142D01*
X98479428Y-79351142D02*
X98479428Y-79732094D01*
X98955619Y-78208285D02*
X98955619Y-78779713D01*
X98955619Y-78493999D02*
X97955619Y-78493999D01*
X97955619Y-78493999D02*
X98098476Y-78589237D01*
X98098476Y-78589237D02*
X98193714Y-78684475D01*
X98193714Y-78684475D02*
X98241333Y-78779713D01*
%TO.C,J1*%
X75907666Y-66369619D02*
X75907666Y-67083904D01*
X75907666Y-67083904D02*
X75860047Y-67226761D01*
X75860047Y-67226761D02*
X75764809Y-67322000D01*
X75764809Y-67322000D02*
X75621952Y-67369619D01*
X75621952Y-67369619D02*
X75526714Y-67369619D01*
X76907666Y-67369619D02*
X76336238Y-67369619D01*
X76621952Y-67369619D02*
X76621952Y-66369619D01*
X76621952Y-66369619D02*
X76526714Y-66512476D01*
X76526714Y-66512476D02*
X76431476Y-66607714D01*
X76431476Y-66607714D02*
X76336238Y-66655333D01*
%TO.C,D5*%
X62461905Y-99402619D02*
X62461905Y-98402619D01*
X62461905Y-98402619D02*
X62700000Y-98402619D01*
X62700000Y-98402619D02*
X62842857Y-98450238D01*
X62842857Y-98450238D02*
X62938095Y-98545476D01*
X62938095Y-98545476D02*
X62985714Y-98640714D01*
X62985714Y-98640714D02*
X63033333Y-98831190D01*
X63033333Y-98831190D02*
X63033333Y-98974047D01*
X63033333Y-98974047D02*
X62985714Y-99164523D01*
X62985714Y-99164523D02*
X62938095Y-99259761D01*
X62938095Y-99259761D02*
X62842857Y-99355000D01*
X62842857Y-99355000D02*
X62700000Y-99402619D01*
X62700000Y-99402619D02*
X62461905Y-99402619D01*
X63938095Y-98402619D02*
X63461905Y-98402619D01*
X63461905Y-98402619D02*
X63414286Y-98878809D01*
X63414286Y-98878809D02*
X63461905Y-98831190D01*
X63461905Y-98831190D02*
X63557143Y-98783571D01*
X63557143Y-98783571D02*
X63795238Y-98783571D01*
X63795238Y-98783571D02*
X63890476Y-98831190D01*
X63890476Y-98831190D02*
X63938095Y-98878809D01*
X63938095Y-98878809D02*
X63985714Y-98974047D01*
X63985714Y-98974047D02*
X63985714Y-99212142D01*
X63985714Y-99212142D02*
X63938095Y-99307380D01*
X63938095Y-99307380D02*
X63890476Y-99355000D01*
X63890476Y-99355000D02*
X63795238Y-99402619D01*
X63795238Y-99402619D02*
X63557143Y-99402619D01*
X63557143Y-99402619D02*
X63461905Y-99355000D01*
X63461905Y-99355000D02*
X63414286Y-99307380D01*
%TO.C,D6*%
X53317905Y-99910619D02*
X53317905Y-98910619D01*
X53317905Y-98910619D02*
X53556000Y-98910619D01*
X53556000Y-98910619D02*
X53698857Y-98958238D01*
X53698857Y-98958238D02*
X53794095Y-99053476D01*
X53794095Y-99053476D02*
X53841714Y-99148714D01*
X53841714Y-99148714D02*
X53889333Y-99339190D01*
X53889333Y-99339190D02*
X53889333Y-99482047D01*
X53889333Y-99482047D02*
X53841714Y-99672523D01*
X53841714Y-99672523D02*
X53794095Y-99767761D01*
X53794095Y-99767761D02*
X53698857Y-99863000D01*
X53698857Y-99863000D02*
X53556000Y-99910619D01*
X53556000Y-99910619D02*
X53317905Y-99910619D01*
X54746476Y-98910619D02*
X54556000Y-98910619D01*
X54556000Y-98910619D02*
X54460762Y-98958238D01*
X54460762Y-98958238D02*
X54413143Y-99005857D01*
X54413143Y-99005857D02*
X54317905Y-99148714D01*
X54317905Y-99148714D02*
X54270286Y-99339190D01*
X54270286Y-99339190D02*
X54270286Y-99720142D01*
X54270286Y-99720142D02*
X54317905Y-99815380D01*
X54317905Y-99815380D02*
X54365524Y-99863000D01*
X54365524Y-99863000D02*
X54460762Y-99910619D01*
X54460762Y-99910619D02*
X54651238Y-99910619D01*
X54651238Y-99910619D02*
X54746476Y-99863000D01*
X54746476Y-99863000D02*
X54794095Y-99815380D01*
X54794095Y-99815380D02*
X54841714Y-99720142D01*
X54841714Y-99720142D02*
X54841714Y-99482047D01*
X54841714Y-99482047D02*
X54794095Y-99386809D01*
X54794095Y-99386809D02*
X54746476Y-99339190D01*
X54746476Y-99339190D02*
X54651238Y-99291571D01*
X54651238Y-99291571D02*
X54460762Y-99291571D01*
X54460762Y-99291571D02*
X54365524Y-99339190D01*
X54365524Y-99339190D02*
X54317905Y-99386809D01*
X54317905Y-99386809D02*
X54270286Y-99482047D01*
%TO.C,D3*%
X79733905Y-99529619D02*
X79733905Y-98529619D01*
X79733905Y-98529619D02*
X79972000Y-98529619D01*
X79972000Y-98529619D02*
X80114857Y-98577238D01*
X80114857Y-98577238D02*
X80210095Y-98672476D01*
X80210095Y-98672476D02*
X80257714Y-98767714D01*
X80257714Y-98767714D02*
X80305333Y-98958190D01*
X80305333Y-98958190D02*
X80305333Y-99101047D01*
X80305333Y-99101047D02*
X80257714Y-99291523D01*
X80257714Y-99291523D02*
X80210095Y-99386761D01*
X80210095Y-99386761D02*
X80114857Y-99482000D01*
X80114857Y-99482000D02*
X79972000Y-99529619D01*
X79972000Y-99529619D02*
X79733905Y-99529619D01*
X80638667Y-98529619D02*
X81257714Y-98529619D01*
X81257714Y-98529619D02*
X80924381Y-98910571D01*
X80924381Y-98910571D02*
X81067238Y-98910571D01*
X81067238Y-98910571D02*
X81162476Y-98958190D01*
X81162476Y-98958190D02*
X81210095Y-99005809D01*
X81210095Y-99005809D02*
X81257714Y-99101047D01*
X81257714Y-99101047D02*
X81257714Y-99339142D01*
X81257714Y-99339142D02*
X81210095Y-99434380D01*
X81210095Y-99434380D02*
X81162476Y-99482000D01*
X81162476Y-99482000D02*
X81067238Y-99529619D01*
X81067238Y-99529619D02*
X80781524Y-99529619D01*
X80781524Y-99529619D02*
X80686286Y-99482000D01*
X80686286Y-99482000D02*
X80638667Y-99434380D01*
%TO.C,R2*%
X80032619Y-79160666D02*
X79556428Y-79493999D01*
X80032619Y-79732094D02*
X79032619Y-79732094D01*
X79032619Y-79732094D02*
X79032619Y-79351142D01*
X79032619Y-79351142D02*
X79080238Y-79255904D01*
X79080238Y-79255904D02*
X79127857Y-79208285D01*
X79127857Y-79208285D02*
X79223095Y-79160666D01*
X79223095Y-79160666D02*
X79365952Y-79160666D01*
X79365952Y-79160666D02*
X79461190Y-79208285D01*
X79461190Y-79208285D02*
X79508809Y-79255904D01*
X79508809Y-79255904D02*
X79556428Y-79351142D01*
X79556428Y-79351142D02*
X79556428Y-79732094D01*
X79127857Y-78779713D02*
X79080238Y-78732094D01*
X79080238Y-78732094D02*
X79032619Y-78636856D01*
X79032619Y-78636856D02*
X79032619Y-78398761D01*
X79032619Y-78398761D02*
X79080238Y-78303523D01*
X79080238Y-78303523D02*
X79127857Y-78255904D01*
X79127857Y-78255904D02*
X79223095Y-78208285D01*
X79223095Y-78208285D02*
X79318333Y-78208285D01*
X79318333Y-78208285D02*
X79461190Y-78255904D01*
X79461190Y-78255904D02*
X80032619Y-78827332D01*
X80032619Y-78827332D02*
X80032619Y-78208285D01*
%TO.C,D1*%
X94973905Y-99656619D02*
X94973905Y-98656619D01*
X94973905Y-98656619D02*
X95212000Y-98656619D01*
X95212000Y-98656619D02*
X95354857Y-98704238D01*
X95354857Y-98704238D02*
X95450095Y-98799476D01*
X95450095Y-98799476D02*
X95497714Y-98894714D01*
X95497714Y-98894714D02*
X95545333Y-99085190D01*
X95545333Y-99085190D02*
X95545333Y-99228047D01*
X95545333Y-99228047D02*
X95497714Y-99418523D01*
X95497714Y-99418523D02*
X95450095Y-99513761D01*
X95450095Y-99513761D02*
X95354857Y-99609000D01*
X95354857Y-99609000D02*
X95212000Y-99656619D01*
X95212000Y-99656619D02*
X94973905Y-99656619D01*
X96497714Y-99656619D02*
X95926286Y-99656619D01*
X96212000Y-99656619D02*
X96212000Y-98656619D01*
X96212000Y-98656619D02*
X96116762Y-98799476D01*
X96116762Y-98799476D02*
X96021524Y-98894714D01*
X96021524Y-98894714D02*
X95926286Y-98942333D01*
D12*
%TO.C,R3*%
X54272000Y-85064000D02*
X59012000Y-85064000D01*
X59012000Y-85064000D02*
X59012000Y-72924000D01*
X54272000Y-72924000D02*
X54272000Y-85064000D01*
X56642000Y-72814000D02*
X56642000Y-72924000D01*
X56642000Y-85174000D02*
X56642000Y-85064000D01*
X59012000Y-72924000D02*
X54272000Y-72924000D01*
%TO.C,D4*%
X69575000Y-97815000D02*
X72665000Y-97815000D01*
X71120462Y-92265001D02*
G75*
G03*
X69575170Y-97814999I-462J-2989999D01*
G01*
X72664830Y-97815000D02*
G75*
G03*
X71119538Y-92265000I-1544830J2560000D01*
G01*
X73620000Y-95255000D02*
G75*
G03*
X73620000Y-95255000I-2500000J0D01*
G01*
%TO.C,D2*%
X86212000Y-97815000D02*
X89302000Y-97815000D01*
X87757462Y-92265001D02*
G75*
G03*
X86212170Y-97814999I-462J-2989999D01*
G01*
X89301830Y-97815000D02*
G75*
G03*
X87756538Y-92265000I-1544830J2560000D01*
G01*
X90257000Y-95255000D02*
G75*
G03*
X90257000Y-95255000I-2500000J0D01*
G01*
%TO.C,R1*%
X92753000Y-85064000D02*
X97493000Y-85064000D01*
X95123000Y-85174000D02*
X95123000Y-85064000D01*
X95123000Y-72814000D02*
X95123000Y-72924000D01*
X92753000Y-72924000D02*
X92753000Y-85064000D01*
X97493000Y-85064000D02*
X97493000Y-72924000D01*
X97493000Y-72924000D02*
X92753000Y-72924000D01*
%TO.C,J1*%
X68491000Y-61307000D02*
X67991000Y-61057000D01*
X68491000Y-55907000D02*
X68491000Y-61307000D01*
X83891000Y-66107000D02*
X83891000Y-53507000D01*
X68491000Y-53507000D02*
X68491000Y-54457000D01*
X67991000Y-66107000D02*
X83891000Y-66107000D01*
X68491000Y-54457000D02*
X67991000Y-54157000D01*
X67991000Y-56157000D02*
X68491000Y-55907000D01*
X67991000Y-54157000D02*
X67991000Y-56157000D01*
X83891000Y-53507000D02*
X68491000Y-53507000D01*
X67991000Y-61057000D02*
X67991000Y-66107000D01*
%TO.C,D5*%
X63394000Y-92685000D02*
X60304000Y-92685000D01*
X60304170Y-92685000D02*
G75*
G03*
X61849462Y-98235000I1544830J-2560000D01*
G01*
X61848538Y-98234999D02*
G75*
G03*
X63393830Y-92685001I462J2989999D01*
G01*
X64349000Y-95245000D02*
G75*
G03*
X64349000Y-95245000I-2500000J0D01*
G01*
%TO.C,D6*%
X52430000Y-97815000D02*
X55520000Y-97815000D01*
X55519830Y-97815000D02*
G75*
G03*
X53974538Y-92265000I-1544830J2560000D01*
G01*
X53975462Y-92265001D02*
G75*
G03*
X52430170Y-97814999I-462J-2989999D01*
G01*
X56475000Y-95255000D02*
G75*
G03*
X56475000Y-95255000I-2500000J0D01*
G01*
%TO.C,D3*%
X80666000Y-92685000D02*
X77576000Y-92685000D01*
X77576170Y-92685000D02*
G75*
G03*
X79121462Y-98235000I1544830J-2560000D01*
G01*
X79120538Y-98234999D02*
G75*
G03*
X80665830Y-92685001I462J2989999D01*
G01*
X81621000Y-95245000D02*
G75*
G03*
X81621000Y-95245000I-2500000J0D01*
G01*
%TO.C,R2*%
X73830000Y-72924000D02*
X73830000Y-85064000D01*
X76200000Y-85174000D02*
X76200000Y-85064000D01*
X78570000Y-85064000D02*
X78570000Y-72924000D01*
X78570000Y-72924000D02*
X73830000Y-72924000D01*
X76200000Y-72814000D02*
X76200000Y-72924000D01*
X73830000Y-85064000D02*
X78570000Y-85064000D01*
%TO.C,D1*%
X96795000Y-92685000D02*
X93705000Y-92685000D01*
X93705170Y-92685000D02*
G75*
G03*
X95250462Y-98235000I1544830J-2560000D01*
G01*
X95249538Y-98234999D02*
G75*
G03*
X96794830Y-92685001I462J2989999D01*
G01*
X97750000Y-95245000D02*
G75*
G03*
X97750000Y-95245000I-2500000J0D01*
G01*
%TD*%
%LPC*%
D13*
%TO.C,R3*%
X56642000Y-71374000D03*
D14*
X56642000Y-86614000D03*
%TD*%
D15*
%TO.C,D4*%
X71120000Y-96525000D03*
D16*
X71120000Y-93985000D03*
%TD*%
D15*
%TO.C,D2*%
X87757000Y-96525000D03*
D16*
X87757000Y-93985000D03*
%TD*%
D13*
%TO.C,R1*%
X95123000Y-71374000D03*
D14*
X95123000Y-86614000D03*
%TD*%
D17*
%TO.C,J1*%
X81241000Y-59807000D03*
D18*
X76241000Y-59807000D03*
X71241000Y-59807000D03*
%TD*%
D15*
%TO.C,D5*%
X61849000Y-93975000D03*
D16*
X61849000Y-96515000D03*
%TD*%
D15*
%TO.C,D6*%
X53975000Y-96525000D03*
D16*
X53975000Y-93985000D03*
%TD*%
D15*
%TO.C,D3*%
X79121000Y-93975000D03*
D16*
X79121000Y-96515000D03*
%TD*%
D13*
%TO.C,R2*%
X76200000Y-71374000D03*
D14*
X76200000Y-86614000D03*
%TD*%
D15*
%TO.C,D1*%
X95250000Y-93975000D03*
D16*
X95250000Y-96515000D03*
%TD*%
M02*
