M48
; DRILL file {KiCad 7.0.1} date Sun Jul 30 20:59:50 2023
; FORMAT={-:-/ absolute / inch / decimal}
; #@! TF.CreationDate,2023-07-30T20:59:50+03:00
; #@! TF.GenerationSoftware,Kicad,Pcbnew,7.0.1
; #@! TF.FileFunction,Plated,1,2,PTH
FMAT,2
INCH
; #@! TA.AperFunction,Plated,PTH,ComponentDrill
T1C0.0354
; #@! TA.AperFunction,Plated,PTH,ComponentDrill
T2C0.0472
; #@! TA.AperFunction,Plated,PTH,ComponentDrill
T3C0.0520
%
G90
G05
T1
X2.125Y-3.7002
X2.125Y-3.8002
X2.435Y-3.6998
X2.435Y-3.7998
X2.8Y-3.7002
X2.8Y-3.8002
X3.115Y-3.6998
X3.115Y-3.7998
X3.455Y-3.7002
X3.455Y-3.8002
X3.75Y-3.6998
X3.75Y-3.7998
T2
X2.23Y-2.81
X2.23Y-3.41
X3.0Y-2.81
X3.0Y-3.41
X3.745Y-2.81
X3.745Y-3.41
T3
X2.8048Y-2.3546
X3.0016Y-2.3546
X3.1985Y-2.3546
T0
M30
