%TF.GenerationSoftware,KiCad,Pcbnew,7.0.1*%
%TF.CreationDate,2023-07-30T21:13:22+03:00*%
%TF.ProjectId,ESP32_dual_ESC,45535033-325f-4647-9561-6c5f4553432e,rev?*%
%TF.SameCoordinates,Original*%
%TF.FileFunction,Legend,Bot*%
%TF.FilePolarity,Positive*%
%FSLAX46Y46*%
G04 Gerber Fmt 4.6, Leading zero omitted, Abs format (unit mm)*
G04 Created by KiCad (PCBNEW 7.0.1) date 2023-07-30 21:13:22*
%MOMM*%
%LPD*%
G01*
G04 APERTURE LIST*
G04 Aperture macros list*
%AMRoundRect*
0 Rectangle with rounded corners*
0 $1 Rounding radius*
0 $2 $3 $4 $5 $6 $7 $8 $9 X,Y pos of 4 corners*
0 Add a 4 corners polygon primitive as box body*
4,1,4,$2,$3,$4,$5,$6,$7,$8,$9,$2,$3,0*
0 Add four circle primitives for the rounded corners*
1,1,$1+$1,$2,$3*
1,1,$1+$1,$4,$5*
1,1,$1+$1,$6,$7*
1,1,$1+$1,$8,$9*
0 Add four rect primitives between the rounded corners*
20,1,$1+$1,$2,$3,$4,$5,0*
20,1,$1+$1,$4,$5,$6,$7,0*
20,1,$1+$1,$6,$7,$8,$9,0*
20,1,$1+$1,$8,$9,$2,$3,0*%
G04 Aperture macros list end*
%ADD10C,1.000000*%
%ADD11C,0.150000*%
%ADD12C,3.500500*%
%ADD13R,1.700000X1.700000*%
%ADD14O,1.700000X1.700000*%
%ADD15R,1.905000X2.000000*%
%ADD16O,1.905000X2.000000*%
%ADD17C,2.900000*%
%ADD18C,5.000000*%
%ADD19C,3.600000*%
%ADD20C,5.600000*%
%ADD21R,1.800000X1.800000*%
%ADD22C,1.800000*%
%ADD23RoundRect,0.750000X0.750000X-1.250000X0.750000X1.250000X-0.750000X1.250000X-0.750000X-1.250000X0*%
%ADD24O,3.500000X3.500000*%
%ADD25R,1.500000X1.600000*%
%ADD26C,1.600000*%
%ADD27C,3.000000*%
G04 APERTURE END LIST*
D10*
X99330000Y-95250000D02*
X102330000Y-95250000D01*
D11*
X107321904Y-92287619D02*
X107321904Y-91287619D01*
X106512381Y-91763809D02*
X106845714Y-91763809D01*
X106845714Y-92287619D02*
X106845714Y-91287619D01*
X106845714Y-91287619D02*
X106369524Y-91287619D01*
X105369523Y-91287619D02*
X104798095Y-91287619D01*
X105083809Y-92287619D02*
X105083809Y-91287619D01*
X104464761Y-92287619D02*
X104464761Y-91287619D01*
X104464761Y-91763809D02*
X103893333Y-91763809D01*
X103893333Y-92287619D02*
X103893333Y-91287619D01*
X103417142Y-91763809D02*
X103083809Y-91763809D01*
X102940952Y-92287619D02*
X103417142Y-92287619D01*
X103417142Y-92287619D02*
X103417142Y-91287619D01*
X103417142Y-91287619D02*
X102940952Y-91287619D01*
X101940952Y-92287619D02*
X102274285Y-91811428D01*
X102512380Y-92287619D02*
X102512380Y-91287619D01*
X102512380Y-91287619D02*
X102131428Y-91287619D01*
X102131428Y-91287619D02*
X102036190Y-91335238D01*
X102036190Y-91335238D02*
X101988571Y-91382857D01*
X101988571Y-91382857D02*
X101940952Y-91478095D01*
X101940952Y-91478095D02*
X101940952Y-91620952D01*
X101940952Y-91620952D02*
X101988571Y-91716190D01*
X101988571Y-91716190D02*
X102036190Y-91763809D01*
X102036190Y-91763809D02*
X102131428Y-91811428D01*
X102131428Y-91811428D02*
X102512380Y-91811428D01*
X101512380Y-91763809D02*
X101179047Y-91763809D01*
X101036190Y-92287619D02*
X101512380Y-92287619D01*
X101512380Y-92287619D02*
X101512380Y-91287619D01*
X101512380Y-91287619D02*
X101036190Y-91287619D01*
X99845713Y-92287619D02*
X99845713Y-91287619D01*
X99417142Y-92240000D02*
X99274285Y-92287619D01*
X99274285Y-92287619D02*
X99036190Y-92287619D01*
X99036190Y-92287619D02*
X98940952Y-92240000D01*
X98940952Y-92240000D02*
X98893333Y-92192380D01*
X98893333Y-92192380D02*
X98845714Y-92097142D01*
X98845714Y-92097142D02*
X98845714Y-92001904D01*
X98845714Y-92001904D02*
X98893333Y-91906666D01*
X98893333Y-91906666D02*
X98940952Y-91859047D01*
X98940952Y-91859047D02*
X99036190Y-91811428D01*
X99036190Y-91811428D02*
X99226666Y-91763809D01*
X99226666Y-91763809D02*
X99321904Y-91716190D01*
X99321904Y-91716190D02*
X99369523Y-91668571D01*
X99369523Y-91668571D02*
X99417142Y-91573333D01*
X99417142Y-91573333D02*
X99417142Y-91478095D01*
X99417142Y-91478095D02*
X99369523Y-91382857D01*
X99369523Y-91382857D02*
X99321904Y-91335238D01*
X99321904Y-91335238D02*
X99226666Y-91287619D01*
X99226666Y-91287619D02*
X98988571Y-91287619D01*
X98988571Y-91287619D02*
X98845714Y-91335238D01*
X97655237Y-92287619D02*
X97655237Y-91287619D01*
X97655237Y-91287619D02*
X97083809Y-92287619D01*
X97083809Y-92287619D02*
X97083809Y-91287619D01*
X96417142Y-91287619D02*
X96226666Y-91287619D01*
X96226666Y-91287619D02*
X96131428Y-91335238D01*
X96131428Y-91335238D02*
X96036190Y-91430476D01*
X96036190Y-91430476D02*
X95988571Y-91620952D01*
X95988571Y-91620952D02*
X95988571Y-91954285D01*
X95988571Y-91954285D02*
X96036190Y-92144761D01*
X96036190Y-92144761D02*
X96131428Y-92240000D01*
X96131428Y-92240000D02*
X96226666Y-92287619D01*
X96226666Y-92287619D02*
X96417142Y-92287619D01*
X96417142Y-92287619D02*
X96512380Y-92240000D01*
X96512380Y-92240000D02*
X96607618Y-92144761D01*
X96607618Y-92144761D02*
X96655237Y-91954285D01*
X96655237Y-91954285D02*
X96655237Y-91620952D01*
X96655237Y-91620952D02*
X96607618Y-91430476D01*
X96607618Y-91430476D02*
X96512380Y-91335238D01*
X96512380Y-91335238D02*
X96417142Y-91287619D01*
X106845714Y-93907619D02*
X107321904Y-93907619D01*
X107321904Y-93907619D02*
X107321904Y-92907619D01*
X106512380Y-93907619D02*
X106512380Y-92907619D01*
X106512380Y-92907619D02*
X106274285Y-92907619D01*
X106274285Y-92907619D02*
X106131428Y-92955238D01*
X106131428Y-92955238D02*
X106036190Y-93050476D01*
X106036190Y-93050476D02*
X105988571Y-93145714D01*
X105988571Y-93145714D02*
X105940952Y-93336190D01*
X105940952Y-93336190D02*
X105940952Y-93479047D01*
X105940952Y-93479047D02*
X105988571Y-93669523D01*
X105988571Y-93669523D02*
X106036190Y-93764761D01*
X106036190Y-93764761D02*
X106131428Y-93860000D01*
X106131428Y-93860000D02*
X106274285Y-93907619D01*
X106274285Y-93907619D02*
X106512380Y-93907619D01*
X105321904Y-92907619D02*
X105131428Y-92907619D01*
X105131428Y-92907619D02*
X105036190Y-92955238D01*
X105036190Y-92955238D02*
X104940952Y-93050476D01*
X104940952Y-93050476D02*
X104893333Y-93240952D01*
X104893333Y-93240952D02*
X104893333Y-93574285D01*
X104893333Y-93574285D02*
X104940952Y-93764761D01*
X104940952Y-93764761D02*
X105036190Y-93860000D01*
X105036190Y-93860000D02*
X105131428Y-93907619D01*
X105131428Y-93907619D02*
X105321904Y-93907619D01*
X105321904Y-93907619D02*
X105417142Y-93860000D01*
X105417142Y-93860000D02*
X105512380Y-93764761D01*
X105512380Y-93764761D02*
X105559999Y-93574285D01*
X105559999Y-93574285D02*
X105559999Y-93240952D01*
X105559999Y-93240952D02*
X105512380Y-93050476D01*
X105512380Y-93050476D02*
X105417142Y-92955238D01*
X105417142Y-92955238D02*
X105321904Y-92907619D01*
X103750475Y-93860000D02*
X103607618Y-93907619D01*
X103607618Y-93907619D02*
X103369523Y-93907619D01*
X103369523Y-93907619D02*
X103274285Y-93860000D01*
X103274285Y-93860000D02*
X103226666Y-93812380D01*
X103226666Y-93812380D02*
X103179047Y-93717142D01*
X103179047Y-93717142D02*
X103179047Y-93621904D01*
X103179047Y-93621904D02*
X103226666Y-93526666D01*
X103226666Y-93526666D02*
X103274285Y-93479047D01*
X103274285Y-93479047D02*
X103369523Y-93431428D01*
X103369523Y-93431428D02*
X103559999Y-93383809D01*
X103559999Y-93383809D02*
X103655237Y-93336190D01*
X103655237Y-93336190D02*
X103702856Y-93288571D01*
X103702856Y-93288571D02*
X103750475Y-93193333D01*
X103750475Y-93193333D02*
X103750475Y-93098095D01*
X103750475Y-93098095D02*
X103702856Y-93002857D01*
X103702856Y-93002857D02*
X103655237Y-92955238D01*
X103655237Y-92955238D02*
X103559999Y-92907619D01*
X103559999Y-92907619D02*
X103321904Y-92907619D01*
X103321904Y-92907619D02*
X103179047Y-92955238D01*
X102750475Y-93907619D02*
X102750475Y-92907619D01*
X102750475Y-93383809D02*
X102179047Y-93383809D01*
X102179047Y-93907619D02*
X102179047Y-92907619D01*
X101512380Y-92907619D02*
X101321904Y-92907619D01*
X101321904Y-92907619D02*
X101226666Y-92955238D01*
X101226666Y-92955238D02*
X101131428Y-93050476D01*
X101131428Y-93050476D02*
X101083809Y-93240952D01*
X101083809Y-93240952D02*
X101083809Y-93574285D01*
X101083809Y-93574285D02*
X101131428Y-93764761D01*
X101131428Y-93764761D02*
X101226666Y-93860000D01*
X101226666Y-93860000D02*
X101321904Y-93907619D01*
X101321904Y-93907619D02*
X101512380Y-93907619D01*
X101512380Y-93907619D02*
X101607618Y-93860000D01*
X101607618Y-93860000D02*
X101702856Y-93764761D01*
X101702856Y-93764761D02*
X101750475Y-93574285D01*
X101750475Y-93574285D02*
X101750475Y-93240952D01*
X101750475Y-93240952D02*
X101702856Y-93050476D01*
X101702856Y-93050476D02*
X101607618Y-92955238D01*
X101607618Y-92955238D02*
X101512380Y-92907619D01*
X100083809Y-93907619D02*
X100417142Y-93431428D01*
X100655237Y-93907619D02*
X100655237Y-92907619D01*
X100655237Y-92907619D02*
X100274285Y-92907619D01*
X100274285Y-92907619D02*
X100179047Y-92955238D01*
X100179047Y-92955238D02*
X100131428Y-93002857D01*
X100131428Y-93002857D02*
X100083809Y-93098095D01*
X100083809Y-93098095D02*
X100083809Y-93240952D01*
X100083809Y-93240952D02*
X100131428Y-93336190D01*
X100131428Y-93336190D02*
X100179047Y-93383809D01*
X100179047Y-93383809D02*
X100274285Y-93431428D01*
X100274285Y-93431428D02*
X100655237Y-93431428D01*
X99798094Y-92907619D02*
X99226666Y-92907619D01*
X99512380Y-93907619D02*
X99512380Y-92907619D01*
X98131427Y-92907619D02*
X98131427Y-93717142D01*
X98131427Y-93717142D02*
X98083808Y-93812380D01*
X98083808Y-93812380D02*
X98036189Y-93860000D01*
X98036189Y-93860000D02*
X97940951Y-93907619D01*
X97940951Y-93907619D02*
X97750475Y-93907619D01*
X97750475Y-93907619D02*
X97655237Y-93860000D01*
X97655237Y-93860000D02*
X97607618Y-93812380D01*
X97607618Y-93812380D02*
X97559999Y-93717142D01*
X97559999Y-93717142D02*
X97559999Y-92907619D01*
X97131427Y-93860000D02*
X96988570Y-93907619D01*
X96988570Y-93907619D02*
X96750475Y-93907619D01*
X96750475Y-93907619D02*
X96655237Y-93860000D01*
X96655237Y-93860000D02*
X96607618Y-93812380D01*
X96607618Y-93812380D02*
X96559999Y-93717142D01*
X96559999Y-93717142D02*
X96559999Y-93621904D01*
X96559999Y-93621904D02*
X96607618Y-93526666D01*
X96607618Y-93526666D02*
X96655237Y-93479047D01*
X96655237Y-93479047D02*
X96750475Y-93431428D01*
X96750475Y-93431428D02*
X96940951Y-93383809D01*
X96940951Y-93383809D02*
X97036189Y-93336190D01*
X97036189Y-93336190D02*
X97083808Y-93288571D01*
X97083808Y-93288571D02*
X97131427Y-93193333D01*
X97131427Y-93193333D02*
X97131427Y-93098095D01*
X97131427Y-93098095D02*
X97083808Y-93002857D01*
X97083808Y-93002857D02*
X97036189Y-92955238D01*
X97036189Y-92955238D02*
X96940951Y-92907619D01*
X96940951Y-92907619D02*
X96702856Y-92907619D01*
X96702856Y-92907619D02*
X96559999Y-92955238D01*
%LPC*%
X123900000Y-123440000D02*
X123900000Y-126640000D01*
X120410000Y-126640000D01*
X120235000Y-126465000D01*
X123580000Y-123120000D01*
X123900000Y-123440000D01*
G36*
X123900000Y-123440000D02*
G01*
X123900000Y-126640000D01*
X120410000Y-126640000D01*
X120235000Y-126465000D01*
X123580000Y-123120000D01*
X123900000Y-123440000D01*
G37*
D12*
X106740250Y-144280000D02*
G75*
G03*
X106740250Y-144280000I-1750250J0D01*
G01*
X56978871Y-100255000D02*
G75*
G03*
X56978871Y-100255000I-1750250J0D01*
G01*
D11*
X113425000Y-126110000D02*
X127045000Y-126110000D01*
X127045000Y-130710000D01*
X113425000Y-130710000D01*
X113425000Y-126110000D01*
G36*
X113425000Y-126110000D02*
G01*
X127045000Y-126110000D01*
X127045000Y-130710000D01*
X113425000Y-130710000D01*
X113425000Y-126110000D01*
G37*
D12*
X146460250Y-99700000D02*
G75*
G03*
X146460250Y-99700000I-1750250J0D01*
G01*
D11*
X123344560Y-81615438D02*
X127050000Y-81615438D01*
X127050000Y-130710000D01*
X123344560Y-130710000D01*
X123344560Y-81615438D01*
G36*
X123344560Y-81615438D02*
G01*
X127050000Y-81615438D01*
X127050000Y-130710000D01*
X123344560Y-130710000D01*
X123344560Y-81615438D01*
G37*
X72090000Y-84040000D02*
X75685439Y-84040000D01*
X75685439Y-130324561D01*
X72090000Y-130324561D01*
X72090000Y-84040000D01*
G36*
X72090000Y-84040000D02*
G01*
X75685439Y-84040000D01*
X75685439Y-130324561D01*
X72090000Y-130324561D01*
X72090000Y-84040000D01*
G37*
D12*
X146450250Y-87740000D02*
G75*
G03*
X146450250Y-87740000I-1750250J0D01*
G01*
X146450250Y-111700000D02*
G75*
G03*
X146450250Y-111700000I-1750250J0D01*
G01*
X56988871Y-112215000D02*
G75*
G03*
X56988871Y-112215000I-1750250J0D01*
G01*
D11*
X72090000Y-125910000D02*
X96420000Y-125910000D01*
X96420000Y-130510000D01*
X72090000Y-130510000D01*
X72090000Y-125910000D01*
G36*
X72090000Y-125910000D02*
G01*
X96420000Y-125910000D01*
X96420000Y-130510000D01*
X72090000Y-130510000D01*
X72090000Y-125910000D01*
G37*
D12*
X96660250Y-144280000D02*
G75*
G03*
X96660250Y-144280000I-1750250J0D01*
G01*
X56988871Y-88255000D02*
G75*
G03*
X56988871Y-88255000I-1750250J0D01*
G01*
D11*
X79620000Y-126360000D02*
X79530000Y-126450000D01*
X75530000Y-126450000D01*
X75510000Y-126430000D01*
X75510000Y-122250000D01*
X79620000Y-126360000D01*
G36*
X79620000Y-126360000D02*
G01*
X79530000Y-126450000D01*
X75530000Y-126450000D01*
X75510000Y-126430000D01*
X75510000Y-122250000D01*
X79620000Y-126360000D01*
G37*
D13*
%TO.C,J7*%
X118720000Y-52100000D03*
D14*
X118720000Y-54640000D03*
X118720000Y-57180000D03*
X118720000Y-59720000D03*
X118720000Y-62260000D03*
X118720000Y-64800000D03*
%TD*%
D15*
%TO.C,U8*%
X96980000Y-97280000D03*
D16*
X99520000Y-97280000D03*
X102060000Y-97280000D03*
%TD*%
D17*
%TO.C,J11*%
X144688621Y-87755000D03*
D18*
X144688621Y-87755000D03*
%TD*%
D19*
%TO.C,H3*%
X145000000Y-145000000D03*
D20*
X145000000Y-145000000D03*
%TD*%
D13*
%TO.C,J4*%
X147010000Y-71910000D03*
D14*
X144470000Y-71910000D03*
%TD*%
D13*
%TO.C,J10*%
X118760000Y-77420000D03*
D14*
X118760000Y-74880000D03*
X118760000Y-72340000D03*
X118760000Y-69800000D03*
%TD*%
D21*
%TO.C,RV2*%
X131000000Y-147000000D03*
D22*
X133500000Y-147000000D03*
X136000000Y-147000000D03*
D23*
X129100000Y-140000000D03*
X137900000Y-140000000D03*
%TD*%
D19*
%TO.C,H2*%
X145000000Y-55000000D03*
D20*
X145000000Y-55000000D03*
%TD*%
D24*
%TO.C,*%
X99530000Y-80620000D03*
%TD*%
D25*
%TO.C,J5*%
X60000000Y-66000000D03*
D26*
X60000000Y-68500000D03*
X60000000Y-70500000D03*
X60000000Y-73000000D03*
D27*
X57290000Y-62930000D03*
X57290000Y-76070000D03*
%TD*%
D21*
%TO.C,RV1*%
X70000000Y-147000000D03*
D22*
X72500000Y-147000000D03*
X75000000Y-147000000D03*
D23*
X68100000Y-140000000D03*
X76900000Y-140000000D03*
%TD*%
D19*
%TO.C,H1*%
X55000000Y-55000000D03*
D20*
X55000000Y-55000000D03*
%TD*%
D17*
%TO.C,J1*%
X55258621Y-112205000D03*
D18*
X55258621Y-112205000D03*
%TD*%
D17*
%TO.C,J2*%
X55258621Y-100205000D03*
D18*
X55258621Y-100205000D03*
%TD*%
D17*
%TO.C,J12*%
X144640000Y-99700000D03*
D18*
X144640000Y-99700000D03*
%TD*%
D17*
%TO.C,J13*%
X144670000Y-111690000D03*
D18*
X144670000Y-111690000D03*
%TD*%
D19*
%TO.C,H4*%
X55000000Y-145000000D03*
D20*
X55000000Y-145000000D03*
%TD*%
D17*
%TO.C,J15*%
X104960000Y-144360000D03*
D18*
X104960000Y-144360000D03*
%TD*%
D17*
%TO.C,J3*%
X55258621Y-88205000D03*
D18*
X55258621Y-88205000D03*
%TD*%
D17*
%TO.C,J14*%
X94960000Y-144360000D03*
D18*
X94960000Y-144360000D03*
%TD*%
M02*
