M48
; DRILL file {KiCad 7.0.1} date Sun Jul 30 21:13:22 2023
; FORMAT={-:-/ absolute / inch / decimal}
; #@! TF.CreationDate,2023-07-30T21:13:22+03:00
; #@! TF.GenerationSoftware,Kicad,Pcbnew,7.0.1
; #@! TF.FileFunction,Plated,1,4,PTH
FMAT,2
INCH
; #@! TA.AperFunction,Plated,PTH,ViaDrill
T1C0.0138
; #@! TA.AperFunction,Plated,PTH,ViaDrill
T2C0.0157
; #@! TA.AperFunction,Plated,PTH,ComponentDrill
T3C0.0157
; #@! TA.AperFunction,Plated,PTH,ComponentDrill
T4C0.0374
; #@! TA.AperFunction,Plated,PTH,ComponentDrill
T5C0.0394
; #@! TA.AperFunction,Plated,PTH,ComponentDrill
T6C0.0433
; #@! TA.AperFunction,Plated,PTH,ComponentDrill
T7C0.0709
; #@! TA.AperFunction,Plated,PTH,ComponentDrill
T8C0.0906
; #@! TA.AperFunction,Plated,PTH,ViaDrill
T9C0.0984
; #@! TA.AperFunction,Plated,PTH,ComponentDrill
T10C0.0984
; #@! TA.AperFunction,Plated,PTH,ComponentDrill
T11C0.1260
%
G90
G05
T1
X2.4787Y-2.0465
X2.5937Y-2.3965
X2.5953Y-2.4563
X3.1303Y-2.137
X3.3571Y-5.248
X3.3579Y-5.3016
X3.5496Y-5.5402
X3.561Y-5.7157
X3.5614Y-5.6118
X3.5689Y-5.7882
X3.5843Y-5.3516
X3.5846Y-5.6646
X3.5941Y-5.5669
X3.6071Y-5.7705
X3.6146Y-5.4752
X3.6181Y-5.7157
X3.622Y-5.6122
X3.6252Y-5.5291
X3.6276Y-5.835
X3.6472Y-5.6634
X3.6531Y-5.5654
X3.6591Y-5.7906
X3.6634Y-5.7425
X3.6654Y-5.4882
X3.6803Y-5.8567
X3.6882Y-5.5319
X3.7024Y-5.5949
X3.7091Y-5.8083
X3.7268Y-5.4886
X3.7323Y-5.8567
X3.7358Y-5.539
X3.7587Y-5.3469
X3.7657Y-5.8031
X3.7823Y-5.4984
X3.7913Y-5.8543
X3.7969Y-5.5531
X3.8Y-5.748
X3.8012Y-5.6106
X3.8252Y-5.8055
X3.8303Y-5.6689
X3.8362Y-5.5157
X3.8374Y-2.0366
X3.8445Y-5.8547
X3.8516Y-5.5697
X3.8555Y-5.765
X3.8701Y-5.7094
X3.8705Y-5.6224
X3.8846Y-5.8071
X3.8882Y-2.001
X3.8961Y-5.524
X3.9126Y-5.75
X3.9134Y-5.6614
X3.915Y-5.5803
X3.9382Y-2.0366
T2
X2.0144Y-2.8602
X2.0204Y-3.9675
X2.0212Y-3.0253
X2.0217Y-4.4323
X2.022Y-3.5053
X2.0232Y-3.8923
X2.0232Y-4.1061
X2.0236Y-4.0187
X2.0236Y-3.1102
X2.0236Y-3.1969
X2.024Y-3.8081
X2.0244Y-4.3571
X2.0244Y-4.5709
X2.0247Y-3.4301
X2.0247Y-3.6439
X2.0248Y-4.4835
X2.0251Y-3.5565
X2.0252Y-4.2728
X2.0255Y-3.3459
X2.0259Y-4.1951
X2.0272Y-4.6598
X2.0275Y-3.7329
X2.0315Y-2.7795
X2.0352Y-2.6784
X2.0354Y-2.4606
X2.036Y-2.9458
X2.039Y-2.5286
X2.0394Y-2.3504
X2.0414Y-2.6199
X2.044Y-3.8535
X2.044Y-4.1488
X2.0452Y-4.3183
X2.0452Y-4.6136
X2.0456Y-3.3913
X2.0456Y-3.6866
X2.0461Y-3.2667
X2.0476Y-4.0585
X2.0488Y-4.5232
X2.0492Y-3.5963
X2.0598Y-3.9439
X2.061Y-4.4087
X2.0614Y-3.4817
X2.0694Y-5.0845
X2.0716Y-3.8923
X2.0716Y-4.1057
X2.072Y-3.8085
X2.0728Y-3.5474
X2.0728Y-4.3571
X2.0728Y-4.5705
X2.0732Y-3.4301
X2.0732Y-3.6435
X2.0732Y-4.2732
X2.0736Y-3.3463
X2.0754Y-4.754
X2.0759Y-4.1943
X2.0772Y-4.6591
X2.0775Y-3.7321
X2.0783Y-4.4774
X2.0791Y-4.0199
X2.08Y-5.4697
X2.0804Y-5.2307
X2.0817Y-5.1558
X2.085Y-5.5471
X2.0853Y-5.3123
X2.0862Y-4.9223
X2.0895Y-4.8416
X2.0903Y-5.3868
X2.0908Y-4.9901
X2.098Y-3.599
X2.1004Y-2.9345
X2.1007Y-2.8524
X2.1008Y-2.7851
X2.103Y-3.8535
X2.103Y-4.1488
X2.1031Y-3.3856
X2.1031Y-4.5238
X2.1043Y-4.3183
X2.1043Y-4.6136
X2.1044Y-3.1027
X2.1046Y-3.6866
X2.1051Y-4.0632
X2.115Y-3.0295
X2.116Y-3.1977
X2.1202Y-2.3428
X2.1237Y-2.6873
X2.1239Y-3.2703
X2.1291Y-2.5373
X2.1299Y-2.4449
X2.1303Y-3.6431
X2.1303Y-4.573
X2.131Y-3.8085
X2.1322Y-4.1061
X2.1323Y-4.2732
X2.1326Y-3.3463
X2.135Y-4.1943
X2.1361Y-2.6143
X2.1362Y-4.6591
X2.1366Y-3.7321
X2.1492Y-4.8279
X2.1494Y-5.386
X2.1538Y-5.4659
X2.1547Y-3.8518
X2.1565Y-5.152
X2.1566Y-4.5246
X2.1579Y-5.5366
X2.1584Y-5.3102
X2.1606Y-4.314
X2.1614Y-3.601
X2.1621Y-4.1488
X2.1622Y-4.7575
X2.1626Y-5.0757
X2.1633Y-4.6136
X2.1637Y-3.6866
X2.1641Y-4.0656
X2.1658Y-4.905
X2.1659Y-4.9944
X2.1686Y-5.2339
X2.1841Y-3.2615
X2.1883Y-3.1001
X2.1901Y-3.8085
X2.1901Y-4.573
X2.1909Y-3.6455
X2.1913Y-4.2732
X2.1917Y-3.3463
X2.1921Y-4.1081
X2.1931Y-3.1907
X2.194Y-4.1943
X2.1953Y-4.6591
X2.1956Y-3.7321
X2.2041Y-2.3403
X2.2149Y-4.5285
X2.2169Y-3.6002
X2.22Y-3.8518
X2.22Y-4.0675
X2.2212Y-4.1488
X2.2212Y-4.3152
X2.2224Y-4.6136
X2.2227Y-3.6866
X2.2271Y-3.3841
X2.2275Y-5.2343
X2.2278Y-4.9229
X2.2304Y-5.5578
X2.2304Y-5.3872
X2.2326Y-2.7038
X2.2327Y-2.8481
X2.2334Y-5.144
X2.2345Y-5.076
X2.2362Y-2.626
X2.2393Y-4.4844
X2.2406Y-4.9967
X2.2414Y-2.764
X2.2414Y-4.8284
X2.2417Y-4.0289
X2.2431Y-4.7494
X2.2444Y-5.3117
X2.2472Y-3.5719
X2.2473Y-5.4727
X2.2484Y-4.1077
X2.2492Y-3.8085
X2.2496Y-4.5724
X2.2499Y-3.6455
X2.2504Y-4.2732
X2.2507Y-3.3463
X2.2531Y-4.1943
X2.2543Y-4.6591
X2.2547Y-3.7321
X2.2661Y-3.2031
X2.2682Y-3.2702
X2.2716Y-4.3959
X2.2717Y-3.1142
X2.274Y-3.4742
X2.2797Y-2.3437
X2.2802Y-3.8535
X2.2802Y-4.1488
X2.2814Y-4.3183
X2.2814Y-4.6136
X2.2818Y-3.3913
X2.2818Y-3.6866
X2.2846Y-4.0675
X2.2858Y-4.5323
X2.2862Y-3.6053
X2.2893Y-4.0171
X2.2906Y-4.4819
X2.2909Y-3.5549
X2.2965Y-2.2283
X2.3007Y-3.8923
X2.3011Y-3.9715
X2.302Y-4.3571
X2.3023Y-3.4301
X2.3024Y-4.4362
X2.3027Y-3.5093
X2.3055Y-5.6344
X2.3082Y-3.8085
X2.3084Y-5.231
X2.3094Y-4.2732
X2.3098Y-3.3463
X2.3114Y-4.1077
X2.3122Y-4.1943
X2.3126Y-4.5724
X2.3129Y-3.6455
X2.3134Y-4.6591
X2.3137Y-3.7321
X2.3138Y-5.0015
X2.314Y-5.1535
X2.3146Y-5.3781
X2.3147Y-2.1519
X2.3165Y-4.8256
X2.3174Y-4.9207
X2.3174Y-5.0704
X2.3186Y-4.751
X2.3211Y-5.466
X2.3212Y-5.7771
X2.3213Y-5.3047
X2.3218Y-2.0747
X2.3232Y-5.7099
X2.3242Y-5.5378
X2.3259Y-3.853
X2.3272Y-4.3177
X2.3275Y-3.3907
X2.3401Y-4.1506
X2.3409Y-3.9364
X2.3409Y-3.9994
X2.3409Y-4.0589
X2.3413Y-4.6154
X2.3417Y-3.6884
X2.3421Y-4.4012
X2.3421Y-4.4642
X2.3421Y-4.5236
X2.3425Y-3.4742
X2.3425Y-3.5372
X2.3425Y-3.5967
X2.3433Y-3.2051
X2.3469Y-3.2731
X2.3641Y-4.2781
X2.3658Y-3.1282
X2.3696Y-3.8132
X2.37Y-3.353
X2.372Y-3.0697
X2.3831Y-5.1462
X2.3837Y-5.7729
X2.3877Y-2.1653
X2.3877Y-4.9108
X2.39Y-3.8972
X2.3913Y-4.362
X2.3914Y-4.9901
X2.3916Y-3.435
X2.3927Y-5.4688
X2.3931Y-5.6231
X2.3935Y-5.0694
X2.3937Y-4.7525
X2.3954Y-4.8445
X2.3956Y-5.3968
X2.3972Y-5.2404
X2.3975Y-5.5361
X2.3999Y-2.4744
X2.4004Y-2.2405
X2.401Y-5.3007
X2.4038Y-2.0876
X2.404Y-2.3897
X2.4064Y-5.7129
X2.4129Y-3.936
X2.4142Y-4.4008
X2.4144Y-3.2723
X2.4145Y-3.4738
X2.4181Y-3.8522
X2.4193Y-4.3169
X2.4196Y-3.39
X2.4315Y-3.1916
X2.4485Y-3.0655
X2.4491Y-3.8972
X2.4503Y-4.362
X2.4507Y-3.435
X2.4627Y-5.1618
X2.4669Y-4.7704
X2.4686Y-5.3171
X2.4688Y-5.2406
X2.469Y-4.9156
X2.4719Y-5.3895
X2.4722Y-2.4783
X2.4723Y-5.5424
X2.4727Y-5.7776
X2.4763Y-3.936
X2.477Y-4.9987
X2.4771Y-3.8522
X2.4774Y-5.6148
X2.4774Y-5.4631
X2.4775Y-4.1128
X2.4776Y-4.4008
X2.4779Y-3.4738
X2.4783Y-4.3169
X2.4787Y-3.39
X2.4797Y-3.6498
X2.4802Y-4.5756
X2.4812Y-4.839
X2.4823Y-5.7092
X2.4848Y-5.0726
X2.4939Y-2.8841
X2.4959Y-2.9506
X2.5004Y-4.1516
X2.5007Y-3.2644
X2.5007Y-3.1972
X2.5026Y-3.6886
X2.5031Y-4.6144
X2.5055Y-4.0677
X2.5077Y-3.6047
X2.5082Y-3.8972
X2.5082Y-4.5305
X2.5085Y-2.6555
X2.5094Y-4.362
X2.5097Y-3.435
X2.5185Y-2.5355
X2.5185Y-2.7955
X2.5185Y-3.0255
X2.5366Y-4.1128
X2.5387Y-3.6498
X2.5393Y-4.5756
X2.543Y-5.2305
X2.544Y-5.6201
X2.5445Y-5.7043
X2.5456Y-5.5528
X2.546Y-5.7816
X2.5469Y-5.3809
X2.5531Y-5.4785
X2.5532Y-5.3198
X2.5534Y-5.0663
X2.5549Y-5.1619
X2.5585Y-3.1955
X2.5638Y-4.1516
X2.5646Y-4.0677
X2.5659Y-3.6886
X2.5665Y-4.6144
X2.5667Y-3.6047
X2.5669Y-2.8965
X2.5673Y-4.5305
X2.5689Y-2.963
X2.5956Y-4.1128
X2.5978Y-3.6498
X2.5983Y-4.5756
X2.6193Y-3.1949
X2.6252Y-2.2827
X2.628Y-2.0476
X2.6289Y-5.225
X2.6309Y-5.155
X2.6386Y-2.8323
X2.6405Y-4.0439
X2.6405Y-4.1904
X2.6425Y-4.5065
X2.6425Y-4.653
X2.6431Y-3.5803
X2.6431Y-3.7268
X2.6442Y-2.8985
X2.6461Y-2.9651
X2.6559Y-3.8691
X2.6559Y-3.9407
X2.6582Y-4.3317
X2.6582Y-4.4033
X2.6584Y-3.4063
X2.6584Y-3.478
X2.6606Y-4.0813
X2.6606Y-4.1549
X2.6625Y-4.5439
X2.6625Y-4.6175
X2.6631Y-3.6177
X2.6631Y-3.6913
X2.6744Y-3.8329
X2.6744Y-3.9045
X2.6744Y-3.9781
X2.6759Y-4.0439
X2.6759Y-4.1187
X2.6759Y-4.1904
X2.6767Y-4.2955
X2.6767Y-4.3671
X2.6767Y-4.4407
X2.6769Y-3.3701
X2.6769Y-3.4417
X2.6769Y-3.5154
X2.6779Y-4.5065
X2.6779Y-4.5813
X2.6779Y-4.653
X2.6785Y-3.5803
X2.6785Y-3.6551
X2.6785Y-3.7268
X2.6944Y-3.8691
X2.6944Y-3.9407
X2.696Y-4.0813
X2.696Y-4.1549
X2.6965Y-3.1969
X2.6968Y-4.3317
X2.6968Y-4.4033
X2.697Y-3.4063
X2.697Y-3.478
X2.698Y-4.5439
X2.698Y-4.6175
X2.6986Y-3.6177
X2.6986Y-3.6913
X2.7031Y-2.2839
X2.7051Y-2.0469
X2.7077Y-5.2276
X2.7114Y-3.8329
X2.7114Y-3.9045
X2.7114Y-3.9781
X2.7129Y-4.0439
X2.7129Y-4.1187
X2.7129Y-4.1904
X2.7137Y-4.2955
X2.7137Y-4.3671
X2.7137Y-4.4407
X2.7139Y-3.3701
X2.7139Y-3.4417
X2.7139Y-3.5154
X2.7149Y-4.5065
X2.7149Y-4.5813
X2.7149Y-4.653
X2.7155Y-3.5803
X2.7155Y-3.6551
X2.7155Y-3.7268
X2.7314Y-3.8691
X2.7314Y-3.9407
X2.733Y-4.0813
X2.733Y-4.1549
X2.7338Y-4.3317
X2.7338Y-4.4033
X2.734Y-3.4063
X2.734Y-3.478
X2.735Y-4.5439
X2.735Y-4.6175
X2.7356Y-3.6177
X2.7356Y-3.6913
X2.7468Y-3.8329
X2.7468Y-3.9045
X2.7468Y-3.9781
X2.7485Y-2.8355
X2.7492Y-4.2955
X2.7492Y-4.3671
X2.7492Y-4.4407
X2.7494Y-3.3701
X2.7494Y-3.4417
X2.7494Y-3.5154
X2.7515Y-4.0439
X2.7515Y-4.1187
X2.7515Y-4.1904
X2.7535Y-4.5065
X2.7535Y-4.5813
X2.7535Y-4.653
X2.7541Y-3.5803
X2.7541Y-3.6551
X2.7541Y-3.7268
X2.7669Y-3.8691
X2.7669Y-3.9407
X2.7692Y-4.3317
X2.7692Y-4.4033
X2.7694Y-3.4063
X2.7694Y-3.478
X2.7716Y-4.0813
X2.7716Y-4.1549
X2.7736Y-4.5439
X2.7736Y-4.6175
X2.7742Y-3.6177
X2.7742Y-3.6913
X2.7785Y-2.5155
X2.7822Y-3.8329
X2.7822Y-3.9045
X2.7822Y-3.9781
X2.7846Y-4.2955
X2.7846Y-4.3671
X2.7846Y-4.4407
X2.7848Y-5.2304
X2.7848Y-3.3701
X2.7848Y-3.4417
X2.7848Y-3.5154
X2.7868Y-3.1979
X2.7885Y-2.6355
X2.789Y-2.9378
X2.7925Y-4.0439
X2.7925Y-4.1187
X2.7925Y-4.1904
X2.7944Y-4.5065
X2.7944Y-4.5813
X2.7944Y-4.653
X2.795Y-3.5803
X2.795Y-3.6551
X2.795Y-3.7268
X2.7985Y-2.7755
X2.8023Y-3.8691
X2.8023Y-3.9407
X2.8047Y-4.3317
X2.8047Y-4.4033
X2.8049Y-3.4063
X2.8049Y-3.478
X2.8469Y-2.9555
X2.8485Y-2.6955
X2.8585Y-2.5355
X2.8598Y-3.2102
X2.8693Y-5.2212
X2.8815Y-2.9012
X2.896Y-2.9961
X2.9028Y-2.3949
X2.9083Y-2.8063
X2.9371Y-3.2123
X2.9472Y-2.2858
X2.9562Y-2.4763
X2.9585Y-3.1355
X2.9594Y-2.6579
X2.9605Y-2.9848
X2.9618Y-2.8122
X2.9753Y-2.9053
X2.9787Y-2.6122
X2.9862Y-2.0327
X3.0102Y-4.0008
X3.0118Y-2.5472
X3.0209Y-4.4661
X3.0272Y-3.538
X3.0312Y-5.2262
X3.0402Y-2.5827
X3.0476Y-4.15
X3.0563Y-4.3677
X3.063Y-3.8764
X3.0661Y-3.4146
X3.0717Y-2.548
X3.0843Y-2.0039
X3.0921Y-5.8571
X3.0946Y-3.7333
X3.0969Y-4.2843
X3.099Y-5.2289
X3.1051Y-2.5858
X3.1084Y-4.6802
X3.1087Y-4.1996
X3.1268Y-2.5445
X3.1339Y-2.0138
X3.1445Y-3.1004
X3.1453Y-4.7343
X3.1531Y-5.6957
X3.1711Y-2.8587
X3.1712Y-5.6188
X3.1764Y-5.5361
X3.1809Y-3.1819
X3.1825Y-5.2242
X3.186Y-4.7641
X3.1898Y-5.3969
X3.1903Y-5.4572
X3.1913Y-5.3038
X3.1921Y-2.7898
X3.1992Y-2.0035
X3.228Y-5.6949
X3.2382Y-5.8386
X3.2421Y-2.0366
X3.2425Y-3.2531
X3.25Y-5.2417
X3.2542Y-5.3916
X3.2543Y-3.8039
X3.257Y-5.4656
X3.2579Y-2.2921
X3.2582Y-5.3014
X3.2603Y-4.7525
X3.2604Y-5.6133
X3.2606Y-5.5394
X3.2618Y-2.6571
X3.2657Y-4.2819
X3.2661Y-2.1736
X3.2661Y-3.4201
X3.2668Y-4.8312
X3.2854Y-3.2
X3.2906Y-2.563
X3.2906Y-3.3835
X3.2921Y-3.8461
X3.3087Y-4.4134
X3.3217Y-2.6634
X3.322Y-2.024
X3.322Y-3.8
X3.324Y-3.2291
X3.328Y-5.615
X3.3288Y-2.2348
X3.3327Y-5.8177
X3.3343Y-4.7579
X3.3405Y-2.3999
X3.3471Y-4.8294
X3.3474Y-2.3284
X3.3476Y-5.5551
X3.3508Y-3.4476
X3.3524Y-3.9181
X3.3535Y-3.7685
X3.3539Y-2.611
X3.3575Y-4.248
X3.3579Y-4.3819
X3.3626Y-5.7228
X3.3701Y-5.3622
X3.3736Y-5.4217
X3.3819Y-5.474
X3.389Y-2.5504
X3.4035Y-2.9244
X3.4067Y-4.8416
X3.4087Y-3.4819
X3.4126Y-3.9504
X3.4126Y-5.5287
X3.4154Y-4.3516
X3.4165Y-2.1874
X3.4177Y-2.0232
X3.4193Y-2.8531
X3.4205Y-4.4626
X3.4207Y-3.8289
X3.4217Y-4.1358
X3.4217Y-4.2126
X3.4223Y-4.763
X3.4272Y-3.7547
X3.4276Y-3.6571
X3.4291Y-4.6858
X3.4291Y-5.6602
X3.4323Y-4.5882
X3.4327Y-2.6154
X3.4362Y-5.8591
X3.4433Y-3.2417
X3.4433Y-4.0961
X3.4469Y-3.3008
X3.4669Y-3.1925
X3.4728Y-5.472
X3.474Y-4.6366
X3.478Y-2.8311
X3.491Y-5.7111
X3.4957Y-2.9122
X3.4984Y-5.6358
X3.4987Y-5.7868
X3.5177Y-4.7067
X3.5197Y-2.0213
X3.5217Y-2.8059
X3.5264Y-3.8398
X3.5283Y-3.9012
X3.5343Y-4.0366
X3.5343Y-5.0106
X3.5343Y-5.0843
X3.5482Y-4.5953
X3.5484Y-2.1803
X3.5563Y-4.9752
X3.5563Y-5.0469
X3.5563Y-5.1217
X3.5622Y-3.976
X3.5772Y-5.0106
X3.5772Y-5.0843
X3.5796Y-4.8386
X3.5799Y-4.3862
X3.5854Y-3.2445
X3.5933Y-2.25
X3.5984Y-4.6469
X3.5988Y-2.439
X3.599Y-4.099
X3.6008Y-4.9744
X3.6008Y-5.0461
X3.6008Y-5.1209
X3.6047Y-3.935
X3.6051Y-4.2539
X3.6122Y-2.0157
X3.6173Y-2.9264
X3.6177Y-4.7638
X3.6193Y-2.3472
X3.6217Y-5.0098
X3.6217Y-5.0835
X3.6228Y-3.7535
X3.6402Y-3.9646
X3.6417Y-4.9744
X3.6417Y-5.0461
X3.6417Y-5.1209
X3.6446Y-4.8274
X3.6522Y-4.3844
X3.6575Y-4.2457
X3.6602Y-5.0098
X3.6602Y-5.0835
X3.6626Y-2.625
X3.6629Y-2.0931
X3.6657Y-2.287
X3.6659Y-4.1018
X3.6661Y-2.8091
X3.6752Y-4.4469
X3.6803Y-4.9744
X3.6803Y-5.0461
X3.6803Y-5.1209
X3.6835Y-3.7878
X3.6878Y-4.6894
X3.6972Y-5.0098
X3.6972Y-5.0835
X3.7028Y-4.2535
X3.7051Y-2.4421
X3.7173Y-4.9744
X3.7173Y-5.0461
X3.7173Y-5.1209
X3.7234Y-2.0771
X3.724Y-2.1827
X3.7316Y-4.8428
X3.7327Y-5.0098
X3.7327Y-5.0835
X3.74Y-4.1301
X3.7485Y-2.6655
X3.7528Y-4.9744
X3.7528Y-5.0461
X3.7528Y-5.1209
X3.7634Y-2.0083
X3.7846Y-2.3402
X3.8016Y-2.4
X3.8075Y-2.6606
X3.8098Y-4.2516
X3.8126Y-2.248
X3.8208Y-2.5425
X3.8276Y-4.5953
X3.835Y-4.876
X3.8911Y-2.7959
X3.8976Y-2.8457
X3.9024Y-4.6358
X3.937Y-4.674
X3.9547Y-4.4913
X3.9567Y-5.178
X3.9583Y-4.6024
X3.9623Y-4.2905
X3.9677Y-2.7041
X3.9743Y-4.2042
X3.976Y-5.5701
X3.9776Y-2.2567
X3.9787Y-5.648
X3.9798Y-4.1283
X3.9815Y-4.565
X3.9846Y-5.7693
X3.9909Y-5.4783
X4.0075Y-5.7189
X4.0146Y-2.1394
X4.0165Y-4.7957
X4.0181Y-5.4126
X4.0181Y-5.5295
X4.0197Y-4.0272
X4.0201Y-4.3764
X4.0272Y-4.0902
X4.0307Y-2.0866
X4.0311Y-4.4547
X4.0327Y-2.4846
X4.0335Y-5.5846
X4.0417Y-3.7087
X4.0429Y-5.6449
X4.0504Y-5.7976
X4.0508Y-2.7036
X4.052Y-5.4799
X4.0533Y-4.9301
X4.0591Y-4.8894
X4.065Y-4.0547
X4.074Y-4.798
X4.0772Y-5.861
X4.0846Y-3.7508
X4.089Y-5.5902
X4.0961Y-5.5283
X4.1012Y-5.7689
X4.1051Y-2.878
X4.1196Y-2.087
X4.1283Y-5.8339
X4.1299Y-5.4787
X4.1339Y-2.2594
X4.1571Y-5.5299
X4.1606Y-3.6878
X4.1642Y-4.6713
X4.1646Y-4.5201
X4.1669Y-4.0217
X4.1681Y-4.1461
X4.1736Y-5.5929
X4.1748Y-4.8047
X4.1827Y-3.9079
X4.1933Y-5.8579
X4.2012Y-2.2587
X4.202Y-5.7528
X4.2024Y-4.3835
X4.2031Y-5.4772
X4.2081Y-2.1549
X4.211Y-4.2264
X4.2158Y-2.0704
X4.2185Y-5.5461
X4.2217Y-5.6665
X4.2272Y-5.8083
X4.237Y-5.4276
X4.2374Y-4.1161
X4.2378Y-3.9173
X4.2421Y-5.6122
X4.2504Y-5.7201
X4.2543Y-5.8594
X4.263Y-4.5228
X4.2642Y-4.9106
X4.2642Y-5.4787
X4.2685Y-5.1642
X4.2701Y-4.061
X4.2705Y-2.3713
X4.278Y-5.2224
X4.2795Y-5.7681
X4.2819Y-5.5657
X4.2831Y-5.6728
X4.2849Y-2.0896
X4.2906Y-2.2528
X4.2917Y-5.3673
X4.2972Y-4.4484
X4.302Y-5.8232
X4.3134Y-5.7185
X4.3157Y-5.5161
X4.3169Y-5.6232
X4.3232Y-2.2984
X4.3406Y-5.7697
X4.3429Y-5.5673
X4.3441Y-5.6744
X4.3453Y-4.0768
X4.3485Y-5.2008
X4.354Y-4.8279
X4.3642Y-4.5134
X4.3646Y-4.3791
X4.3729Y-2.0756
X4.375Y-5.3866
X4.3803Y-5.7299
X4.3823Y-5.6205
X4.3929Y-3.9913
X4.3996Y-4.0646
X4.4055Y-2.5382
X4.4087Y-4.6661
X4.4122Y-4.5654
X4.4232Y-2.435
X4.436Y-5.7938
X4.4438Y-5.7135
X4.4464Y-2.093
X4.4492Y-4.4122
X4.4506Y-5.461
X4.4535Y-5.5535
X4.4618Y-2.5236
X4.4618Y-3.7874
X4.4839Y-4.3185
X4.4854Y-2.598
X4.5004Y-4.9787
X4.5004Y-5.0535
X4.5004Y-5.1252
X4.5039Y-5.3701
X4.5043Y-4.7752
X4.5097Y-5.6995
X4.5125Y-5.7797
X4.5134Y-4.0287
X4.5172Y-5.5403
X4.5194Y-2.0752
X4.5205Y-5.0161
X4.5205Y-5.0898
X4.5206Y-3.0169
X4.5209Y-4.4205
X4.5213Y-4.2795
X4.522Y-3.5884
X4.523Y-3.2609
X4.5245Y-3.6605
X4.5308Y-5.6304
X4.5312Y-3.1109
X4.5335Y-3.7402
X4.5358Y-4.9787
X4.5358Y-5.0535
X4.5358Y-5.1252
X4.5398Y-2.6819
X4.5476Y-4.552
X4.5559Y-5.0161
X4.5559Y-5.0898
X4.5728Y-4.9787
X4.5728Y-5.0535
X4.5728Y-5.1252
X4.5823Y-4.2795
X4.5886Y-4.8535
X4.5886Y-5.4976
X4.5896Y-3.5715
X4.5916Y-5.615
X4.592Y-3.6508
X4.5921Y-4.8114
X4.5929Y-5.0161
X4.5929Y-5.0898
X4.5931Y-3.4972
X4.5946Y-3.0258
X4.5952Y-2.0737
X4.5972Y-4.4283
X4.5972Y-4.548
X4.5994Y-5.7001
X4.6022Y-3.1043
X4.6047Y-3.3524
X4.6053Y-5.7853
X4.6114Y-4.9787
X4.6114Y-5.0535
X4.6114Y-5.1252
X4.6142Y-4.0732
X4.6154Y-3.289
X4.6315Y-5.0161
X4.6315Y-5.0898
X4.6343Y-4.4106
X4.6524Y-4.9787
X4.6524Y-5.0535
X4.6524Y-5.1252
X4.6583Y-4.561
X4.6676Y-3.4906
X4.6693Y-5.6945
X4.6707Y-3.5702
X4.6725Y-5.7752
X4.674Y-4.615
X4.676Y-5.0154
X4.676Y-5.089
X4.6778Y-5.5578
X4.6793Y-5.6342
X4.6822Y-5.4721
X4.6849Y-3.6463
X4.6864Y-3.4219
X4.6902Y-4.1449
X4.6934Y-4.2783
X4.6969Y-4.978
X4.6969Y-5.0528
X4.6969Y-5.1244
X4.7051Y-5.2319
X4.715Y-4.8933
X4.7189Y-5.0154
X4.7189Y-5.089
X4.7213Y-5.2807
X4.7262Y-4.2435
X4.7295Y-4.2988
X4.7455Y-2.3145
X4.7457Y-3.8244
X4.7465Y-2.4643
X4.7469Y-4.6091
X4.7519Y-2.1663
X4.7557Y-2.8
X4.7557Y-3.3347
X4.7575Y-4.8697
X4.758Y-2.4003
X4.7609Y-2.2292
X4.7626Y-2.0809
X4.7644Y-4.3713
X4.7724Y-3.4051
X4.774Y-2.6512
X4.7772Y-3.6583
X4.7906Y-3.5244
X4.7917Y-4.5724
X4.7925Y-3.9492
X4.7965Y-4.1598
X4.8008Y-3.8291
X4.8039Y-4.1165
X4.8055Y-4.7094
X4.8258Y-2.4819
X4.8294Y-2.553
X4.835Y-2.1573
X4.8376Y-2.3212
X4.8382Y-2.7807
X4.8416Y-2.2425
X4.8433Y-5.4846
X4.8436Y-2.3918
X4.8449Y-5.2551
X4.8458Y-2.0855
X4.8933Y-2.8724
X4.9053Y-2.4635
X4.9091Y-2.5502
X4.9103Y-2.0918
X4.9133Y-2.2358
X4.9143Y-2.6397
X4.9148Y-2.3961
X4.9154Y-2.1658
X4.9203Y-2.3255
X4.9264Y-5.2335
X4.9374Y-5.3154
X4.9488Y-3.0646
X4.9551Y-3.15
X4.9823Y-2.3065
X4.9858Y-2.7199
X4.9865Y-5.2211
X4.9923Y-2.4677
X4.9926Y-2.1663
X4.9938Y-2.0737
X4.9973Y-2.6299
X4.9988Y-2.9504
X4.9996Y-2.4041
X5.0033Y-2.2455
X5.0041Y-2.5425
X5.0594Y-3.9969
X5.0594Y-4.0685
X5.06Y-4.4687
X5.06Y-4.5404
X5.0602Y-3.5268
X5.0602Y-3.5984
X5.0621Y-2.4793
X5.064Y-3.1846
X5.0645Y-2.3264
X5.0663Y-2.1559
X5.0693Y-3.7472
X5.0693Y-3.8189
X5.0693Y-3.8937
X5.0699Y-4.2199
X5.0699Y-4.2915
X5.0699Y-4.3663
X5.0705Y-3.2772
X5.0705Y-3.3488
X5.0705Y-3.4236
X5.0716Y-2.2322
X5.0743Y-2.0811
X5.0748Y-5.231
X5.0749Y-2.7808
X5.0754Y-2.3925
X5.0755Y-2.5595
X5.0795Y-3.9594
X5.0795Y-4.0331
X5.0795Y-4.1047
X5.0801Y-4.4313
X5.0801Y-4.5049
X5.0801Y-4.5766
X5.0803Y-3.4894
X5.0803Y-3.563
X5.0803Y-3.6346
X5.0902Y-3.7827
X5.0902Y-3.8563
X5.0907Y-4.2553
X5.0907Y-4.3289
X5.0913Y-3.3126
X5.0913Y-3.3862
X5.0949Y-3.9969
X5.0949Y-4.0685
X5.0955Y-4.4687
X5.0955Y-4.5404
X5.0957Y-3.5268
X5.0957Y-3.5984
X5.1102Y-3.7472
X5.1102Y-3.8189
X5.1102Y-3.8937
X5.1108Y-4.2199
X5.1108Y-4.2915
X5.1108Y-4.3663
X5.1114Y-3.2772
X5.1114Y-3.3488
X5.1114Y-3.4236
X5.115Y-3.9594
X5.115Y-4.0331
X5.115Y-4.1047
X5.1156Y-4.4313
X5.1156Y-4.5049
X5.1156Y-4.5766
X5.1157Y-2.8976
X5.1157Y-3.4894
X5.1157Y-3.563
X5.1157Y-3.6346
X5.1177Y-3.0563
X5.1287Y-3.7827
X5.1287Y-3.8563
X5.1293Y-4.2553
X5.1293Y-4.3289
X5.1299Y-3.3126
X5.1299Y-3.3862
X5.1303Y-3.9969
X5.1303Y-4.0685
X5.1309Y-4.4687
X5.1309Y-4.5404
X5.1311Y-3.5268
X5.1311Y-3.5984
X5.1392Y-2.0841
X5.1488Y-3.7472
X5.1488Y-3.8189
X5.1488Y-3.8937
X5.1494Y-4.2199
X5.1494Y-4.2915
X5.1494Y-4.3663
X5.15Y-3.2772
X5.15Y-3.3488
X5.15Y-3.4236
X5.1504Y-3.9594
X5.1504Y-4.0331
X5.1504Y-4.1047
X5.151Y-2.5483
X5.151Y-4.4313
X5.151Y-4.5049
X5.151Y-4.5766
X5.1512Y-3.4894
X5.1512Y-3.563
X5.1512Y-3.6346
X5.1514Y-2.2313
X5.1529Y-3.1844
X5.1596Y-2.316
X5.1598Y-5.2345
X5.1606Y-2.1641
X5.1657Y-3.7827
X5.1657Y-3.8563
X5.1663Y-4.2553
X5.1663Y-4.3289
X5.1669Y-3.3126
X5.1669Y-3.3862
X5.1673Y-3.0685
X5.1673Y-3.9969
X5.1673Y-4.0685
X5.1679Y-4.4687
X5.1679Y-4.5404
X5.1681Y-3.5268
X5.1681Y-3.5984
X5.1858Y-3.7472
X5.1858Y-3.8189
X5.1858Y-3.8937
X5.1864Y-4.2199
X5.1864Y-4.2915
X5.1864Y-4.3663
X5.187Y-3.2772
X5.187Y-3.3488
X5.187Y-3.4236
X5.1874Y-3.9594
X5.1874Y-4.0331
X5.1874Y-4.1047
X5.188Y-4.4313
X5.188Y-4.5049
X5.188Y-4.5766
X5.1882Y-3.4894
X5.1882Y-3.563
X5.1882Y-3.6346
X5.2012Y-3.7827
X5.2012Y-3.8563
X5.2018Y-4.2553
X5.2018Y-4.3289
X5.2024Y-3.3126
X5.2024Y-3.3862
X5.2059Y-3.9969
X5.2059Y-4.0685
X5.2065Y-4.4687
X5.2065Y-4.5404
X5.2067Y-3.5268
X5.2067Y-3.5984
X5.2213Y-3.7472
X5.2213Y-3.8937
X5.2219Y-4.2199
X5.2219Y-4.3663
X5.2222Y-2.2334
X5.2224Y-3.2772
X5.2224Y-3.4236
X5.2277Y-3.173
X5.2304Y-2.0851
X5.2318Y-2.1671
X5.2327Y-2.3267
X5.2396Y-3.1166
X5.2407Y-2.5601
X5.2661Y-3.8248
X5.2666Y-3.3545
X5.2671Y-4.2969
X5.2972Y-3.8699
X5.2976Y-3.3996
X5.298Y-3.786
X5.2982Y-4.3419
X5.2984Y-3.3157
X5.299Y-4.2581
X5.3045Y-2.3204
X5.3064Y-2.0801
X5.3104Y-5.1439
X5.3107Y-3.1906
X5.3118Y-3.1136
X5.3142Y-5.2249
X5.3157Y-2.1587
X5.3172Y-2.5649
X5.3173Y-2.2465
X5.3252Y-3.8248
X5.3256Y-3.3545
X5.3262Y-4.2969
X5.3536Y-4.0404
X5.3552Y-4.5116
X5.3555Y-3.5681
X5.3562Y-3.8699
X5.3567Y-3.3996
X5.3572Y-4.3419
X5.3614Y-3.786
X5.3618Y-3.3157
X5.3623Y-4.2581
X5.3755Y-4.8469
X5.3755Y-5.1576
X5.3779Y-3.1768
X5.38Y-2.2449
X5.3843Y-3.8248
X5.3846Y-4.0854
X5.3847Y-3.3545
X5.3852Y-4.2969
X5.3854Y-4.0016
X5.3862Y-4.5567
X5.3866Y-3.6132
X5.3866Y-5.0704
X5.387Y-4.4728
X5.3873Y-3.5293
X5.3887Y-4.9159
X5.3899Y-3.1121
X5.3921Y-4.9966
X5.3922Y-2.5571
X5.3929Y-2.0864
X5.3931Y-2.156
X5.3948Y-2.316
X5.3958Y-4.7503
X5.3963Y-5.221
X5.3988Y-4.6828
X5.4127Y-4.0404
X5.4142Y-4.5116
X5.4146Y-3.5681
X5.4437Y-4.0854
X5.4453Y-4.5567
X5.4456Y-3.6132
X5.4488Y-4.0016
X5.4504Y-4.4728
X5.4507Y-3.5293
X5.46Y-5.226
X5.4602Y-2.3153
X5.462Y-3.1801
X5.4635Y-3.1057
X5.4644Y-2.1607
X5.4672Y-4.9868
X5.4683Y-2.2364
X5.4702Y-4.9252
X5.4708Y-2.0783
X5.4717Y-4.0404
X5.4733Y-4.5116
X5.4736Y-3.5681
X5.4741Y-5.161
X5.475Y-4.7676
X5.4757Y-4.8484
X5.4766Y-4.6714
X5.4773Y-5.0652
X5.5209Y-3.8787
X5.5209Y-3.9382
X5.5209Y-4.0012
X5.5217Y-3.787
X5.5224Y-4.35
X5.5224Y-4.4094
X5.5224Y-4.4724
X5.5228Y-3.4065
X5.5228Y-3.4659
X5.5228Y-3.5289
X5.5232Y-4.2583
X5.5236Y-3.3148
X5.5332Y-2.1607
X5.5352Y-4.9132
X5.5358Y-4.0846
X5.536Y-2.071
X5.5374Y-4.5559
X5.5377Y-3.6124
X5.5387Y-2.2498
X5.5391Y-5.0828
X5.5398Y-3.107
X5.5405Y-5.1633
X5.5431Y-4.6728
X5.5482Y-4.7657
X5.5494Y-3.183
X5.5496Y-3.7433
X5.55Y-4.9987
X5.55Y-3.0236
X5.5504Y-3.8299
X5.5505Y-5.3876
X5.5512Y-4.2146
X5.5515Y-3.2711
X5.552Y-4.3012
X5.5523Y-3.3577
X5.553Y-4.8278
X5.553Y-5.2368
X5.5531Y-2.3161
X5.5535Y-4.1291
X5.5539Y-5.7747
X5.5551Y-4.6004
X5.5555Y-3.6569
X5.5556Y-5.4751
X5.5598Y-2.8823
X5.5606Y-3.9661
X5.561Y-4.0453
X5.5622Y-4.4374
X5.5625Y-3.4939
X5.5626Y-4.5165
X5.5629Y-3.573
X5.5724Y-3.9205
X5.574Y-4.3917
X5.5744Y-3.4482
X5.5772Y-3.8701
X5.5787Y-4.3413
X5.5791Y-3.3978
X5.5816Y-3.7888
X5.5816Y-4.0841
X5.5819Y-2.3843
X5.5831Y-4.26
X5.5831Y-4.5553
X5.5835Y-3.3165
X5.5835Y-3.6118
X5.5894Y-4.0012
X5.5909Y-4.4724
X5.5913Y-3.5289
X5.5965Y-3.0193
X5.5988Y-2.9386
X5.5996Y-2.9748
X5.6087Y-3.7433
X5.6102Y-4.2146
X5.6106Y-3.2711
X5.6126Y-4.1291
X5.6134Y-3.8299
X5.6134Y-4.0453
X5.6142Y-4.6004
X5.6143Y-5.236
X5.6145Y-3.6569
X5.615Y-4.3012
X5.615Y-4.5165
X5.6153Y-3.3577
X5.6153Y-3.573
X5.6168Y-3.1854
X5.6174Y-5.5569
X5.6185Y-3.1141
X5.6192Y-5.3906
X5.6219Y-5.1475
X5.6229Y-5.4687
X5.6236Y-5.0062
X5.6237Y-4.7619
X5.6252Y-4.6872
X5.6257Y-4.8375
X5.6258Y-4.9153
X5.6272Y-5.0748
X5.6299Y-2.325
X5.6336Y-5.3003
X5.6406Y-3.7888
X5.6406Y-4.0841
X5.6422Y-4.26
X5.6422Y-4.5553
X5.6425Y-3.3165
X5.6425Y-3.6118
X5.6587Y-2.3931
X5.6677Y-3.7433
X5.6693Y-4.2146
X5.6696Y-3.2711
X5.6717Y-4.1291
X5.6732Y-4.6004
X5.6736Y-3.6569
X5.6768Y-4.0453
X5.6783Y-4.5165
X5.6787Y-3.573
X5.6914Y-4.7703
X5.693Y-5.1547
X5.6962Y-3.0331
X5.6973Y-4.8336
X5.6986Y-5.0711
X5.6997Y-3.7888
X5.6997Y-4.0841
X5.6997Y-5.3194
X5.7003Y-5.4601
X5.7007Y-3.0935
X5.701Y-4.993
X5.7012Y-4.26
X5.7012Y-4.5553
X5.7016Y-3.3165
X5.7016Y-3.6118
X5.7031Y-5.5483
X5.7056Y-3.1744
X5.7059Y-5.3864
X5.7062Y-4.9183
X5.7092Y-5.2353
X5.7102Y-2.9531
X5.7124Y-4.6812
X5.7138Y-2.3281
X5.7268Y-3.7433
X5.7283Y-4.2146
X5.7287Y-3.2711
X5.7295Y-4.0453
X5.7307Y-4.1291
X5.7311Y-4.5165
X5.7314Y-3.573
X5.7323Y-4.6004
X5.7326Y-3.6569
X5.7426Y-2.3962
X5.7587Y-3.7888
X5.7587Y-4.0841
X5.7603Y-4.26
X5.7603Y-4.5553
X5.7606Y-3.3165
X5.7606Y-3.6118
X5.774Y-2.5544
X5.7749Y-3.0935
X5.775Y-2.9545
X5.7758Y-4.8369
X5.776Y-4.9981
X5.7778Y-5.5396
X5.779Y-5.0708
X5.779Y-4.9179
X5.7833Y-3.1741
X5.7846Y-5.1469
X5.7857Y-2.3244
X5.7858Y-3.7433
X5.786Y-4.6721
X5.7867Y-4.7503
X5.7868Y-5.2376
X5.7874Y-4.2146
X5.7877Y-3.2711
X5.7888Y-5.3771
X5.7894Y-5.314
X5.7897Y-3.0212
X5.7898Y-4.1291
X5.7898Y-5.4556
X5.7902Y-3.8319
X5.7902Y-4.0453
X5.7913Y-4.6004
X5.7917Y-3.6569
X5.7917Y-4.3031
X5.7917Y-4.5165
X5.7921Y-3.3596
X5.7921Y-3.573
X5.7925Y-2.4794
X5.7953Y-2.715
X5.802Y-3.9937
X5.8035Y-4.465
X5.8039Y-3.5215
X5.8142Y-3.8791
X5.8157Y-4.3504
X5.8161Y-3.4069
X5.8178Y-3.7888
X5.8178Y-4.0841
X5.8193Y-4.26
X5.8193Y-4.5553
X5.8197Y-3.3165
X5.8197Y-3.6118
X5.8358Y-3.7425
X5.8374Y-4.2138
X5.8377Y-3.2703
X5.8378Y-4.1295
X5.8382Y-3.9189
X5.8386Y-3.8315
X5.8386Y-4.0453
X5.8394Y-4.6008
X5.8397Y-3.6573
X5.8398Y-4.3902
X5.8401Y-3.4467
X5.8402Y-4.3028
X5.8402Y-4.5165
X5.8405Y-3.3593
X5.8405Y-3.573
X5.8413Y-3.9701
X5.8429Y-4.4413
X5.8433Y-3.4978
X5.8433Y-2.6736
X5.8437Y-2.3972
X5.8453Y-2.9291
X5.8457Y-3.1248
X5.8567Y-2.5205
X5.8567Y-2.613
T3
X5.552Y-2.5746
X5.552Y-2.6219
X5.552Y-2.673
X5.552Y-2.7163
X5.5992Y-2.5746
X5.5992Y-2.6219
X5.5992Y-2.673
X5.5992Y-2.7163
T4
X2.3622Y-2.5984
X2.3622Y-2.6969
X2.3622Y-2.7756
X2.3622Y-2.874
T5
X2.7559Y-5.7874
X2.8543Y-5.7874
X2.9528Y-5.7874
X4.674Y-2.0512
X4.674Y-2.1512
X4.674Y-2.2512
X4.674Y-2.3512
X4.674Y-2.4512
X4.674Y-2.5512
X4.6756Y-2.748
X4.6756Y-2.848
X4.6756Y-2.948
X4.6756Y-3.048
X5.1575Y-5.7874
X5.2559Y-5.7874
X5.3543Y-5.7874
X5.6878Y-2.8311
X5.7878Y-2.8311
T6
X3.8181Y-3.8299
X3.9181Y-3.8299
X4.0181Y-3.8299
T8
X2.2555Y-2.4776
X2.2555Y-2.9949
T9
X3.4854Y-2.3417
T10
X2.1755Y-3.4726
X2.1755Y-3.9451
X2.1755Y-4.4175
X3.7386Y-5.6835
X4.1323Y-5.6835
X5.6945Y-3.9252
X5.6957Y-4.3972
X5.6964Y-3.4549
T11
X2.1654Y-2.1654
X2.1654Y-5.7087
X5.7087Y-2.1654
X5.7087Y-5.7087
T7
G00X2.6811Y-5.5177
M15
G01X2.6811Y-5.5059
M16
G05
G00X3.0276Y-5.5177
M15
G01X3.0276Y-5.5059
M16
G05
G00X5.0827Y-5.5177
M15
G01X5.0827Y-5.5059
M16
G05
G00X5.4291Y-5.5177
M15
G01X5.4291Y-5.5059
M16
G05
T0
M30
