%TF.GenerationSoftware,KiCad,Pcbnew,7.0.1*%
%TF.CreationDate,2023-07-30T21:13:22+03:00*%
%TF.ProjectId,ESP32_dual_ESC,45535033-325f-4647-9561-6c5f4553432e,rev?*%
%TF.SameCoordinates,Original*%
%TF.FileFunction,Paste,Top*%
%TF.FilePolarity,Positive*%
%FSLAX46Y46*%
G04 Gerber Fmt 4.6, Leading zero omitted, Abs format (unit mm)*
G04 Created by KiCad (PCBNEW 7.0.1) date 2023-07-30 21:13:22*
%MOMM*%
%LPD*%
G01*
G04 APERTURE LIST*
G04 Aperture macros list*
%AMRoundRect*
0 Rectangle with rounded corners*
0 $1 Rounding radius*
0 $2 $3 $4 $5 $6 $7 $8 $9 X,Y pos of 4 corners*
0 Add a 4 corners polygon primitive as box body*
4,1,4,$2,$3,$4,$5,$6,$7,$8,$9,$2,$3,0*
0 Add four circle primitives for the rounded corners*
1,1,$1+$1,$2,$3*
1,1,$1+$1,$4,$5*
1,1,$1+$1,$6,$7*
1,1,$1+$1,$8,$9*
0 Add four rect primitives between the rounded corners*
20,1,$1+$1,$2,$3,$4,$5,0*
20,1,$1+$1,$4,$5,$6,$7,0*
20,1,$1+$1,$6,$7,$8,$9,0*
20,1,$1+$1,$8,$9,$2,$3,0*%
G04 Aperture macros list end*
%ADD10C,0.001000*%
%ADD11RoundRect,0.200000X0.250000X0.452500X-0.250000X0.452500X-0.250000X-0.452500X0.250000X-0.452500X0*%
%ADD12RoundRect,0.160000X-0.200000X-0.267500X0.200000X-0.267500X0.200000X0.267500X-0.200000X0.267500X0*%
%ADD13RoundRect,0.112000X-0.167000X0.140000X-0.167000X-0.140000X0.167000X-0.140000X0.167000X0.140000X0*%
%ADD14RoundRect,0.195000X-0.435000X0.243750X-0.435000X-0.243750X0.435000X-0.243750X0.435000X0.243750X0*%
%ADD15RoundRect,0.200000X0.452500X-0.250000X0.452500X0.250000X-0.452500X0.250000X-0.452500X-0.250000X0*%
%ADD16RoundRect,0.108000X0.180000X-0.135000X0.180000X0.135000X-0.180000X0.135000X-0.180000X-0.135000X0*%
%ADD17RoundRect,0.160000X0.267500X-0.200000X0.267500X0.200000X-0.267500X0.200000X-0.267500X-0.200000X0*%
%ADD18RoundRect,0.160000X0.200000X0.267500X-0.200000X0.267500X-0.200000X-0.267500X0.200000X-0.267500X0*%
%ADD19RoundRect,0.026250X-0.637500X-0.153750X0.637500X-0.153750X0.637500X0.153750X-0.637500X0.153750X0*%
%ADD20RoundRect,0.180000X0.247500X-0.225000X0.247500X0.225000X-0.247500X0.225000X-0.247500X-0.225000X0*%
%ADD21RoundRect,0.082500X0.120000X-0.187500X0.120000X0.187500X-0.120000X0.187500X-0.120000X-0.187500X0*%
%ADD22RoundRect,0.180000X0.225000X0.360000X-0.225000X0.360000X-0.225000X-0.360000X0.225000X-0.360000X0*%
%ADD23RoundRect,0.180000X-0.247500X0.225000X-0.247500X-0.225000X0.247500X-0.225000X0.247500X0.225000X0*%
%ADD24RoundRect,0.200000X-0.452500X0.250000X-0.452500X-0.250000X0.452500X-0.250000X0.452500X0.250000X0*%
%ADD25RoundRect,0.076250X0.193750X-0.587500X0.193750X0.587500X-0.193750X0.587500X-0.193750X-0.587500X0*%
%ADD26RoundRect,0.112000X0.167000X-0.140000X0.167000X0.140000X-0.167000X0.140000X-0.167000X-0.140000X0*%
%ADD27RoundRect,0.175000X0.218750X0.252500X-0.218750X0.252500X-0.218750X-0.252500X0.218750X-0.252500X0*%
%ADD28RoundRect,0.192500X-0.617500X0.325000X-0.617500X-0.325000X0.617500X-0.325000X0.617500X0.325000X0*%
%ADD29RoundRect,0.140000X-0.377500X0.175000X-0.377500X-0.175000X0.377500X-0.175000X0.377500X0.175000X0*%
%ADD30RoundRect,0.188750X-0.362500X-1.318750X0.362500X-1.318750X0.362500X1.318750X-0.362500X1.318750X0*%
%ADD31RoundRect,0.140000X0.377500X-0.175000X0.377500X0.175000X-0.377500X0.175000X-0.377500X-0.175000X0*%
%ADD32RoundRect,0.180000X-0.225000X-0.247500X0.225000X-0.247500X0.225000X0.247500X-0.225000X0.247500X0*%
%ADD33RoundRect,0.082500X-0.120000X0.187500X-0.120000X-0.187500X0.120000X-0.187500X0.120000X0.187500X0*%
%ADD34RoundRect,0.198750X0.431250X-0.262500X0.431250X0.262500X-0.431250X0.262500X-0.431250X-0.262500X0*%
%ADD35RoundRect,0.180000X-0.225000X-0.360000X0.225000X-0.360000X0.225000X0.360000X-0.225000X0.360000X0*%
%ADD36RoundRect,0.108000X0.135000X0.180000X-0.135000X0.180000X-0.135000X-0.180000X0.135000X-0.180000X0*%
%ADD37RoundRect,0.075000X-1.500000X-0.645000X1.500000X-0.645000X1.500000X0.645000X-1.500000X0.645000X0*%
%ADD38RoundRect,0.188750X0.362500X1.318750X-0.362500X1.318750X-0.362500X-1.318750X0.362500X-1.318750X0*%
%ADD39R,1.395000X0.540000*%
%ADD40R,2.340000X2.790000*%
%ADD41RoundRect,0.108000X-0.180000X0.135000X-0.180000X-0.135000X0.180000X-0.135000X0.180000X0.135000X0*%
%ADD42R,0.630000X0.900000*%
%ADD43RoundRect,0.108000X-0.135000X-0.180000X0.135000X-0.180000X0.135000X0.180000X-0.135000X0.180000X0*%
%ADD44RoundRect,0.112000X0.140000X0.167000X-0.140000X0.167000X-0.140000X-0.167000X0.140000X-0.167000X0*%
%ADD45RoundRect,0.052500X0.825000X0.217500X-0.825000X0.217500X-0.825000X-0.217500X0.825000X-0.217500X0*%
%ADD46RoundRect,0.195000X0.435000X-0.243750X0.435000X0.243750X-0.435000X0.243750X-0.435000X-0.243750X0*%
%ADD47RoundRect,0.192500X0.617500X-0.325000X0.617500X0.325000X-0.617500X0.325000X-0.617500X-0.325000X0*%
%ADD48RoundRect,0.160000X-0.267500X0.200000X-0.267500X-0.200000X0.267500X-0.200000X0.267500X0.200000X0*%
%ADD49RoundRect,0.052500X-0.825000X-0.217500X0.825000X-0.217500X0.825000X0.217500X-0.825000X0.217500X0*%
%ADD50RoundRect,0.180000X0.225000X0.247500X-0.225000X0.247500X-0.225000X-0.247500X0.225000X-0.247500X0*%
%ADD51RoundRect,0.083750X0.186250X-0.512500X0.186250X0.512500X-0.186250X0.512500X-0.186250X-0.512500X0*%
%ADD52RoundRect,0.198750X0.262500X0.431250X-0.262500X0.431250X-0.262500X-0.431250X0.262500X-0.431250X0*%
%ADD53RoundRect,0.052500X0.217500X-0.825000X0.217500X0.825000X-0.217500X0.825000X-0.217500X-0.825000X0*%
%ADD54RoundRect,0.076250X-0.587500X-0.193750X0.587500X-0.193750X0.587500X0.193750X-0.587500X0.193750X0*%
%ADD55RoundRect,0.180000X-0.360000X0.225000X-0.360000X-0.225000X0.360000X-0.225000X0.360000X0.225000X0*%
%ADD56RoundRect,0.076250X0.587500X0.193750X-0.587500X0.193750X-0.587500X-0.193750X0.587500X-0.193750X0*%
%ADD57R,6.750000X1.980000*%
%ADD58RoundRect,0.188750X-1.318750X0.362500X-1.318750X-0.362500X1.318750X-0.362500X1.318750X0.362500X0*%
%ADD59R,1.350000X0.810000*%
%ADD60R,0.810000X1.350000*%
%ADD61R,0.810000X0.810000*%
G04 APERTURE END LIST*
D10*
%TO.C,Q8*%
X138758621Y-88455000D02*
X139658621Y-88455000D01*
X139658621Y-88455000D02*
X139658621Y-89055000D01*
X139658621Y-89055000D02*
X138758621Y-89055000D01*
X138758621Y-89055000D02*
X138758621Y-88455000D01*
G36*
X138758621Y-88455000D02*
G01*
X139658621Y-88455000D01*
X139658621Y-89055000D01*
X138758621Y-89055000D01*
X138758621Y-88455000D01*
G37*
X138508621Y-89155000D02*
X137908621Y-89155000D01*
X137908621Y-89155000D02*
X137908621Y-90055000D01*
X137908621Y-90055000D02*
X138508621Y-90055000D01*
X138508621Y-90055000D02*
X138508621Y-89155000D01*
G36*
X138508621Y-89155000D02*
G01*
X137908621Y-89155000D01*
X137908621Y-90055000D01*
X138508621Y-90055000D01*
X138508621Y-89155000D01*
G37*
X137658621Y-89155000D02*
X137058621Y-89155000D01*
X137058621Y-89155000D02*
X137058621Y-90055000D01*
X137058621Y-90055000D02*
X137658621Y-90055000D01*
X137658621Y-90055000D02*
X137658621Y-89155000D01*
G36*
X137658621Y-89155000D02*
G01*
X137058621Y-89155000D01*
X137058621Y-90055000D01*
X137658621Y-90055000D01*
X137658621Y-89155000D01*
G37*
X136808621Y-89155000D02*
X136208621Y-89155000D01*
X136208621Y-89155000D02*
X136208621Y-90055000D01*
X136208621Y-90055000D02*
X136808621Y-90055000D01*
X136808621Y-90055000D02*
X136808621Y-89155000D01*
G36*
X136808621Y-89155000D02*
G01*
X136208621Y-89155000D01*
X136208621Y-90055000D01*
X136808621Y-90055000D01*
X136808621Y-89155000D01*
G37*
X135958621Y-89155000D02*
X135358621Y-89155000D01*
X135358621Y-89155000D02*
X135358621Y-90055000D01*
X135358621Y-90055000D02*
X135958621Y-90055000D01*
X135958621Y-90055000D02*
X135958621Y-89155000D01*
G36*
X135958621Y-89155000D02*
G01*
X135358621Y-89155000D01*
X135358621Y-90055000D01*
X135958621Y-90055000D01*
X135958621Y-89155000D01*
G37*
X138758621Y-89755000D02*
X139658621Y-89755000D01*
X139658621Y-89755000D02*
X139658621Y-90355000D01*
X139658621Y-90355000D02*
X138758621Y-90355000D01*
X138758621Y-90355000D02*
X138758621Y-89755000D01*
G36*
X138758621Y-89755000D02*
G01*
X139658621Y-89755000D01*
X139658621Y-90355000D01*
X138758621Y-90355000D01*
X138758621Y-89755000D01*
G37*
X138508621Y-90305000D02*
X137908621Y-90305000D01*
X137908621Y-90305000D02*
X137908621Y-91205000D01*
X137908621Y-91205000D02*
X138508621Y-91205000D01*
X138508621Y-91205000D02*
X138508621Y-90305000D01*
G36*
X138508621Y-90305000D02*
G01*
X137908621Y-90305000D01*
X137908621Y-91205000D01*
X138508621Y-91205000D01*
X138508621Y-90305000D01*
G37*
X137658621Y-90305000D02*
X137058621Y-90305000D01*
X137058621Y-90305000D02*
X137058621Y-91205000D01*
X137058621Y-91205000D02*
X137658621Y-91205000D01*
X137658621Y-91205000D02*
X137658621Y-90305000D01*
G36*
X137658621Y-90305000D02*
G01*
X137058621Y-90305000D01*
X137058621Y-91205000D01*
X137658621Y-91205000D01*
X137658621Y-90305000D01*
G37*
X136808621Y-90305000D02*
X136208621Y-90305000D01*
X136208621Y-90305000D02*
X136208621Y-91205000D01*
X136208621Y-91205000D02*
X136808621Y-91205000D01*
X136808621Y-91205000D02*
X136808621Y-90305000D01*
G36*
X136808621Y-90305000D02*
G01*
X136208621Y-90305000D01*
X136208621Y-91205000D01*
X136808621Y-91205000D01*
X136808621Y-90305000D01*
G37*
X135958621Y-90305000D02*
X135358621Y-90305000D01*
X135358621Y-90305000D02*
X135358621Y-91205000D01*
X135358621Y-91205000D02*
X135958621Y-91205000D01*
X135958621Y-91205000D02*
X135958621Y-90305000D01*
G36*
X135958621Y-90305000D02*
G01*
X135358621Y-90305000D01*
X135358621Y-91205000D01*
X135958621Y-91205000D01*
X135958621Y-90305000D01*
G37*
X138758621Y-91055000D02*
X139658621Y-91055000D01*
X139658621Y-91055000D02*
X139658621Y-91655000D01*
X139658621Y-91655000D02*
X138758621Y-91655000D01*
X138758621Y-91655000D02*
X138758621Y-91055000D01*
G36*
X138758621Y-91055000D02*
G01*
X139658621Y-91055000D01*
X139658621Y-91655000D01*
X138758621Y-91655000D01*
X138758621Y-91055000D01*
G37*
X138508621Y-91405000D02*
X137908621Y-91405000D01*
X137908621Y-91405000D02*
X137908621Y-92305000D01*
X137908621Y-92305000D02*
X138508621Y-92305000D01*
X138508621Y-92305000D02*
X138508621Y-91405000D01*
G36*
X138508621Y-91405000D02*
G01*
X137908621Y-91405000D01*
X137908621Y-92305000D01*
X138508621Y-92305000D01*
X138508621Y-91405000D01*
G37*
X137658621Y-91405000D02*
X137058621Y-91405000D01*
X137058621Y-91405000D02*
X137058621Y-92305000D01*
X137058621Y-92305000D02*
X137658621Y-92305000D01*
X137658621Y-92305000D02*
X137658621Y-91405000D01*
G36*
X137658621Y-91405000D02*
G01*
X137058621Y-91405000D01*
X137058621Y-92305000D01*
X137658621Y-92305000D01*
X137658621Y-91405000D01*
G37*
X136808621Y-91405000D02*
X136208621Y-91405000D01*
X136208621Y-91405000D02*
X136208621Y-92305000D01*
X136208621Y-92305000D02*
X136808621Y-92305000D01*
X136808621Y-92305000D02*
X136808621Y-91405000D01*
G36*
X136808621Y-91405000D02*
G01*
X136208621Y-91405000D01*
X136208621Y-92305000D01*
X136808621Y-92305000D01*
X136808621Y-91405000D01*
G37*
X135958621Y-91405000D02*
X135358621Y-91405000D01*
X135358621Y-91405000D02*
X135358621Y-92305000D01*
X135358621Y-92305000D02*
X135958621Y-92305000D01*
X135958621Y-92305000D02*
X135958621Y-91405000D01*
G36*
X135958621Y-91405000D02*
G01*
X135358621Y-91405000D01*
X135358621Y-92305000D01*
X135958621Y-92305000D01*
X135958621Y-91405000D01*
G37*
X138758621Y-92155000D02*
X139658621Y-92155000D01*
X139658621Y-92155000D02*
X139658621Y-92755000D01*
X139658621Y-92755000D02*
X138758621Y-92755000D01*
X138758621Y-92755000D02*
X138758621Y-92155000D01*
G36*
X138758621Y-92155000D02*
G01*
X139658621Y-92155000D01*
X139658621Y-92755000D01*
X138758621Y-92755000D01*
X138758621Y-92155000D01*
G37*
%TO.C,Q6*%
X60998621Y-89505000D02*
X60098621Y-89505000D01*
X60098621Y-89505000D02*
X60098621Y-88905000D01*
X60098621Y-88905000D02*
X60998621Y-88905000D01*
X60998621Y-88905000D02*
X60998621Y-89505000D01*
G36*
X60998621Y-89505000D02*
G01*
X60098621Y-89505000D01*
X60098621Y-88905000D01*
X60998621Y-88905000D01*
X60998621Y-89505000D01*
G37*
X61248621Y-88805000D02*
X61848621Y-88805000D01*
X61848621Y-88805000D02*
X61848621Y-87905000D01*
X61848621Y-87905000D02*
X61248621Y-87905000D01*
X61248621Y-87905000D02*
X61248621Y-88805000D01*
G36*
X61248621Y-88805000D02*
G01*
X61848621Y-88805000D01*
X61848621Y-87905000D01*
X61248621Y-87905000D01*
X61248621Y-88805000D01*
G37*
X62098621Y-88805000D02*
X62698621Y-88805000D01*
X62698621Y-88805000D02*
X62698621Y-87905000D01*
X62698621Y-87905000D02*
X62098621Y-87905000D01*
X62098621Y-87905000D02*
X62098621Y-88805000D01*
G36*
X62098621Y-88805000D02*
G01*
X62698621Y-88805000D01*
X62698621Y-87905000D01*
X62098621Y-87905000D01*
X62098621Y-88805000D01*
G37*
X62948621Y-88805000D02*
X63548621Y-88805000D01*
X63548621Y-88805000D02*
X63548621Y-87905000D01*
X63548621Y-87905000D02*
X62948621Y-87905000D01*
X62948621Y-87905000D02*
X62948621Y-88805000D01*
G36*
X62948621Y-88805000D02*
G01*
X63548621Y-88805000D01*
X63548621Y-87905000D01*
X62948621Y-87905000D01*
X62948621Y-88805000D01*
G37*
X63798621Y-88805000D02*
X64398621Y-88805000D01*
X64398621Y-88805000D02*
X64398621Y-87905000D01*
X64398621Y-87905000D02*
X63798621Y-87905000D01*
X63798621Y-87905000D02*
X63798621Y-88805000D01*
G36*
X63798621Y-88805000D02*
G01*
X64398621Y-88805000D01*
X64398621Y-87905000D01*
X63798621Y-87905000D01*
X63798621Y-88805000D01*
G37*
X60998621Y-88205000D02*
X60098621Y-88205000D01*
X60098621Y-88205000D02*
X60098621Y-87605000D01*
X60098621Y-87605000D02*
X60998621Y-87605000D01*
X60998621Y-87605000D02*
X60998621Y-88205000D01*
G36*
X60998621Y-88205000D02*
G01*
X60098621Y-88205000D01*
X60098621Y-87605000D01*
X60998621Y-87605000D01*
X60998621Y-88205000D01*
G37*
X61248621Y-87655000D02*
X61848621Y-87655000D01*
X61848621Y-87655000D02*
X61848621Y-86755000D01*
X61848621Y-86755000D02*
X61248621Y-86755000D01*
X61248621Y-86755000D02*
X61248621Y-87655000D01*
G36*
X61248621Y-87655000D02*
G01*
X61848621Y-87655000D01*
X61848621Y-86755000D01*
X61248621Y-86755000D01*
X61248621Y-87655000D01*
G37*
X62098621Y-87655000D02*
X62698621Y-87655000D01*
X62698621Y-87655000D02*
X62698621Y-86755000D01*
X62698621Y-86755000D02*
X62098621Y-86755000D01*
X62098621Y-86755000D02*
X62098621Y-87655000D01*
G36*
X62098621Y-87655000D02*
G01*
X62698621Y-87655000D01*
X62698621Y-86755000D01*
X62098621Y-86755000D01*
X62098621Y-87655000D01*
G37*
X62948621Y-87655000D02*
X63548621Y-87655000D01*
X63548621Y-87655000D02*
X63548621Y-86755000D01*
X63548621Y-86755000D02*
X62948621Y-86755000D01*
X62948621Y-86755000D02*
X62948621Y-87655000D01*
G36*
X62948621Y-87655000D02*
G01*
X63548621Y-87655000D01*
X63548621Y-86755000D01*
X62948621Y-86755000D01*
X62948621Y-87655000D01*
G37*
X63798621Y-87655000D02*
X64398621Y-87655000D01*
X64398621Y-87655000D02*
X64398621Y-86755000D01*
X64398621Y-86755000D02*
X63798621Y-86755000D01*
X63798621Y-86755000D02*
X63798621Y-87655000D01*
G36*
X63798621Y-87655000D02*
G01*
X64398621Y-87655000D01*
X64398621Y-86755000D01*
X63798621Y-86755000D01*
X63798621Y-87655000D01*
G37*
X60998621Y-86905000D02*
X60098621Y-86905000D01*
X60098621Y-86905000D02*
X60098621Y-86305000D01*
X60098621Y-86305000D02*
X60998621Y-86305000D01*
X60998621Y-86305000D02*
X60998621Y-86905000D01*
G36*
X60998621Y-86905000D02*
G01*
X60098621Y-86905000D01*
X60098621Y-86305000D01*
X60998621Y-86305000D01*
X60998621Y-86905000D01*
G37*
X61248621Y-86555000D02*
X61848621Y-86555000D01*
X61848621Y-86555000D02*
X61848621Y-85655000D01*
X61848621Y-85655000D02*
X61248621Y-85655000D01*
X61248621Y-85655000D02*
X61248621Y-86555000D01*
G36*
X61248621Y-86555000D02*
G01*
X61848621Y-86555000D01*
X61848621Y-85655000D01*
X61248621Y-85655000D01*
X61248621Y-86555000D01*
G37*
X62098621Y-86555000D02*
X62698621Y-86555000D01*
X62698621Y-86555000D02*
X62698621Y-85655000D01*
X62698621Y-85655000D02*
X62098621Y-85655000D01*
X62098621Y-85655000D02*
X62098621Y-86555000D01*
G36*
X62098621Y-86555000D02*
G01*
X62698621Y-86555000D01*
X62698621Y-85655000D01*
X62098621Y-85655000D01*
X62098621Y-86555000D01*
G37*
X62948621Y-86555000D02*
X63548621Y-86555000D01*
X63548621Y-86555000D02*
X63548621Y-85655000D01*
X63548621Y-85655000D02*
X62948621Y-85655000D01*
X62948621Y-85655000D02*
X62948621Y-86555000D01*
G36*
X62948621Y-86555000D02*
G01*
X63548621Y-86555000D01*
X63548621Y-85655000D01*
X62948621Y-85655000D01*
X62948621Y-86555000D01*
G37*
X63798621Y-86555000D02*
X64398621Y-86555000D01*
X64398621Y-86555000D02*
X64398621Y-85655000D01*
X64398621Y-85655000D02*
X63798621Y-85655000D01*
X63798621Y-85655000D02*
X63798621Y-86555000D01*
G36*
X63798621Y-86555000D02*
G01*
X64398621Y-86555000D01*
X64398621Y-85655000D01*
X63798621Y-85655000D01*
X63798621Y-86555000D01*
G37*
X60998621Y-85805000D02*
X60098621Y-85805000D01*
X60098621Y-85805000D02*
X60098621Y-85205000D01*
X60098621Y-85205000D02*
X60998621Y-85205000D01*
X60998621Y-85205000D02*
X60998621Y-85805000D01*
G36*
X60998621Y-85805000D02*
G01*
X60098621Y-85805000D01*
X60098621Y-85205000D01*
X60998621Y-85205000D01*
X60998621Y-85805000D01*
G37*
%TO.C,Q1*%
X65818621Y-113905000D02*
X66718621Y-113905000D01*
X66718621Y-113905000D02*
X66718621Y-114505000D01*
X66718621Y-114505000D02*
X65818621Y-114505000D01*
X65818621Y-114505000D02*
X65818621Y-113905000D01*
G36*
X65818621Y-113905000D02*
G01*
X66718621Y-113905000D01*
X66718621Y-114505000D01*
X65818621Y-114505000D01*
X65818621Y-113905000D01*
G37*
X65568621Y-114605000D02*
X64968621Y-114605000D01*
X64968621Y-114605000D02*
X64968621Y-115505000D01*
X64968621Y-115505000D02*
X65568621Y-115505000D01*
X65568621Y-115505000D02*
X65568621Y-114605000D01*
G36*
X65568621Y-114605000D02*
G01*
X64968621Y-114605000D01*
X64968621Y-115505000D01*
X65568621Y-115505000D01*
X65568621Y-114605000D01*
G37*
X64718621Y-114605000D02*
X64118621Y-114605000D01*
X64118621Y-114605000D02*
X64118621Y-115505000D01*
X64118621Y-115505000D02*
X64718621Y-115505000D01*
X64718621Y-115505000D02*
X64718621Y-114605000D01*
G36*
X64718621Y-114605000D02*
G01*
X64118621Y-114605000D01*
X64118621Y-115505000D01*
X64718621Y-115505000D01*
X64718621Y-114605000D01*
G37*
X63868621Y-114605000D02*
X63268621Y-114605000D01*
X63268621Y-114605000D02*
X63268621Y-115505000D01*
X63268621Y-115505000D02*
X63868621Y-115505000D01*
X63868621Y-115505000D02*
X63868621Y-114605000D01*
G36*
X63868621Y-114605000D02*
G01*
X63268621Y-114605000D01*
X63268621Y-115505000D01*
X63868621Y-115505000D01*
X63868621Y-114605000D01*
G37*
X63018621Y-114605000D02*
X62418621Y-114605000D01*
X62418621Y-114605000D02*
X62418621Y-115505000D01*
X62418621Y-115505000D02*
X63018621Y-115505000D01*
X63018621Y-115505000D02*
X63018621Y-114605000D01*
G36*
X63018621Y-114605000D02*
G01*
X62418621Y-114605000D01*
X62418621Y-115505000D01*
X63018621Y-115505000D01*
X63018621Y-114605000D01*
G37*
X65818621Y-115205000D02*
X66718621Y-115205000D01*
X66718621Y-115205000D02*
X66718621Y-115805000D01*
X66718621Y-115805000D02*
X65818621Y-115805000D01*
X65818621Y-115805000D02*
X65818621Y-115205000D01*
G36*
X65818621Y-115205000D02*
G01*
X66718621Y-115205000D01*
X66718621Y-115805000D01*
X65818621Y-115805000D01*
X65818621Y-115205000D01*
G37*
X65568621Y-115755000D02*
X64968621Y-115755000D01*
X64968621Y-115755000D02*
X64968621Y-116655000D01*
X64968621Y-116655000D02*
X65568621Y-116655000D01*
X65568621Y-116655000D02*
X65568621Y-115755000D01*
G36*
X65568621Y-115755000D02*
G01*
X64968621Y-115755000D01*
X64968621Y-116655000D01*
X65568621Y-116655000D01*
X65568621Y-115755000D01*
G37*
X64718621Y-115755000D02*
X64118621Y-115755000D01*
X64118621Y-115755000D02*
X64118621Y-116655000D01*
X64118621Y-116655000D02*
X64718621Y-116655000D01*
X64718621Y-116655000D02*
X64718621Y-115755000D01*
G36*
X64718621Y-115755000D02*
G01*
X64118621Y-115755000D01*
X64118621Y-116655000D01*
X64718621Y-116655000D01*
X64718621Y-115755000D01*
G37*
X63868621Y-115755000D02*
X63268621Y-115755000D01*
X63268621Y-115755000D02*
X63268621Y-116655000D01*
X63268621Y-116655000D02*
X63868621Y-116655000D01*
X63868621Y-116655000D02*
X63868621Y-115755000D01*
G36*
X63868621Y-115755000D02*
G01*
X63268621Y-115755000D01*
X63268621Y-116655000D01*
X63868621Y-116655000D01*
X63868621Y-115755000D01*
G37*
X63018621Y-115755000D02*
X62418621Y-115755000D01*
X62418621Y-115755000D02*
X62418621Y-116655000D01*
X62418621Y-116655000D02*
X63018621Y-116655000D01*
X63018621Y-116655000D02*
X63018621Y-115755000D01*
G36*
X63018621Y-115755000D02*
G01*
X62418621Y-115755000D01*
X62418621Y-116655000D01*
X63018621Y-116655000D01*
X63018621Y-115755000D01*
G37*
X65818621Y-116505000D02*
X66718621Y-116505000D01*
X66718621Y-116505000D02*
X66718621Y-117105000D01*
X66718621Y-117105000D02*
X65818621Y-117105000D01*
X65818621Y-117105000D02*
X65818621Y-116505000D01*
G36*
X65818621Y-116505000D02*
G01*
X66718621Y-116505000D01*
X66718621Y-117105000D01*
X65818621Y-117105000D01*
X65818621Y-116505000D01*
G37*
X65568621Y-116855000D02*
X64968621Y-116855000D01*
X64968621Y-116855000D02*
X64968621Y-117755000D01*
X64968621Y-117755000D02*
X65568621Y-117755000D01*
X65568621Y-117755000D02*
X65568621Y-116855000D01*
G36*
X65568621Y-116855000D02*
G01*
X64968621Y-116855000D01*
X64968621Y-117755000D01*
X65568621Y-117755000D01*
X65568621Y-116855000D01*
G37*
X64718621Y-116855000D02*
X64118621Y-116855000D01*
X64118621Y-116855000D02*
X64118621Y-117755000D01*
X64118621Y-117755000D02*
X64718621Y-117755000D01*
X64718621Y-117755000D02*
X64718621Y-116855000D01*
G36*
X64718621Y-116855000D02*
G01*
X64118621Y-116855000D01*
X64118621Y-117755000D01*
X64718621Y-117755000D01*
X64718621Y-116855000D01*
G37*
X63868621Y-116855000D02*
X63268621Y-116855000D01*
X63268621Y-116855000D02*
X63268621Y-117755000D01*
X63268621Y-117755000D02*
X63868621Y-117755000D01*
X63868621Y-117755000D02*
X63868621Y-116855000D01*
G36*
X63868621Y-116855000D02*
G01*
X63268621Y-116855000D01*
X63268621Y-117755000D01*
X63868621Y-117755000D01*
X63868621Y-116855000D01*
G37*
X63018621Y-116855000D02*
X62418621Y-116855000D01*
X62418621Y-116855000D02*
X62418621Y-117755000D01*
X62418621Y-117755000D02*
X63018621Y-117755000D01*
X63018621Y-117755000D02*
X63018621Y-116855000D01*
G36*
X63018621Y-116855000D02*
G01*
X62418621Y-116855000D01*
X62418621Y-117755000D01*
X63018621Y-117755000D01*
X63018621Y-116855000D01*
G37*
X65818621Y-117605000D02*
X66718621Y-117605000D01*
X66718621Y-117605000D02*
X66718621Y-118205000D01*
X66718621Y-118205000D02*
X65818621Y-118205000D01*
X65818621Y-118205000D02*
X65818621Y-117605000D01*
G36*
X65818621Y-117605000D02*
G01*
X66718621Y-117605000D01*
X66718621Y-118205000D01*
X65818621Y-118205000D01*
X65818621Y-117605000D01*
G37*
%TO.C,Q5*%
X65818621Y-90405000D02*
X66718621Y-90405000D01*
X66718621Y-90405000D02*
X66718621Y-91005000D01*
X66718621Y-91005000D02*
X65818621Y-91005000D01*
X65818621Y-91005000D02*
X65818621Y-90405000D01*
G36*
X65818621Y-90405000D02*
G01*
X66718621Y-90405000D01*
X66718621Y-91005000D01*
X65818621Y-91005000D01*
X65818621Y-90405000D01*
G37*
X65568621Y-91105000D02*
X64968621Y-91105000D01*
X64968621Y-91105000D02*
X64968621Y-92005000D01*
X64968621Y-92005000D02*
X65568621Y-92005000D01*
X65568621Y-92005000D02*
X65568621Y-91105000D01*
G36*
X65568621Y-91105000D02*
G01*
X64968621Y-91105000D01*
X64968621Y-92005000D01*
X65568621Y-92005000D01*
X65568621Y-91105000D01*
G37*
X64718621Y-91105000D02*
X64118621Y-91105000D01*
X64118621Y-91105000D02*
X64118621Y-92005000D01*
X64118621Y-92005000D02*
X64718621Y-92005000D01*
X64718621Y-92005000D02*
X64718621Y-91105000D01*
G36*
X64718621Y-91105000D02*
G01*
X64118621Y-91105000D01*
X64118621Y-92005000D01*
X64718621Y-92005000D01*
X64718621Y-91105000D01*
G37*
X63868621Y-91105000D02*
X63268621Y-91105000D01*
X63268621Y-91105000D02*
X63268621Y-92005000D01*
X63268621Y-92005000D02*
X63868621Y-92005000D01*
X63868621Y-92005000D02*
X63868621Y-91105000D01*
G36*
X63868621Y-91105000D02*
G01*
X63268621Y-91105000D01*
X63268621Y-92005000D01*
X63868621Y-92005000D01*
X63868621Y-91105000D01*
G37*
X63018621Y-91105000D02*
X62418621Y-91105000D01*
X62418621Y-91105000D02*
X62418621Y-92005000D01*
X62418621Y-92005000D02*
X63018621Y-92005000D01*
X63018621Y-92005000D02*
X63018621Y-91105000D01*
G36*
X63018621Y-91105000D02*
G01*
X62418621Y-91105000D01*
X62418621Y-92005000D01*
X63018621Y-92005000D01*
X63018621Y-91105000D01*
G37*
X65818621Y-91705000D02*
X66718621Y-91705000D01*
X66718621Y-91705000D02*
X66718621Y-92305000D01*
X66718621Y-92305000D02*
X65818621Y-92305000D01*
X65818621Y-92305000D02*
X65818621Y-91705000D01*
G36*
X65818621Y-91705000D02*
G01*
X66718621Y-91705000D01*
X66718621Y-92305000D01*
X65818621Y-92305000D01*
X65818621Y-91705000D01*
G37*
X65568621Y-92255000D02*
X64968621Y-92255000D01*
X64968621Y-92255000D02*
X64968621Y-93155000D01*
X64968621Y-93155000D02*
X65568621Y-93155000D01*
X65568621Y-93155000D02*
X65568621Y-92255000D01*
G36*
X65568621Y-92255000D02*
G01*
X64968621Y-92255000D01*
X64968621Y-93155000D01*
X65568621Y-93155000D01*
X65568621Y-92255000D01*
G37*
X64718621Y-92255000D02*
X64118621Y-92255000D01*
X64118621Y-92255000D02*
X64118621Y-93155000D01*
X64118621Y-93155000D02*
X64718621Y-93155000D01*
X64718621Y-93155000D02*
X64718621Y-92255000D01*
G36*
X64718621Y-92255000D02*
G01*
X64118621Y-92255000D01*
X64118621Y-93155000D01*
X64718621Y-93155000D01*
X64718621Y-92255000D01*
G37*
X63868621Y-92255000D02*
X63268621Y-92255000D01*
X63268621Y-92255000D02*
X63268621Y-93155000D01*
X63268621Y-93155000D02*
X63868621Y-93155000D01*
X63868621Y-93155000D02*
X63868621Y-92255000D01*
G36*
X63868621Y-92255000D02*
G01*
X63268621Y-92255000D01*
X63268621Y-93155000D01*
X63868621Y-93155000D01*
X63868621Y-92255000D01*
G37*
X63018621Y-92255000D02*
X62418621Y-92255000D01*
X62418621Y-92255000D02*
X62418621Y-93155000D01*
X62418621Y-93155000D02*
X63018621Y-93155000D01*
X63018621Y-93155000D02*
X63018621Y-92255000D01*
G36*
X63018621Y-92255000D02*
G01*
X62418621Y-92255000D01*
X62418621Y-93155000D01*
X63018621Y-93155000D01*
X63018621Y-92255000D01*
G37*
X65818621Y-93005000D02*
X66718621Y-93005000D01*
X66718621Y-93005000D02*
X66718621Y-93605000D01*
X66718621Y-93605000D02*
X65818621Y-93605000D01*
X65818621Y-93605000D02*
X65818621Y-93005000D01*
G36*
X65818621Y-93005000D02*
G01*
X66718621Y-93005000D01*
X66718621Y-93605000D01*
X65818621Y-93605000D01*
X65818621Y-93005000D01*
G37*
X65568621Y-93355000D02*
X64968621Y-93355000D01*
X64968621Y-93355000D02*
X64968621Y-94255000D01*
X64968621Y-94255000D02*
X65568621Y-94255000D01*
X65568621Y-94255000D02*
X65568621Y-93355000D01*
G36*
X65568621Y-93355000D02*
G01*
X64968621Y-93355000D01*
X64968621Y-94255000D01*
X65568621Y-94255000D01*
X65568621Y-93355000D01*
G37*
X64718621Y-93355000D02*
X64118621Y-93355000D01*
X64118621Y-93355000D02*
X64118621Y-94255000D01*
X64118621Y-94255000D02*
X64718621Y-94255000D01*
X64718621Y-94255000D02*
X64718621Y-93355000D01*
G36*
X64718621Y-93355000D02*
G01*
X64118621Y-93355000D01*
X64118621Y-94255000D01*
X64718621Y-94255000D01*
X64718621Y-93355000D01*
G37*
X63868621Y-93355000D02*
X63268621Y-93355000D01*
X63268621Y-93355000D02*
X63268621Y-94255000D01*
X63268621Y-94255000D02*
X63868621Y-94255000D01*
X63868621Y-94255000D02*
X63868621Y-93355000D01*
G36*
X63868621Y-93355000D02*
G01*
X63268621Y-93355000D01*
X63268621Y-94255000D01*
X63868621Y-94255000D01*
X63868621Y-93355000D01*
G37*
X63018621Y-93355000D02*
X62418621Y-93355000D01*
X62418621Y-93355000D02*
X62418621Y-94255000D01*
X62418621Y-94255000D02*
X63018621Y-94255000D01*
X63018621Y-94255000D02*
X63018621Y-93355000D01*
G36*
X63018621Y-93355000D02*
G01*
X62418621Y-93355000D01*
X62418621Y-94255000D01*
X63018621Y-94255000D01*
X63018621Y-93355000D01*
G37*
X65818621Y-94105000D02*
X66718621Y-94105000D01*
X66718621Y-94105000D02*
X66718621Y-94705000D01*
X66718621Y-94705000D02*
X65818621Y-94705000D01*
X65818621Y-94705000D02*
X65818621Y-94105000D01*
G36*
X65818621Y-94105000D02*
G01*
X66718621Y-94105000D01*
X66718621Y-94705000D01*
X65818621Y-94705000D01*
X65818621Y-94105000D01*
G37*
%TO.C,Q2*%
X60998621Y-113005000D02*
X60098621Y-113005000D01*
X60098621Y-113005000D02*
X60098621Y-112405000D01*
X60098621Y-112405000D02*
X60998621Y-112405000D01*
X60998621Y-112405000D02*
X60998621Y-113005000D01*
G36*
X60998621Y-113005000D02*
G01*
X60098621Y-113005000D01*
X60098621Y-112405000D01*
X60998621Y-112405000D01*
X60998621Y-113005000D01*
G37*
X61248621Y-112305000D02*
X61848621Y-112305000D01*
X61848621Y-112305000D02*
X61848621Y-111405000D01*
X61848621Y-111405000D02*
X61248621Y-111405000D01*
X61248621Y-111405000D02*
X61248621Y-112305000D01*
G36*
X61248621Y-112305000D02*
G01*
X61848621Y-112305000D01*
X61848621Y-111405000D01*
X61248621Y-111405000D01*
X61248621Y-112305000D01*
G37*
X62098621Y-112305000D02*
X62698621Y-112305000D01*
X62698621Y-112305000D02*
X62698621Y-111405000D01*
X62698621Y-111405000D02*
X62098621Y-111405000D01*
X62098621Y-111405000D02*
X62098621Y-112305000D01*
G36*
X62098621Y-112305000D02*
G01*
X62698621Y-112305000D01*
X62698621Y-111405000D01*
X62098621Y-111405000D01*
X62098621Y-112305000D01*
G37*
X62948621Y-112305000D02*
X63548621Y-112305000D01*
X63548621Y-112305000D02*
X63548621Y-111405000D01*
X63548621Y-111405000D02*
X62948621Y-111405000D01*
X62948621Y-111405000D02*
X62948621Y-112305000D01*
G36*
X62948621Y-112305000D02*
G01*
X63548621Y-112305000D01*
X63548621Y-111405000D01*
X62948621Y-111405000D01*
X62948621Y-112305000D01*
G37*
X63798621Y-112305000D02*
X64398621Y-112305000D01*
X64398621Y-112305000D02*
X64398621Y-111405000D01*
X64398621Y-111405000D02*
X63798621Y-111405000D01*
X63798621Y-111405000D02*
X63798621Y-112305000D01*
G36*
X63798621Y-112305000D02*
G01*
X64398621Y-112305000D01*
X64398621Y-111405000D01*
X63798621Y-111405000D01*
X63798621Y-112305000D01*
G37*
X60998621Y-111705000D02*
X60098621Y-111705000D01*
X60098621Y-111705000D02*
X60098621Y-111105000D01*
X60098621Y-111105000D02*
X60998621Y-111105000D01*
X60998621Y-111105000D02*
X60998621Y-111705000D01*
G36*
X60998621Y-111705000D02*
G01*
X60098621Y-111705000D01*
X60098621Y-111105000D01*
X60998621Y-111105000D01*
X60998621Y-111705000D01*
G37*
X61248621Y-111155000D02*
X61848621Y-111155000D01*
X61848621Y-111155000D02*
X61848621Y-110255000D01*
X61848621Y-110255000D02*
X61248621Y-110255000D01*
X61248621Y-110255000D02*
X61248621Y-111155000D01*
G36*
X61248621Y-111155000D02*
G01*
X61848621Y-111155000D01*
X61848621Y-110255000D01*
X61248621Y-110255000D01*
X61248621Y-111155000D01*
G37*
X62098621Y-111155000D02*
X62698621Y-111155000D01*
X62698621Y-111155000D02*
X62698621Y-110255000D01*
X62698621Y-110255000D02*
X62098621Y-110255000D01*
X62098621Y-110255000D02*
X62098621Y-111155000D01*
G36*
X62098621Y-111155000D02*
G01*
X62698621Y-111155000D01*
X62698621Y-110255000D01*
X62098621Y-110255000D01*
X62098621Y-111155000D01*
G37*
X62948621Y-111155000D02*
X63548621Y-111155000D01*
X63548621Y-111155000D02*
X63548621Y-110255000D01*
X63548621Y-110255000D02*
X62948621Y-110255000D01*
X62948621Y-110255000D02*
X62948621Y-111155000D01*
G36*
X62948621Y-111155000D02*
G01*
X63548621Y-111155000D01*
X63548621Y-110255000D01*
X62948621Y-110255000D01*
X62948621Y-111155000D01*
G37*
X63798621Y-111155000D02*
X64398621Y-111155000D01*
X64398621Y-111155000D02*
X64398621Y-110255000D01*
X64398621Y-110255000D02*
X63798621Y-110255000D01*
X63798621Y-110255000D02*
X63798621Y-111155000D01*
G36*
X63798621Y-111155000D02*
G01*
X64398621Y-111155000D01*
X64398621Y-110255000D01*
X63798621Y-110255000D01*
X63798621Y-111155000D01*
G37*
X60998621Y-110405000D02*
X60098621Y-110405000D01*
X60098621Y-110405000D02*
X60098621Y-109805000D01*
X60098621Y-109805000D02*
X60998621Y-109805000D01*
X60998621Y-109805000D02*
X60998621Y-110405000D01*
G36*
X60998621Y-110405000D02*
G01*
X60098621Y-110405000D01*
X60098621Y-109805000D01*
X60998621Y-109805000D01*
X60998621Y-110405000D01*
G37*
X61248621Y-110055000D02*
X61848621Y-110055000D01*
X61848621Y-110055000D02*
X61848621Y-109155000D01*
X61848621Y-109155000D02*
X61248621Y-109155000D01*
X61248621Y-109155000D02*
X61248621Y-110055000D01*
G36*
X61248621Y-110055000D02*
G01*
X61848621Y-110055000D01*
X61848621Y-109155000D01*
X61248621Y-109155000D01*
X61248621Y-110055000D01*
G37*
X62098621Y-110055000D02*
X62698621Y-110055000D01*
X62698621Y-110055000D02*
X62698621Y-109155000D01*
X62698621Y-109155000D02*
X62098621Y-109155000D01*
X62098621Y-109155000D02*
X62098621Y-110055000D01*
G36*
X62098621Y-110055000D02*
G01*
X62698621Y-110055000D01*
X62698621Y-109155000D01*
X62098621Y-109155000D01*
X62098621Y-110055000D01*
G37*
X62948621Y-110055000D02*
X63548621Y-110055000D01*
X63548621Y-110055000D02*
X63548621Y-109155000D01*
X63548621Y-109155000D02*
X62948621Y-109155000D01*
X62948621Y-109155000D02*
X62948621Y-110055000D01*
G36*
X62948621Y-110055000D02*
G01*
X63548621Y-110055000D01*
X63548621Y-109155000D01*
X62948621Y-109155000D01*
X62948621Y-110055000D01*
G37*
X63798621Y-110055000D02*
X64398621Y-110055000D01*
X64398621Y-110055000D02*
X64398621Y-109155000D01*
X64398621Y-109155000D02*
X63798621Y-109155000D01*
X63798621Y-109155000D02*
X63798621Y-110055000D01*
G36*
X63798621Y-110055000D02*
G01*
X64398621Y-110055000D01*
X64398621Y-109155000D01*
X63798621Y-109155000D01*
X63798621Y-110055000D01*
G37*
X60998621Y-109305000D02*
X60098621Y-109305000D01*
X60098621Y-109305000D02*
X60098621Y-108705000D01*
X60098621Y-108705000D02*
X60998621Y-108705000D01*
X60998621Y-108705000D02*
X60998621Y-109305000D01*
G36*
X60998621Y-109305000D02*
G01*
X60098621Y-109305000D01*
X60098621Y-108705000D01*
X60998621Y-108705000D01*
X60998621Y-109305000D01*
G37*
%TO.C,Q7*%
X133888621Y-87555000D02*
X132988621Y-87555000D01*
X132988621Y-87555000D02*
X132988621Y-86955000D01*
X132988621Y-86955000D02*
X133888621Y-86955000D01*
X133888621Y-86955000D02*
X133888621Y-87555000D01*
G36*
X133888621Y-87555000D02*
G01*
X132988621Y-87555000D01*
X132988621Y-86955000D01*
X133888621Y-86955000D01*
X133888621Y-87555000D01*
G37*
X134138621Y-86855000D02*
X134738621Y-86855000D01*
X134738621Y-86855000D02*
X134738621Y-85955000D01*
X134738621Y-85955000D02*
X134138621Y-85955000D01*
X134138621Y-85955000D02*
X134138621Y-86855000D01*
G36*
X134138621Y-86855000D02*
G01*
X134738621Y-86855000D01*
X134738621Y-85955000D01*
X134138621Y-85955000D01*
X134138621Y-86855000D01*
G37*
X134988621Y-86855000D02*
X135588621Y-86855000D01*
X135588621Y-86855000D02*
X135588621Y-85955000D01*
X135588621Y-85955000D02*
X134988621Y-85955000D01*
X134988621Y-85955000D02*
X134988621Y-86855000D01*
G36*
X134988621Y-86855000D02*
G01*
X135588621Y-86855000D01*
X135588621Y-85955000D01*
X134988621Y-85955000D01*
X134988621Y-86855000D01*
G37*
X135838621Y-86855000D02*
X136438621Y-86855000D01*
X136438621Y-86855000D02*
X136438621Y-85955000D01*
X136438621Y-85955000D02*
X135838621Y-85955000D01*
X135838621Y-85955000D02*
X135838621Y-86855000D01*
G36*
X135838621Y-86855000D02*
G01*
X136438621Y-86855000D01*
X136438621Y-85955000D01*
X135838621Y-85955000D01*
X135838621Y-86855000D01*
G37*
X136688621Y-86855000D02*
X137288621Y-86855000D01*
X137288621Y-86855000D02*
X137288621Y-85955000D01*
X137288621Y-85955000D02*
X136688621Y-85955000D01*
X136688621Y-85955000D02*
X136688621Y-86855000D01*
G36*
X136688621Y-86855000D02*
G01*
X137288621Y-86855000D01*
X137288621Y-85955000D01*
X136688621Y-85955000D01*
X136688621Y-86855000D01*
G37*
X133888621Y-86255000D02*
X132988621Y-86255000D01*
X132988621Y-86255000D02*
X132988621Y-85655000D01*
X132988621Y-85655000D02*
X133888621Y-85655000D01*
X133888621Y-85655000D02*
X133888621Y-86255000D01*
G36*
X133888621Y-86255000D02*
G01*
X132988621Y-86255000D01*
X132988621Y-85655000D01*
X133888621Y-85655000D01*
X133888621Y-86255000D01*
G37*
X134138621Y-85705000D02*
X134738621Y-85705000D01*
X134738621Y-85705000D02*
X134738621Y-84805000D01*
X134738621Y-84805000D02*
X134138621Y-84805000D01*
X134138621Y-84805000D02*
X134138621Y-85705000D01*
G36*
X134138621Y-85705000D02*
G01*
X134738621Y-85705000D01*
X134738621Y-84805000D01*
X134138621Y-84805000D01*
X134138621Y-85705000D01*
G37*
X134988621Y-85705000D02*
X135588621Y-85705000D01*
X135588621Y-85705000D02*
X135588621Y-84805000D01*
X135588621Y-84805000D02*
X134988621Y-84805000D01*
X134988621Y-84805000D02*
X134988621Y-85705000D01*
G36*
X134988621Y-85705000D02*
G01*
X135588621Y-85705000D01*
X135588621Y-84805000D01*
X134988621Y-84805000D01*
X134988621Y-85705000D01*
G37*
X135838621Y-85705000D02*
X136438621Y-85705000D01*
X136438621Y-85705000D02*
X136438621Y-84805000D01*
X136438621Y-84805000D02*
X135838621Y-84805000D01*
X135838621Y-84805000D02*
X135838621Y-85705000D01*
G36*
X135838621Y-85705000D02*
G01*
X136438621Y-85705000D01*
X136438621Y-84805000D01*
X135838621Y-84805000D01*
X135838621Y-85705000D01*
G37*
X136688621Y-85705000D02*
X137288621Y-85705000D01*
X137288621Y-85705000D02*
X137288621Y-84805000D01*
X137288621Y-84805000D02*
X136688621Y-84805000D01*
X136688621Y-84805000D02*
X136688621Y-85705000D01*
G36*
X136688621Y-85705000D02*
G01*
X137288621Y-85705000D01*
X137288621Y-84805000D01*
X136688621Y-84805000D01*
X136688621Y-85705000D01*
G37*
X133888621Y-84955000D02*
X132988621Y-84955000D01*
X132988621Y-84955000D02*
X132988621Y-84355000D01*
X132988621Y-84355000D02*
X133888621Y-84355000D01*
X133888621Y-84355000D02*
X133888621Y-84955000D01*
G36*
X133888621Y-84955000D02*
G01*
X132988621Y-84955000D01*
X132988621Y-84355000D01*
X133888621Y-84355000D01*
X133888621Y-84955000D01*
G37*
X134138621Y-84605000D02*
X134738621Y-84605000D01*
X134738621Y-84605000D02*
X134738621Y-83705000D01*
X134738621Y-83705000D02*
X134138621Y-83705000D01*
X134138621Y-83705000D02*
X134138621Y-84605000D01*
G36*
X134138621Y-84605000D02*
G01*
X134738621Y-84605000D01*
X134738621Y-83705000D01*
X134138621Y-83705000D01*
X134138621Y-84605000D01*
G37*
X134988621Y-84605000D02*
X135588621Y-84605000D01*
X135588621Y-84605000D02*
X135588621Y-83705000D01*
X135588621Y-83705000D02*
X134988621Y-83705000D01*
X134988621Y-83705000D02*
X134988621Y-84605000D01*
G36*
X134988621Y-84605000D02*
G01*
X135588621Y-84605000D01*
X135588621Y-83705000D01*
X134988621Y-83705000D01*
X134988621Y-84605000D01*
G37*
X135838621Y-84605000D02*
X136438621Y-84605000D01*
X136438621Y-84605000D02*
X136438621Y-83705000D01*
X136438621Y-83705000D02*
X135838621Y-83705000D01*
X135838621Y-83705000D02*
X135838621Y-84605000D01*
G36*
X135838621Y-84605000D02*
G01*
X136438621Y-84605000D01*
X136438621Y-83705000D01*
X135838621Y-83705000D01*
X135838621Y-84605000D01*
G37*
X136688621Y-84605000D02*
X137288621Y-84605000D01*
X137288621Y-84605000D02*
X137288621Y-83705000D01*
X137288621Y-83705000D02*
X136688621Y-83705000D01*
X136688621Y-83705000D02*
X136688621Y-84605000D01*
G36*
X136688621Y-84605000D02*
G01*
X137288621Y-84605000D01*
X137288621Y-83705000D01*
X136688621Y-83705000D01*
X136688621Y-84605000D01*
G37*
X133888621Y-83855000D02*
X132988621Y-83855000D01*
X132988621Y-83855000D02*
X132988621Y-83255000D01*
X132988621Y-83255000D02*
X133888621Y-83255000D01*
X133888621Y-83255000D02*
X133888621Y-83855000D01*
G36*
X133888621Y-83855000D02*
G01*
X132988621Y-83855000D01*
X132988621Y-83255000D01*
X133888621Y-83255000D01*
X133888621Y-83855000D01*
G37*
%TO.C,Q3*%
X65818621Y-102105000D02*
X66718621Y-102105000D01*
X66718621Y-102105000D02*
X66718621Y-102705000D01*
X66718621Y-102705000D02*
X65818621Y-102705000D01*
X65818621Y-102705000D02*
X65818621Y-102105000D01*
G36*
X65818621Y-102105000D02*
G01*
X66718621Y-102105000D01*
X66718621Y-102705000D01*
X65818621Y-102705000D01*
X65818621Y-102105000D01*
G37*
X65568621Y-102805000D02*
X64968621Y-102805000D01*
X64968621Y-102805000D02*
X64968621Y-103705000D01*
X64968621Y-103705000D02*
X65568621Y-103705000D01*
X65568621Y-103705000D02*
X65568621Y-102805000D01*
G36*
X65568621Y-102805000D02*
G01*
X64968621Y-102805000D01*
X64968621Y-103705000D01*
X65568621Y-103705000D01*
X65568621Y-102805000D01*
G37*
X64718621Y-102805000D02*
X64118621Y-102805000D01*
X64118621Y-102805000D02*
X64118621Y-103705000D01*
X64118621Y-103705000D02*
X64718621Y-103705000D01*
X64718621Y-103705000D02*
X64718621Y-102805000D01*
G36*
X64718621Y-102805000D02*
G01*
X64118621Y-102805000D01*
X64118621Y-103705000D01*
X64718621Y-103705000D01*
X64718621Y-102805000D01*
G37*
X63868621Y-102805000D02*
X63268621Y-102805000D01*
X63268621Y-102805000D02*
X63268621Y-103705000D01*
X63268621Y-103705000D02*
X63868621Y-103705000D01*
X63868621Y-103705000D02*
X63868621Y-102805000D01*
G36*
X63868621Y-102805000D02*
G01*
X63268621Y-102805000D01*
X63268621Y-103705000D01*
X63868621Y-103705000D01*
X63868621Y-102805000D01*
G37*
X63018621Y-102805000D02*
X62418621Y-102805000D01*
X62418621Y-102805000D02*
X62418621Y-103705000D01*
X62418621Y-103705000D02*
X63018621Y-103705000D01*
X63018621Y-103705000D02*
X63018621Y-102805000D01*
G36*
X63018621Y-102805000D02*
G01*
X62418621Y-102805000D01*
X62418621Y-103705000D01*
X63018621Y-103705000D01*
X63018621Y-102805000D01*
G37*
X65818621Y-103405000D02*
X66718621Y-103405000D01*
X66718621Y-103405000D02*
X66718621Y-104005000D01*
X66718621Y-104005000D02*
X65818621Y-104005000D01*
X65818621Y-104005000D02*
X65818621Y-103405000D01*
G36*
X65818621Y-103405000D02*
G01*
X66718621Y-103405000D01*
X66718621Y-104005000D01*
X65818621Y-104005000D01*
X65818621Y-103405000D01*
G37*
X65568621Y-103955000D02*
X64968621Y-103955000D01*
X64968621Y-103955000D02*
X64968621Y-104855000D01*
X64968621Y-104855000D02*
X65568621Y-104855000D01*
X65568621Y-104855000D02*
X65568621Y-103955000D01*
G36*
X65568621Y-103955000D02*
G01*
X64968621Y-103955000D01*
X64968621Y-104855000D01*
X65568621Y-104855000D01*
X65568621Y-103955000D01*
G37*
X64718621Y-103955000D02*
X64118621Y-103955000D01*
X64118621Y-103955000D02*
X64118621Y-104855000D01*
X64118621Y-104855000D02*
X64718621Y-104855000D01*
X64718621Y-104855000D02*
X64718621Y-103955000D01*
G36*
X64718621Y-103955000D02*
G01*
X64118621Y-103955000D01*
X64118621Y-104855000D01*
X64718621Y-104855000D01*
X64718621Y-103955000D01*
G37*
X63868621Y-103955000D02*
X63268621Y-103955000D01*
X63268621Y-103955000D02*
X63268621Y-104855000D01*
X63268621Y-104855000D02*
X63868621Y-104855000D01*
X63868621Y-104855000D02*
X63868621Y-103955000D01*
G36*
X63868621Y-103955000D02*
G01*
X63268621Y-103955000D01*
X63268621Y-104855000D01*
X63868621Y-104855000D01*
X63868621Y-103955000D01*
G37*
X63018621Y-103955000D02*
X62418621Y-103955000D01*
X62418621Y-103955000D02*
X62418621Y-104855000D01*
X62418621Y-104855000D02*
X63018621Y-104855000D01*
X63018621Y-104855000D02*
X63018621Y-103955000D01*
G36*
X63018621Y-103955000D02*
G01*
X62418621Y-103955000D01*
X62418621Y-104855000D01*
X63018621Y-104855000D01*
X63018621Y-103955000D01*
G37*
X65818621Y-104705000D02*
X66718621Y-104705000D01*
X66718621Y-104705000D02*
X66718621Y-105305000D01*
X66718621Y-105305000D02*
X65818621Y-105305000D01*
X65818621Y-105305000D02*
X65818621Y-104705000D01*
G36*
X65818621Y-104705000D02*
G01*
X66718621Y-104705000D01*
X66718621Y-105305000D01*
X65818621Y-105305000D01*
X65818621Y-104705000D01*
G37*
X65568621Y-105055000D02*
X64968621Y-105055000D01*
X64968621Y-105055000D02*
X64968621Y-105955000D01*
X64968621Y-105955000D02*
X65568621Y-105955000D01*
X65568621Y-105955000D02*
X65568621Y-105055000D01*
G36*
X65568621Y-105055000D02*
G01*
X64968621Y-105055000D01*
X64968621Y-105955000D01*
X65568621Y-105955000D01*
X65568621Y-105055000D01*
G37*
X64718621Y-105055000D02*
X64118621Y-105055000D01*
X64118621Y-105055000D02*
X64118621Y-105955000D01*
X64118621Y-105955000D02*
X64718621Y-105955000D01*
X64718621Y-105955000D02*
X64718621Y-105055000D01*
G36*
X64718621Y-105055000D02*
G01*
X64118621Y-105055000D01*
X64118621Y-105955000D01*
X64718621Y-105955000D01*
X64718621Y-105055000D01*
G37*
X63868621Y-105055000D02*
X63268621Y-105055000D01*
X63268621Y-105055000D02*
X63268621Y-105955000D01*
X63268621Y-105955000D02*
X63868621Y-105955000D01*
X63868621Y-105955000D02*
X63868621Y-105055000D01*
G36*
X63868621Y-105055000D02*
G01*
X63268621Y-105055000D01*
X63268621Y-105955000D01*
X63868621Y-105955000D01*
X63868621Y-105055000D01*
G37*
X63018621Y-105055000D02*
X62418621Y-105055000D01*
X62418621Y-105055000D02*
X62418621Y-105955000D01*
X62418621Y-105955000D02*
X63018621Y-105955000D01*
X63018621Y-105955000D02*
X63018621Y-105055000D01*
G36*
X63018621Y-105055000D02*
G01*
X62418621Y-105055000D01*
X62418621Y-105955000D01*
X63018621Y-105955000D01*
X63018621Y-105055000D01*
G37*
X65818621Y-105805000D02*
X66718621Y-105805000D01*
X66718621Y-105805000D02*
X66718621Y-106405000D01*
X66718621Y-106405000D02*
X65818621Y-106405000D01*
X65818621Y-106405000D02*
X65818621Y-105805000D01*
G36*
X65818621Y-105805000D02*
G01*
X66718621Y-105805000D01*
X66718621Y-106405000D01*
X65818621Y-106405000D01*
X65818621Y-105805000D01*
G37*
%TO.C,Q12*%
X138740000Y-112390000D02*
X139640000Y-112390000D01*
X139640000Y-112390000D02*
X139640000Y-112990000D01*
X139640000Y-112990000D02*
X138740000Y-112990000D01*
X138740000Y-112990000D02*
X138740000Y-112390000D01*
G36*
X138740000Y-112390000D02*
G01*
X139640000Y-112390000D01*
X139640000Y-112990000D01*
X138740000Y-112990000D01*
X138740000Y-112390000D01*
G37*
X138490000Y-113090000D02*
X137890000Y-113090000D01*
X137890000Y-113090000D02*
X137890000Y-113990000D01*
X137890000Y-113990000D02*
X138490000Y-113990000D01*
X138490000Y-113990000D02*
X138490000Y-113090000D01*
G36*
X138490000Y-113090000D02*
G01*
X137890000Y-113090000D01*
X137890000Y-113990000D01*
X138490000Y-113990000D01*
X138490000Y-113090000D01*
G37*
X137640000Y-113090000D02*
X137040000Y-113090000D01*
X137040000Y-113090000D02*
X137040000Y-113990000D01*
X137040000Y-113990000D02*
X137640000Y-113990000D01*
X137640000Y-113990000D02*
X137640000Y-113090000D01*
G36*
X137640000Y-113090000D02*
G01*
X137040000Y-113090000D01*
X137040000Y-113990000D01*
X137640000Y-113990000D01*
X137640000Y-113090000D01*
G37*
X136790000Y-113090000D02*
X136190000Y-113090000D01*
X136190000Y-113090000D02*
X136190000Y-113990000D01*
X136190000Y-113990000D02*
X136790000Y-113990000D01*
X136790000Y-113990000D02*
X136790000Y-113090000D01*
G36*
X136790000Y-113090000D02*
G01*
X136190000Y-113090000D01*
X136190000Y-113990000D01*
X136790000Y-113990000D01*
X136790000Y-113090000D01*
G37*
X135940000Y-113090000D02*
X135340000Y-113090000D01*
X135340000Y-113090000D02*
X135340000Y-113990000D01*
X135340000Y-113990000D02*
X135940000Y-113990000D01*
X135940000Y-113990000D02*
X135940000Y-113090000D01*
G36*
X135940000Y-113090000D02*
G01*
X135340000Y-113090000D01*
X135340000Y-113990000D01*
X135940000Y-113990000D01*
X135940000Y-113090000D01*
G37*
X138740000Y-113690000D02*
X139640000Y-113690000D01*
X139640000Y-113690000D02*
X139640000Y-114290000D01*
X139640000Y-114290000D02*
X138740000Y-114290000D01*
X138740000Y-114290000D02*
X138740000Y-113690000D01*
G36*
X138740000Y-113690000D02*
G01*
X139640000Y-113690000D01*
X139640000Y-114290000D01*
X138740000Y-114290000D01*
X138740000Y-113690000D01*
G37*
X138490000Y-114240000D02*
X137890000Y-114240000D01*
X137890000Y-114240000D02*
X137890000Y-115140000D01*
X137890000Y-115140000D02*
X138490000Y-115140000D01*
X138490000Y-115140000D02*
X138490000Y-114240000D01*
G36*
X138490000Y-114240000D02*
G01*
X137890000Y-114240000D01*
X137890000Y-115140000D01*
X138490000Y-115140000D01*
X138490000Y-114240000D01*
G37*
X137640000Y-114240000D02*
X137040000Y-114240000D01*
X137040000Y-114240000D02*
X137040000Y-115140000D01*
X137040000Y-115140000D02*
X137640000Y-115140000D01*
X137640000Y-115140000D02*
X137640000Y-114240000D01*
G36*
X137640000Y-114240000D02*
G01*
X137040000Y-114240000D01*
X137040000Y-115140000D01*
X137640000Y-115140000D01*
X137640000Y-114240000D01*
G37*
X136790000Y-114240000D02*
X136190000Y-114240000D01*
X136190000Y-114240000D02*
X136190000Y-115140000D01*
X136190000Y-115140000D02*
X136790000Y-115140000D01*
X136790000Y-115140000D02*
X136790000Y-114240000D01*
G36*
X136790000Y-114240000D02*
G01*
X136190000Y-114240000D01*
X136190000Y-115140000D01*
X136790000Y-115140000D01*
X136790000Y-114240000D01*
G37*
X135940000Y-114240000D02*
X135340000Y-114240000D01*
X135340000Y-114240000D02*
X135340000Y-115140000D01*
X135340000Y-115140000D02*
X135940000Y-115140000D01*
X135940000Y-115140000D02*
X135940000Y-114240000D01*
G36*
X135940000Y-114240000D02*
G01*
X135340000Y-114240000D01*
X135340000Y-115140000D01*
X135940000Y-115140000D01*
X135940000Y-114240000D01*
G37*
X138740000Y-114990000D02*
X139640000Y-114990000D01*
X139640000Y-114990000D02*
X139640000Y-115590000D01*
X139640000Y-115590000D02*
X138740000Y-115590000D01*
X138740000Y-115590000D02*
X138740000Y-114990000D01*
G36*
X138740000Y-114990000D02*
G01*
X139640000Y-114990000D01*
X139640000Y-115590000D01*
X138740000Y-115590000D01*
X138740000Y-114990000D01*
G37*
X138490000Y-115340000D02*
X137890000Y-115340000D01*
X137890000Y-115340000D02*
X137890000Y-116240000D01*
X137890000Y-116240000D02*
X138490000Y-116240000D01*
X138490000Y-116240000D02*
X138490000Y-115340000D01*
G36*
X138490000Y-115340000D02*
G01*
X137890000Y-115340000D01*
X137890000Y-116240000D01*
X138490000Y-116240000D01*
X138490000Y-115340000D01*
G37*
X137640000Y-115340000D02*
X137040000Y-115340000D01*
X137040000Y-115340000D02*
X137040000Y-116240000D01*
X137040000Y-116240000D02*
X137640000Y-116240000D01*
X137640000Y-116240000D02*
X137640000Y-115340000D01*
G36*
X137640000Y-115340000D02*
G01*
X137040000Y-115340000D01*
X137040000Y-116240000D01*
X137640000Y-116240000D01*
X137640000Y-115340000D01*
G37*
X136790000Y-115340000D02*
X136190000Y-115340000D01*
X136190000Y-115340000D02*
X136190000Y-116240000D01*
X136190000Y-116240000D02*
X136790000Y-116240000D01*
X136790000Y-116240000D02*
X136790000Y-115340000D01*
G36*
X136790000Y-115340000D02*
G01*
X136190000Y-115340000D01*
X136190000Y-116240000D01*
X136790000Y-116240000D01*
X136790000Y-115340000D01*
G37*
X135940000Y-115340000D02*
X135340000Y-115340000D01*
X135340000Y-115340000D02*
X135340000Y-116240000D01*
X135340000Y-116240000D02*
X135940000Y-116240000D01*
X135940000Y-116240000D02*
X135940000Y-115340000D01*
G36*
X135940000Y-115340000D02*
G01*
X135340000Y-115340000D01*
X135340000Y-116240000D01*
X135940000Y-116240000D01*
X135940000Y-115340000D01*
G37*
X138740000Y-116090000D02*
X139640000Y-116090000D01*
X139640000Y-116090000D02*
X139640000Y-116690000D01*
X139640000Y-116690000D02*
X138740000Y-116690000D01*
X138740000Y-116690000D02*
X138740000Y-116090000D01*
G36*
X138740000Y-116090000D02*
G01*
X139640000Y-116090000D01*
X139640000Y-116690000D01*
X138740000Y-116690000D01*
X138740000Y-116090000D01*
G37*
%TO.C,Q9*%
X133840000Y-99500000D02*
X132940000Y-99500000D01*
X132940000Y-99500000D02*
X132940000Y-98900000D01*
X132940000Y-98900000D02*
X133840000Y-98900000D01*
X133840000Y-98900000D02*
X133840000Y-99500000D01*
G36*
X133840000Y-99500000D02*
G01*
X132940000Y-99500000D01*
X132940000Y-98900000D01*
X133840000Y-98900000D01*
X133840000Y-99500000D01*
G37*
X134090000Y-98800000D02*
X134690000Y-98800000D01*
X134690000Y-98800000D02*
X134690000Y-97900000D01*
X134690000Y-97900000D02*
X134090000Y-97900000D01*
X134090000Y-97900000D02*
X134090000Y-98800000D01*
G36*
X134090000Y-98800000D02*
G01*
X134690000Y-98800000D01*
X134690000Y-97900000D01*
X134090000Y-97900000D01*
X134090000Y-98800000D01*
G37*
X134940000Y-98800000D02*
X135540000Y-98800000D01*
X135540000Y-98800000D02*
X135540000Y-97900000D01*
X135540000Y-97900000D02*
X134940000Y-97900000D01*
X134940000Y-97900000D02*
X134940000Y-98800000D01*
G36*
X134940000Y-98800000D02*
G01*
X135540000Y-98800000D01*
X135540000Y-97900000D01*
X134940000Y-97900000D01*
X134940000Y-98800000D01*
G37*
X135790000Y-98800000D02*
X136390000Y-98800000D01*
X136390000Y-98800000D02*
X136390000Y-97900000D01*
X136390000Y-97900000D02*
X135790000Y-97900000D01*
X135790000Y-97900000D02*
X135790000Y-98800000D01*
G36*
X135790000Y-98800000D02*
G01*
X136390000Y-98800000D01*
X136390000Y-97900000D01*
X135790000Y-97900000D01*
X135790000Y-98800000D01*
G37*
X136640000Y-98800000D02*
X137240000Y-98800000D01*
X137240000Y-98800000D02*
X137240000Y-97900000D01*
X137240000Y-97900000D02*
X136640000Y-97900000D01*
X136640000Y-97900000D02*
X136640000Y-98800000D01*
G36*
X136640000Y-98800000D02*
G01*
X137240000Y-98800000D01*
X137240000Y-97900000D01*
X136640000Y-97900000D01*
X136640000Y-98800000D01*
G37*
X133840000Y-98200000D02*
X132940000Y-98200000D01*
X132940000Y-98200000D02*
X132940000Y-97600000D01*
X132940000Y-97600000D02*
X133840000Y-97600000D01*
X133840000Y-97600000D02*
X133840000Y-98200000D01*
G36*
X133840000Y-98200000D02*
G01*
X132940000Y-98200000D01*
X132940000Y-97600000D01*
X133840000Y-97600000D01*
X133840000Y-98200000D01*
G37*
X134090000Y-97650000D02*
X134690000Y-97650000D01*
X134690000Y-97650000D02*
X134690000Y-96750000D01*
X134690000Y-96750000D02*
X134090000Y-96750000D01*
X134090000Y-96750000D02*
X134090000Y-97650000D01*
G36*
X134090000Y-97650000D02*
G01*
X134690000Y-97650000D01*
X134690000Y-96750000D01*
X134090000Y-96750000D01*
X134090000Y-97650000D01*
G37*
X134940000Y-97650000D02*
X135540000Y-97650000D01*
X135540000Y-97650000D02*
X135540000Y-96750000D01*
X135540000Y-96750000D02*
X134940000Y-96750000D01*
X134940000Y-96750000D02*
X134940000Y-97650000D01*
G36*
X134940000Y-97650000D02*
G01*
X135540000Y-97650000D01*
X135540000Y-96750000D01*
X134940000Y-96750000D01*
X134940000Y-97650000D01*
G37*
X135790000Y-97650000D02*
X136390000Y-97650000D01*
X136390000Y-97650000D02*
X136390000Y-96750000D01*
X136390000Y-96750000D02*
X135790000Y-96750000D01*
X135790000Y-96750000D02*
X135790000Y-97650000D01*
G36*
X135790000Y-97650000D02*
G01*
X136390000Y-97650000D01*
X136390000Y-96750000D01*
X135790000Y-96750000D01*
X135790000Y-97650000D01*
G37*
X136640000Y-97650000D02*
X137240000Y-97650000D01*
X137240000Y-97650000D02*
X137240000Y-96750000D01*
X137240000Y-96750000D02*
X136640000Y-96750000D01*
X136640000Y-96750000D02*
X136640000Y-97650000D01*
G36*
X136640000Y-97650000D02*
G01*
X137240000Y-97650000D01*
X137240000Y-96750000D01*
X136640000Y-96750000D01*
X136640000Y-97650000D01*
G37*
X133840000Y-96900000D02*
X132940000Y-96900000D01*
X132940000Y-96900000D02*
X132940000Y-96300000D01*
X132940000Y-96300000D02*
X133840000Y-96300000D01*
X133840000Y-96300000D02*
X133840000Y-96900000D01*
G36*
X133840000Y-96900000D02*
G01*
X132940000Y-96900000D01*
X132940000Y-96300000D01*
X133840000Y-96300000D01*
X133840000Y-96900000D01*
G37*
X134090000Y-96550000D02*
X134690000Y-96550000D01*
X134690000Y-96550000D02*
X134690000Y-95650000D01*
X134690000Y-95650000D02*
X134090000Y-95650000D01*
X134090000Y-95650000D02*
X134090000Y-96550000D01*
G36*
X134090000Y-96550000D02*
G01*
X134690000Y-96550000D01*
X134690000Y-95650000D01*
X134090000Y-95650000D01*
X134090000Y-96550000D01*
G37*
X134940000Y-96550000D02*
X135540000Y-96550000D01*
X135540000Y-96550000D02*
X135540000Y-95650000D01*
X135540000Y-95650000D02*
X134940000Y-95650000D01*
X134940000Y-95650000D02*
X134940000Y-96550000D01*
G36*
X134940000Y-96550000D02*
G01*
X135540000Y-96550000D01*
X135540000Y-95650000D01*
X134940000Y-95650000D01*
X134940000Y-96550000D01*
G37*
X135790000Y-96550000D02*
X136390000Y-96550000D01*
X136390000Y-96550000D02*
X136390000Y-95650000D01*
X136390000Y-95650000D02*
X135790000Y-95650000D01*
X135790000Y-95650000D02*
X135790000Y-96550000D01*
G36*
X135790000Y-96550000D02*
G01*
X136390000Y-96550000D01*
X136390000Y-95650000D01*
X135790000Y-95650000D01*
X135790000Y-96550000D01*
G37*
X136640000Y-96550000D02*
X137240000Y-96550000D01*
X137240000Y-96550000D02*
X137240000Y-95650000D01*
X137240000Y-95650000D02*
X136640000Y-95650000D01*
X136640000Y-95650000D02*
X136640000Y-96550000D01*
G36*
X136640000Y-96550000D02*
G01*
X137240000Y-96550000D01*
X137240000Y-95650000D01*
X136640000Y-95650000D01*
X136640000Y-96550000D01*
G37*
X133840000Y-95800000D02*
X132940000Y-95800000D01*
X132940000Y-95800000D02*
X132940000Y-95200000D01*
X132940000Y-95200000D02*
X133840000Y-95200000D01*
X133840000Y-95200000D02*
X133840000Y-95800000D01*
G36*
X133840000Y-95800000D02*
G01*
X132940000Y-95800000D01*
X132940000Y-95200000D01*
X133840000Y-95200000D01*
X133840000Y-95800000D01*
G37*
%TO.C,Q4*%
X60998621Y-101205000D02*
X60098621Y-101205000D01*
X60098621Y-101205000D02*
X60098621Y-100605000D01*
X60098621Y-100605000D02*
X60998621Y-100605000D01*
X60998621Y-100605000D02*
X60998621Y-101205000D01*
G36*
X60998621Y-101205000D02*
G01*
X60098621Y-101205000D01*
X60098621Y-100605000D01*
X60998621Y-100605000D01*
X60998621Y-101205000D01*
G37*
X61248621Y-100505000D02*
X61848621Y-100505000D01*
X61848621Y-100505000D02*
X61848621Y-99605000D01*
X61848621Y-99605000D02*
X61248621Y-99605000D01*
X61248621Y-99605000D02*
X61248621Y-100505000D01*
G36*
X61248621Y-100505000D02*
G01*
X61848621Y-100505000D01*
X61848621Y-99605000D01*
X61248621Y-99605000D01*
X61248621Y-100505000D01*
G37*
X62098621Y-100505000D02*
X62698621Y-100505000D01*
X62698621Y-100505000D02*
X62698621Y-99605000D01*
X62698621Y-99605000D02*
X62098621Y-99605000D01*
X62098621Y-99605000D02*
X62098621Y-100505000D01*
G36*
X62098621Y-100505000D02*
G01*
X62698621Y-100505000D01*
X62698621Y-99605000D01*
X62098621Y-99605000D01*
X62098621Y-100505000D01*
G37*
X62948621Y-100505000D02*
X63548621Y-100505000D01*
X63548621Y-100505000D02*
X63548621Y-99605000D01*
X63548621Y-99605000D02*
X62948621Y-99605000D01*
X62948621Y-99605000D02*
X62948621Y-100505000D01*
G36*
X62948621Y-100505000D02*
G01*
X63548621Y-100505000D01*
X63548621Y-99605000D01*
X62948621Y-99605000D01*
X62948621Y-100505000D01*
G37*
X63798621Y-100505000D02*
X64398621Y-100505000D01*
X64398621Y-100505000D02*
X64398621Y-99605000D01*
X64398621Y-99605000D02*
X63798621Y-99605000D01*
X63798621Y-99605000D02*
X63798621Y-100505000D01*
G36*
X63798621Y-100505000D02*
G01*
X64398621Y-100505000D01*
X64398621Y-99605000D01*
X63798621Y-99605000D01*
X63798621Y-100505000D01*
G37*
X60998621Y-99905000D02*
X60098621Y-99905000D01*
X60098621Y-99905000D02*
X60098621Y-99305000D01*
X60098621Y-99305000D02*
X60998621Y-99305000D01*
X60998621Y-99305000D02*
X60998621Y-99905000D01*
G36*
X60998621Y-99905000D02*
G01*
X60098621Y-99905000D01*
X60098621Y-99305000D01*
X60998621Y-99305000D01*
X60998621Y-99905000D01*
G37*
X61248621Y-99355000D02*
X61848621Y-99355000D01*
X61848621Y-99355000D02*
X61848621Y-98455000D01*
X61848621Y-98455000D02*
X61248621Y-98455000D01*
X61248621Y-98455000D02*
X61248621Y-99355000D01*
G36*
X61248621Y-99355000D02*
G01*
X61848621Y-99355000D01*
X61848621Y-98455000D01*
X61248621Y-98455000D01*
X61248621Y-99355000D01*
G37*
X62098621Y-99355000D02*
X62698621Y-99355000D01*
X62698621Y-99355000D02*
X62698621Y-98455000D01*
X62698621Y-98455000D02*
X62098621Y-98455000D01*
X62098621Y-98455000D02*
X62098621Y-99355000D01*
G36*
X62098621Y-99355000D02*
G01*
X62698621Y-99355000D01*
X62698621Y-98455000D01*
X62098621Y-98455000D01*
X62098621Y-99355000D01*
G37*
X62948621Y-99355000D02*
X63548621Y-99355000D01*
X63548621Y-99355000D02*
X63548621Y-98455000D01*
X63548621Y-98455000D02*
X62948621Y-98455000D01*
X62948621Y-98455000D02*
X62948621Y-99355000D01*
G36*
X62948621Y-99355000D02*
G01*
X63548621Y-99355000D01*
X63548621Y-98455000D01*
X62948621Y-98455000D01*
X62948621Y-99355000D01*
G37*
X63798621Y-99355000D02*
X64398621Y-99355000D01*
X64398621Y-99355000D02*
X64398621Y-98455000D01*
X64398621Y-98455000D02*
X63798621Y-98455000D01*
X63798621Y-98455000D02*
X63798621Y-99355000D01*
G36*
X63798621Y-99355000D02*
G01*
X64398621Y-99355000D01*
X64398621Y-98455000D01*
X63798621Y-98455000D01*
X63798621Y-99355000D01*
G37*
X60998621Y-98605000D02*
X60098621Y-98605000D01*
X60098621Y-98605000D02*
X60098621Y-98005000D01*
X60098621Y-98005000D02*
X60998621Y-98005000D01*
X60998621Y-98005000D02*
X60998621Y-98605000D01*
G36*
X60998621Y-98605000D02*
G01*
X60098621Y-98605000D01*
X60098621Y-98005000D01*
X60998621Y-98005000D01*
X60998621Y-98605000D01*
G37*
X61248621Y-98255000D02*
X61848621Y-98255000D01*
X61848621Y-98255000D02*
X61848621Y-97355000D01*
X61848621Y-97355000D02*
X61248621Y-97355000D01*
X61248621Y-97355000D02*
X61248621Y-98255000D01*
G36*
X61248621Y-98255000D02*
G01*
X61848621Y-98255000D01*
X61848621Y-97355000D01*
X61248621Y-97355000D01*
X61248621Y-98255000D01*
G37*
X62098621Y-98255000D02*
X62698621Y-98255000D01*
X62698621Y-98255000D02*
X62698621Y-97355000D01*
X62698621Y-97355000D02*
X62098621Y-97355000D01*
X62098621Y-97355000D02*
X62098621Y-98255000D01*
G36*
X62098621Y-98255000D02*
G01*
X62698621Y-98255000D01*
X62698621Y-97355000D01*
X62098621Y-97355000D01*
X62098621Y-98255000D01*
G37*
X62948621Y-98255000D02*
X63548621Y-98255000D01*
X63548621Y-98255000D02*
X63548621Y-97355000D01*
X63548621Y-97355000D02*
X62948621Y-97355000D01*
X62948621Y-97355000D02*
X62948621Y-98255000D01*
G36*
X62948621Y-98255000D02*
G01*
X63548621Y-98255000D01*
X63548621Y-97355000D01*
X62948621Y-97355000D01*
X62948621Y-98255000D01*
G37*
X63798621Y-98255000D02*
X64398621Y-98255000D01*
X64398621Y-98255000D02*
X64398621Y-97355000D01*
X64398621Y-97355000D02*
X63798621Y-97355000D01*
X63798621Y-97355000D02*
X63798621Y-98255000D01*
G36*
X63798621Y-98255000D02*
G01*
X64398621Y-98255000D01*
X64398621Y-97355000D01*
X63798621Y-97355000D01*
X63798621Y-98255000D01*
G37*
X60998621Y-97505000D02*
X60098621Y-97505000D01*
X60098621Y-97505000D02*
X60098621Y-96905000D01*
X60098621Y-96905000D02*
X60998621Y-96905000D01*
X60998621Y-96905000D02*
X60998621Y-97505000D01*
G36*
X60998621Y-97505000D02*
G01*
X60098621Y-97505000D01*
X60098621Y-96905000D01*
X60998621Y-96905000D01*
X60998621Y-97505000D01*
G37*
%TO.C,Q11*%
X133870000Y-111490000D02*
X132970000Y-111490000D01*
X132970000Y-111490000D02*
X132970000Y-110890000D01*
X132970000Y-110890000D02*
X133870000Y-110890000D01*
X133870000Y-110890000D02*
X133870000Y-111490000D01*
G36*
X133870000Y-111490000D02*
G01*
X132970000Y-111490000D01*
X132970000Y-110890000D01*
X133870000Y-110890000D01*
X133870000Y-111490000D01*
G37*
X134120000Y-110790000D02*
X134720000Y-110790000D01*
X134720000Y-110790000D02*
X134720000Y-109890000D01*
X134720000Y-109890000D02*
X134120000Y-109890000D01*
X134120000Y-109890000D02*
X134120000Y-110790000D01*
G36*
X134120000Y-110790000D02*
G01*
X134720000Y-110790000D01*
X134720000Y-109890000D01*
X134120000Y-109890000D01*
X134120000Y-110790000D01*
G37*
X134970000Y-110790000D02*
X135570000Y-110790000D01*
X135570000Y-110790000D02*
X135570000Y-109890000D01*
X135570000Y-109890000D02*
X134970000Y-109890000D01*
X134970000Y-109890000D02*
X134970000Y-110790000D01*
G36*
X134970000Y-110790000D02*
G01*
X135570000Y-110790000D01*
X135570000Y-109890000D01*
X134970000Y-109890000D01*
X134970000Y-110790000D01*
G37*
X135820000Y-110790000D02*
X136420000Y-110790000D01*
X136420000Y-110790000D02*
X136420000Y-109890000D01*
X136420000Y-109890000D02*
X135820000Y-109890000D01*
X135820000Y-109890000D02*
X135820000Y-110790000D01*
G36*
X135820000Y-110790000D02*
G01*
X136420000Y-110790000D01*
X136420000Y-109890000D01*
X135820000Y-109890000D01*
X135820000Y-110790000D01*
G37*
X136670000Y-110790000D02*
X137270000Y-110790000D01*
X137270000Y-110790000D02*
X137270000Y-109890000D01*
X137270000Y-109890000D02*
X136670000Y-109890000D01*
X136670000Y-109890000D02*
X136670000Y-110790000D01*
G36*
X136670000Y-110790000D02*
G01*
X137270000Y-110790000D01*
X137270000Y-109890000D01*
X136670000Y-109890000D01*
X136670000Y-110790000D01*
G37*
X133870000Y-110190000D02*
X132970000Y-110190000D01*
X132970000Y-110190000D02*
X132970000Y-109590000D01*
X132970000Y-109590000D02*
X133870000Y-109590000D01*
X133870000Y-109590000D02*
X133870000Y-110190000D01*
G36*
X133870000Y-110190000D02*
G01*
X132970000Y-110190000D01*
X132970000Y-109590000D01*
X133870000Y-109590000D01*
X133870000Y-110190000D01*
G37*
X134120000Y-109640000D02*
X134720000Y-109640000D01*
X134720000Y-109640000D02*
X134720000Y-108740000D01*
X134720000Y-108740000D02*
X134120000Y-108740000D01*
X134120000Y-108740000D02*
X134120000Y-109640000D01*
G36*
X134120000Y-109640000D02*
G01*
X134720000Y-109640000D01*
X134720000Y-108740000D01*
X134120000Y-108740000D01*
X134120000Y-109640000D01*
G37*
X134970000Y-109640000D02*
X135570000Y-109640000D01*
X135570000Y-109640000D02*
X135570000Y-108740000D01*
X135570000Y-108740000D02*
X134970000Y-108740000D01*
X134970000Y-108740000D02*
X134970000Y-109640000D01*
G36*
X134970000Y-109640000D02*
G01*
X135570000Y-109640000D01*
X135570000Y-108740000D01*
X134970000Y-108740000D01*
X134970000Y-109640000D01*
G37*
X135820000Y-109640000D02*
X136420000Y-109640000D01*
X136420000Y-109640000D02*
X136420000Y-108740000D01*
X136420000Y-108740000D02*
X135820000Y-108740000D01*
X135820000Y-108740000D02*
X135820000Y-109640000D01*
G36*
X135820000Y-109640000D02*
G01*
X136420000Y-109640000D01*
X136420000Y-108740000D01*
X135820000Y-108740000D01*
X135820000Y-109640000D01*
G37*
X136670000Y-109640000D02*
X137270000Y-109640000D01*
X137270000Y-109640000D02*
X137270000Y-108740000D01*
X137270000Y-108740000D02*
X136670000Y-108740000D01*
X136670000Y-108740000D02*
X136670000Y-109640000D01*
G36*
X136670000Y-109640000D02*
G01*
X137270000Y-109640000D01*
X137270000Y-108740000D01*
X136670000Y-108740000D01*
X136670000Y-109640000D01*
G37*
X133870000Y-108890000D02*
X132970000Y-108890000D01*
X132970000Y-108890000D02*
X132970000Y-108290000D01*
X132970000Y-108290000D02*
X133870000Y-108290000D01*
X133870000Y-108290000D02*
X133870000Y-108890000D01*
G36*
X133870000Y-108890000D02*
G01*
X132970000Y-108890000D01*
X132970000Y-108290000D01*
X133870000Y-108290000D01*
X133870000Y-108890000D01*
G37*
X134120000Y-108540000D02*
X134720000Y-108540000D01*
X134720000Y-108540000D02*
X134720000Y-107640000D01*
X134720000Y-107640000D02*
X134120000Y-107640000D01*
X134120000Y-107640000D02*
X134120000Y-108540000D01*
G36*
X134120000Y-108540000D02*
G01*
X134720000Y-108540000D01*
X134720000Y-107640000D01*
X134120000Y-107640000D01*
X134120000Y-108540000D01*
G37*
X134970000Y-108540000D02*
X135570000Y-108540000D01*
X135570000Y-108540000D02*
X135570000Y-107640000D01*
X135570000Y-107640000D02*
X134970000Y-107640000D01*
X134970000Y-107640000D02*
X134970000Y-108540000D01*
G36*
X134970000Y-108540000D02*
G01*
X135570000Y-108540000D01*
X135570000Y-107640000D01*
X134970000Y-107640000D01*
X134970000Y-108540000D01*
G37*
X135820000Y-108540000D02*
X136420000Y-108540000D01*
X136420000Y-108540000D02*
X136420000Y-107640000D01*
X136420000Y-107640000D02*
X135820000Y-107640000D01*
X135820000Y-107640000D02*
X135820000Y-108540000D01*
G36*
X135820000Y-108540000D02*
G01*
X136420000Y-108540000D01*
X136420000Y-107640000D01*
X135820000Y-107640000D01*
X135820000Y-108540000D01*
G37*
X136670000Y-108540000D02*
X137270000Y-108540000D01*
X137270000Y-108540000D02*
X137270000Y-107640000D01*
X137270000Y-107640000D02*
X136670000Y-107640000D01*
X136670000Y-107640000D02*
X136670000Y-108540000D01*
G36*
X136670000Y-108540000D02*
G01*
X137270000Y-108540000D01*
X137270000Y-107640000D01*
X136670000Y-107640000D01*
X136670000Y-108540000D01*
G37*
X133870000Y-107790000D02*
X132970000Y-107790000D01*
X132970000Y-107790000D02*
X132970000Y-107190000D01*
X132970000Y-107190000D02*
X133870000Y-107190000D01*
X133870000Y-107190000D02*
X133870000Y-107790000D01*
G36*
X133870000Y-107790000D02*
G01*
X132970000Y-107790000D01*
X132970000Y-107190000D01*
X133870000Y-107190000D01*
X133870000Y-107790000D01*
G37*
%TO.C,Q10*%
X138710000Y-100400000D02*
X139610000Y-100400000D01*
X139610000Y-100400000D02*
X139610000Y-101000000D01*
X139610000Y-101000000D02*
X138710000Y-101000000D01*
X138710000Y-101000000D02*
X138710000Y-100400000D01*
G36*
X138710000Y-100400000D02*
G01*
X139610000Y-100400000D01*
X139610000Y-101000000D01*
X138710000Y-101000000D01*
X138710000Y-100400000D01*
G37*
X138460000Y-101100000D02*
X137860000Y-101100000D01*
X137860000Y-101100000D02*
X137860000Y-102000000D01*
X137860000Y-102000000D02*
X138460000Y-102000000D01*
X138460000Y-102000000D02*
X138460000Y-101100000D01*
G36*
X138460000Y-101100000D02*
G01*
X137860000Y-101100000D01*
X137860000Y-102000000D01*
X138460000Y-102000000D01*
X138460000Y-101100000D01*
G37*
X137610000Y-101100000D02*
X137010000Y-101100000D01*
X137010000Y-101100000D02*
X137010000Y-102000000D01*
X137010000Y-102000000D02*
X137610000Y-102000000D01*
X137610000Y-102000000D02*
X137610000Y-101100000D01*
G36*
X137610000Y-101100000D02*
G01*
X137010000Y-101100000D01*
X137010000Y-102000000D01*
X137610000Y-102000000D01*
X137610000Y-101100000D01*
G37*
X136760000Y-101100000D02*
X136160000Y-101100000D01*
X136160000Y-101100000D02*
X136160000Y-102000000D01*
X136160000Y-102000000D02*
X136760000Y-102000000D01*
X136760000Y-102000000D02*
X136760000Y-101100000D01*
G36*
X136760000Y-101100000D02*
G01*
X136160000Y-101100000D01*
X136160000Y-102000000D01*
X136760000Y-102000000D01*
X136760000Y-101100000D01*
G37*
X135910000Y-101100000D02*
X135310000Y-101100000D01*
X135310000Y-101100000D02*
X135310000Y-102000000D01*
X135310000Y-102000000D02*
X135910000Y-102000000D01*
X135910000Y-102000000D02*
X135910000Y-101100000D01*
G36*
X135910000Y-101100000D02*
G01*
X135310000Y-101100000D01*
X135310000Y-102000000D01*
X135910000Y-102000000D01*
X135910000Y-101100000D01*
G37*
X138710000Y-101700000D02*
X139610000Y-101700000D01*
X139610000Y-101700000D02*
X139610000Y-102300000D01*
X139610000Y-102300000D02*
X138710000Y-102300000D01*
X138710000Y-102300000D02*
X138710000Y-101700000D01*
G36*
X138710000Y-101700000D02*
G01*
X139610000Y-101700000D01*
X139610000Y-102300000D01*
X138710000Y-102300000D01*
X138710000Y-101700000D01*
G37*
X138460000Y-102250000D02*
X137860000Y-102250000D01*
X137860000Y-102250000D02*
X137860000Y-103150000D01*
X137860000Y-103150000D02*
X138460000Y-103150000D01*
X138460000Y-103150000D02*
X138460000Y-102250000D01*
G36*
X138460000Y-102250000D02*
G01*
X137860000Y-102250000D01*
X137860000Y-103150000D01*
X138460000Y-103150000D01*
X138460000Y-102250000D01*
G37*
X137610000Y-102250000D02*
X137010000Y-102250000D01*
X137010000Y-102250000D02*
X137010000Y-103150000D01*
X137010000Y-103150000D02*
X137610000Y-103150000D01*
X137610000Y-103150000D02*
X137610000Y-102250000D01*
G36*
X137610000Y-102250000D02*
G01*
X137010000Y-102250000D01*
X137010000Y-103150000D01*
X137610000Y-103150000D01*
X137610000Y-102250000D01*
G37*
X136760000Y-102250000D02*
X136160000Y-102250000D01*
X136160000Y-102250000D02*
X136160000Y-103150000D01*
X136160000Y-103150000D02*
X136760000Y-103150000D01*
X136760000Y-103150000D02*
X136760000Y-102250000D01*
G36*
X136760000Y-102250000D02*
G01*
X136160000Y-102250000D01*
X136160000Y-103150000D01*
X136760000Y-103150000D01*
X136760000Y-102250000D01*
G37*
X135910000Y-102250000D02*
X135310000Y-102250000D01*
X135310000Y-102250000D02*
X135310000Y-103150000D01*
X135310000Y-103150000D02*
X135910000Y-103150000D01*
X135910000Y-103150000D02*
X135910000Y-102250000D01*
G36*
X135910000Y-102250000D02*
G01*
X135310000Y-102250000D01*
X135310000Y-103150000D01*
X135910000Y-103150000D01*
X135910000Y-102250000D01*
G37*
X138710000Y-103000000D02*
X139610000Y-103000000D01*
X139610000Y-103000000D02*
X139610000Y-103600000D01*
X139610000Y-103600000D02*
X138710000Y-103600000D01*
X138710000Y-103600000D02*
X138710000Y-103000000D01*
G36*
X138710000Y-103000000D02*
G01*
X139610000Y-103000000D01*
X139610000Y-103600000D01*
X138710000Y-103600000D01*
X138710000Y-103000000D01*
G37*
X138460000Y-103350000D02*
X137860000Y-103350000D01*
X137860000Y-103350000D02*
X137860000Y-104250000D01*
X137860000Y-104250000D02*
X138460000Y-104250000D01*
X138460000Y-104250000D02*
X138460000Y-103350000D01*
G36*
X138460000Y-103350000D02*
G01*
X137860000Y-103350000D01*
X137860000Y-104250000D01*
X138460000Y-104250000D01*
X138460000Y-103350000D01*
G37*
X137610000Y-103350000D02*
X137010000Y-103350000D01*
X137010000Y-103350000D02*
X137010000Y-104250000D01*
X137010000Y-104250000D02*
X137610000Y-104250000D01*
X137610000Y-104250000D02*
X137610000Y-103350000D01*
G36*
X137610000Y-103350000D02*
G01*
X137010000Y-103350000D01*
X137010000Y-104250000D01*
X137610000Y-104250000D01*
X137610000Y-103350000D01*
G37*
X136760000Y-103350000D02*
X136160000Y-103350000D01*
X136160000Y-103350000D02*
X136160000Y-104250000D01*
X136160000Y-104250000D02*
X136760000Y-104250000D01*
X136760000Y-104250000D02*
X136760000Y-103350000D01*
G36*
X136760000Y-103350000D02*
G01*
X136160000Y-103350000D01*
X136160000Y-104250000D01*
X136760000Y-104250000D01*
X136760000Y-103350000D01*
G37*
X135910000Y-103350000D02*
X135310000Y-103350000D01*
X135310000Y-103350000D02*
X135310000Y-104250000D01*
X135310000Y-104250000D02*
X135910000Y-104250000D01*
X135910000Y-104250000D02*
X135910000Y-103350000D01*
G36*
X135910000Y-103350000D02*
G01*
X135310000Y-103350000D01*
X135310000Y-104250000D01*
X135910000Y-104250000D01*
X135910000Y-103350000D01*
G37*
X138710000Y-104100000D02*
X139610000Y-104100000D01*
X139610000Y-104100000D02*
X139610000Y-104700000D01*
X139610000Y-104700000D02*
X138710000Y-104700000D01*
X138710000Y-104700000D02*
X138710000Y-104100000D01*
G36*
X138710000Y-104100000D02*
G01*
X139610000Y-104100000D01*
X139610000Y-104700000D01*
X138710000Y-104700000D01*
X138710000Y-104100000D01*
G37*
%TD*%
D11*
%TO.C,C1*%
X87100000Y-117800000D03*
X85200000Y-117800000D03*
%TD*%
%TO.C,C5*%
X87050000Y-94130000D03*
X85150000Y-94130000D03*
%TD*%
D12*
%TO.C,R68*%
X139575000Y-70800000D03*
X141225000Y-70800000D03*
%TD*%
D13*
%TO.C,C9*%
X79600000Y-51860000D03*
X79600000Y-52820000D03*
%TD*%
D12*
%TO.C,R30*%
X123475000Y-84432500D03*
X125125000Y-84432500D03*
%TD*%
D14*
%TO.C,D25*%
X101640000Y-73432500D03*
X101640000Y-75307500D03*
%TD*%
D15*
%TO.C,C2*%
X77970000Y-115590000D03*
X77970000Y-113690000D03*
%TD*%
D16*
%TO.C,R67*%
X113530000Y-136400000D03*
X113530000Y-135380000D03*
%TD*%
D17*
%TO.C,R52*%
X116845000Y-111092500D03*
X116845000Y-109442500D03*
%TD*%
D12*
%TO.C,R39*%
X123435000Y-115180000D03*
X125085000Y-115180000D03*
%TD*%
D18*
%TO.C,R5*%
X76105000Y-110660000D03*
X74455000Y-110660000D03*
%TD*%
D11*
%TO.C,C3*%
X86910000Y-106020000D03*
X85010000Y-106020000D03*
%TD*%
D19*
%TO.C,U11*%
X110367500Y-96965000D03*
X110367500Y-97615000D03*
X110367500Y-98265000D03*
X110367500Y-98915000D03*
X110367500Y-99565000D03*
X110367500Y-100215000D03*
X110367500Y-100865000D03*
X110367500Y-101515000D03*
X110367500Y-102165000D03*
X110367500Y-102815000D03*
X116092500Y-102815000D03*
X116092500Y-102165000D03*
X116092500Y-101515000D03*
X116092500Y-100865000D03*
X116092500Y-100215000D03*
X116092500Y-99565000D03*
X116092500Y-98915000D03*
X116092500Y-98265000D03*
X116092500Y-97615000D03*
X116092500Y-96965000D03*
%TD*%
D17*
%TO.C,R47*%
X115145000Y-108017500D03*
X115145000Y-106367500D03*
%TD*%
D20*
%TO.C,C11*%
X78340000Y-53155000D03*
X78340000Y-51605000D03*
%TD*%
D12*
%TO.C,R59*%
X74465000Y-112390000D03*
X76115000Y-112390000D03*
%TD*%
D21*
%TO.C,D9*%
X126910000Y-84660000D03*
X126910000Y-82560000D03*
%TD*%
D22*
%TO.C,D12*%
X112087500Y-107050000D03*
X108787500Y-107050000D03*
%TD*%
D17*
%TO.C,R53*%
X118525000Y-111102500D03*
X118525000Y-109452500D03*
%TD*%
D23*
%TO.C,C28*%
X131280000Y-75465000D03*
X131280000Y-77015000D03*
%TD*%
D12*
%TO.C,R31*%
X123435000Y-91170000D03*
X125085000Y-91170000D03*
%TD*%
D24*
%TO.C,C15*%
X119340000Y-98730000D03*
X119340000Y-100630000D03*
%TD*%
D25*
%TO.C,U9*%
X123600000Y-136870000D03*
X125500000Y-136870000D03*
X124550000Y-134995000D03*
%TD*%
D26*
%TO.C,C13*%
X123780000Y-139320000D03*
X123780000Y-138360000D03*
%TD*%
D12*
%TO.C,R45*%
X123435000Y-92900000D03*
X125085000Y-92900000D03*
%TD*%
D23*
%TO.C,C29*%
X102650000Y-99705000D03*
X102650000Y-101255000D03*
%TD*%
D17*
%TO.C,R48*%
X116840000Y-108020000D03*
X116840000Y-106370000D03*
%TD*%
D27*
%TO.C,D6*%
X99837500Y-138230000D03*
X98262500Y-138230000D03*
%TD*%
D28*
%TO.C,C70*%
X131370000Y-110480000D03*
X131370000Y-113430000D03*
%TD*%
D23*
%TO.C,C26*%
X147240000Y-66350000D03*
X147240000Y-67900000D03*
%TD*%
D29*
%TO.C,Q8*%
X133508621Y-88855000D03*
X133508621Y-90125000D03*
X133508621Y-91395000D03*
X133508621Y-92665000D03*
%TD*%
D17*
%TO.C,R49*%
X118520000Y-108030000D03*
X118520000Y-106380000D03*
%TD*%
D30*
%TO.C,R41*%
X106337500Y-128320000D03*
X112262500Y-128320000D03*
%TD*%
D31*
%TO.C,Q6*%
X66248621Y-89105000D03*
X66248621Y-87835000D03*
X66248621Y-86565000D03*
X66248621Y-85295000D03*
%TD*%
D32*
%TO.C,C21*%
X91205000Y-116720000D03*
X92755000Y-116720000D03*
%TD*%
D33*
%TO.C,D18*%
X72760000Y-102660000D03*
X72760000Y-104760000D03*
%TD*%
D18*
%TO.C,R42*%
X76165000Y-114470000D03*
X74515000Y-114470000D03*
%TD*%
%TO.C,R27*%
X138200000Y-70810000D03*
X136550000Y-70810000D03*
%TD*%
D34*
%TO.C,R22*%
X68320000Y-79627500D03*
X68320000Y-77802500D03*
%TD*%
D21*
%TO.C,D19*%
X72720000Y-100730000D03*
X72720000Y-98630000D03*
%TD*%
D29*
%TO.C,Q1*%
X60568621Y-114305000D03*
X60568621Y-115575000D03*
X60568621Y-116845000D03*
X60568621Y-118115000D03*
%TD*%
D12*
%TO.C,R61*%
X74430000Y-100570000D03*
X76080000Y-100570000D03*
%TD*%
%TO.C,R54*%
X123485000Y-106552500D03*
X125135000Y-106552500D03*
%TD*%
D18*
%TO.C,R7*%
X76090000Y-102840000D03*
X74440000Y-102840000D03*
%TD*%
D21*
%TO.C,D21*%
X72770000Y-88910000D03*
X72770000Y-86810000D03*
%TD*%
D29*
%TO.C,Q5*%
X60568621Y-90805000D03*
X60568621Y-92075000D03*
X60568621Y-93345000D03*
X60568621Y-94615000D03*
%TD*%
D35*
%TO.C,D3*%
X80310000Y-94290000D03*
X83610000Y-94290000D03*
%TD*%
D31*
%TO.C,Q2*%
X66248621Y-112605000D03*
X66248621Y-111335000D03*
X66248621Y-110065000D03*
X66248621Y-108795000D03*
%TD*%
D36*
%TO.C,R6*%
X97470000Y-117510000D03*
X96450000Y-117510000D03*
%TD*%
D18*
%TO.C,R12*%
X76105000Y-91070000D03*
X74455000Y-91070000D03*
%TD*%
D22*
%TO.C,D23*%
X144650000Y-63170000D03*
X141350000Y-63170000D03*
%TD*%
D18*
%TO.C,R36*%
X71615000Y-62390000D03*
X69965000Y-62390000D03*
%TD*%
D22*
%TO.C,D13*%
X112062500Y-109470000D03*
X108762500Y-109470000D03*
%TD*%
D21*
%TO.C,D8*%
X126880000Y-96510000D03*
X126880000Y-94410000D03*
%TD*%
D37*
%TO.C,C23*%
X134190000Y-75260000D03*
X139790000Y-75260000D03*
%TD*%
D38*
%TO.C,R3*%
X102962500Y-128260000D03*
X97037500Y-128260000D03*
%TD*%
D18*
%TO.C,R8*%
X76075000Y-98820000D03*
X74425000Y-98820000D03*
%TD*%
D21*
%TO.C,D7*%
X126920000Y-108372500D03*
X126920000Y-106272500D03*
%TD*%
D17*
%TO.C,R51*%
X115150000Y-111090000D03*
X115150000Y-109440000D03*
%TD*%
D31*
%TO.C,Q7*%
X139138621Y-87155000D03*
X139138621Y-85885000D03*
X139138621Y-84615000D03*
X139138621Y-83345000D03*
%TD*%
D39*
%TO.C,U5*%
X138920000Y-65290000D03*
X138920000Y-66560000D03*
X138920000Y-67830000D03*
X138920000Y-69100000D03*
X144320000Y-69100000D03*
X144320000Y-67830000D03*
X144320000Y-66560000D03*
X144320000Y-65290000D03*
D40*
X141620000Y-67195000D03*
%TD*%
D41*
%TO.C,R4*%
X96950000Y-118470000D03*
X96950000Y-119490000D03*
%TD*%
D18*
%TO.C,R16*%
X76105000Y-86990000D03*
X74455000Y-86990000D03*
%TD*%
D28*
%TO.C,C67*%
X128850000Y-86560000D03*
X128850000Y-89510000D03*
%TD*%
D26*
%TO.C,C27*%
X130040000Y-76735000D03*
X130040000Y-75775000D03*
%TD*%
D28*
%TO.C,C71*%
X128830000Y-110455000D03*
X128830000Y-113405000D03*
%TD*%
D41*
%TO.C,R25*%
X118180000Y-120850000D03*
X118180000Y-121870000D03*
%TD*%
D42*
%TO.C,SW1*%
X62150000Y-58000000D03*
X62150000Y-52000000D03*
X65850000Y-58000000D03*
X65850000Y-52000000D03*
%TD*%
D28*
%TO.C,C69*%
X128830000Y-98415000D03*
X128830000Y-101365000D03*
%TD*%
D12*
%TO.C,R55*%
X123435000Y-116940000D03*
X125085000Y-116940000D03*
%TD*%
D15*
%TO.C,C6*%
X77880000Y-91970000D03*
X77880000Y-90070000D03*
%TD*%
D43*
%TO.C,R64*%
X110970000Y-133900000D03*
X111990000Y-133900000D03*
%TD*%
D44*
%TO.C,C78*%
X122250000Y-133480000D03*
X121290000Y-133480000D03*
%TD*%
D45*
%TO.C,U3*%
X85149975Y-104165000D03*
X85149975Y-102895000D03*
X85149975Y-101625000D03*
X85149975Y-100355000D03*
X80199975Y-100355000D03*
X80199975Y-101625000D03*
X80199975Y-102895000D03*
X80199975Y-104165000D03*
%TD*%
D43*
%TO.C,R66*%
X111540000Y-135400000D03*
X112560000Y-135400000D03*
%TD*%
D15*
%TO.C,C4*%
X77840000Y-103820000D03*
X77840000Y-101920000D03*
%TD*%
D12*
%TO.C,R50*%
X123465000Y-104792500D03*
X125115000Y-104792500D03*
%TD*%
%TO.C,R29*%
X123435000Y-96342500D03*
X125085000Y-96342500D03*
%TD*%
D28*
%TO.C,C68*%
X131370000Y-98440000D03*
X131370000Y-101390000D03*
%TD*%
D29*
%TO.C,Q3*%
X60568621Y-102505000D03*
X60568621Y-103775000D03*
X60568621Y-105045000D03*
X60568621Y-106315000D03*
%TD*%
D23*
%TO.C,C12*%
X101100000Y-99705000D03*
X101100000Y-101255000D03*
%TD*%
D46*
%TO.C,D4*%
X66285000Y-79660000D03*
X66285000Y-77785000D03*
%TD*%
D42*
%TO.C,SW3*%
X69650000Y-58000000D03*
X69650000Y-52000000D03*
X73350000Y-58000000D03*
X73350000Y-52000000D03*
%TD*%
D46*
%TO.C,D5*%
X72310000Y-79650000D03*
X72310000Y-77775000D03*
%TD*%
D33*
%TO.C,D20*%
X72770000Y-90880000D03*
X72770000Y-92980000D03*
%TD*%
D35*
%TO.C,D1*%
X80340000Y-117920000D03*
X83640000Y-117920000D03*
%TD*%
D43*
%TO.C,R65*%
X113010000Y-133900000D03*
X114030000Y-133900000D03*
%TD*%
D45*
%TO.C,U4*%
X85110000Y-92250000D03*
X85110000Y-90980000D03*
X85110000Y-89710000D03*
X85110000Y-88440000D03*
X80160000Y-88440000D03*
X80160000Y-89710000D03*
X80160000Y-90980000D03*
X80160000Y-92250000D03*
%TD*%
D47*
%TO.C,C75*%
X70550000Y-103175000D03*
X70550000Y-100225000D03*
%TD*%
D23*
%TO.C,C22*%
X106840000Y-100600000D03*
X106840000Y-102150000D03*
%TD*%
%TO.C,C25*%
X97450000Y-133575000D03*
X97450000Y-135125000D03*
%TD*%
D12*
%TO.C,R63*%
X74465000Y-88730000D03*
X76115000Y-88730000D03*
%TD*%
D29*
%TO.C,Q12*%
X133490000Y-112790000D03*
X133490000Y-114060000D03*
X133490000Y-115330000D03*
X133490000Y-116600000D03*
%TD*%
D26*
%TO.C,C24*%
X145960000Y-67690000D03*
X145960000Y-66730000D03*
%TD*%
D12*
%TO.C,R38*%
X69965000Y-60870000D03*
X71615000Y-60870000D03*
%TD*%
D31*
%TO.C,Q9*%
X139090000Y-99100000D03*
X139090000Y-97830000D03*
X139090000Y-96560000D03*
X139090000Y-95290000D03*
%TD*%
D24*
%TO.C,C16*%
X119360000Y-102240000D03*
X119360000Y-104140000D03*
%TD*%
D33*
%TO.C,D14*%
X126910000Y-102902500D03*
X126910000Y-105002500D03*
%TD*%
D18*
%TO.C,R71*%
X101185000Y-102740000D03*
X99535000Y-102740000D03*
%TD*%
D35*
%TO.C,D2*%
X80194975Y-106180000D03*
X83494975Y-106180000D03*
%TD*%
D48*
%TO.C,R69*%
X101880000Y-70170000D03*
X101880000Y-71820000D03*
%TD*%
D49*
%TO.C,U12*%
X87535000Y-133425000D03*
X87535000Y-134695000D03*
X87535000Y-135965000D03*
X87535000Y-137235000D03*
X92485000Y-137235000D03*
X92485000Y-135965000D03*
X92485000Y-134695000D03*
X92485000Y-133425000D03*
%TD*%
D16*
%TO.C,R35*%
X124780000Y-139360000D03*
X124780000Y-138340000D03*
%TD*%
D34*
%TO.C,R23*%
X70300000Y-79625000D03*
X70300000Y-77800000D03*
%TD*%
D45*
%TO.C,U2*%
X85290000Y-115910000D03*
X85290000Y-114640000D03*
X85290000Y-113370000D03*
X85290000Y-112100000D03*
X80340000Y-112100000D03*
X80340000Y-113370000D03*
X80340000Y-114640000D03*
X80340000Y-115910000D03*
%TD*%
D17*
%TO.C,R15*%
X90810000Y-106535000D03*
X90810000Y-104885000D03*
%TD*%
D18*
%TO.C,R57*%
X100555000Y-133605000D03*
X98905000Y-133605000D03*
%TD*%
%TO.C,R70*%
X99615000Y-100750000D03*
X97965000Y-100750000D03*
%TD*%
D31*
%TO.C,Q4*%
X66248621Y-100805000D03*
X66248621Y-99535000D03*
X66248621Y-98265000D03*
X66248621Y-96995000D03*
%TD*%
D24*
%TO.C,C19*%
X119340000Y-95240000D03*
X119340000Y-97140000D03*
%TD*%
D50*
%TO.C,C17*%
X68525000Y-60850000D03*
X66975000Y-60850000D03*
%TD*%
D36*
%TO.C,R21*%
X99850000Y-99480000D03*
X98830000Y-99480000D03*
%TD*%
D18*
%TO.C,R19*%
X115797500Y-59990000D03*
X114147500Y-59990000D03*
%TD*%
D17*
%TO.C,R14*%
X94040000Y-106535000D03*
X94040000Y-104885000D03*
%TD*%
D43*
%TO.C,R32*%
X115100000Y-73010000D03*
X116120000Y-73010000D03*
%TD*%
D41*
%TO.C,R1*%
X95470000Y-117550000D03*
X95470000Y-118570000D03*
%TD*%
D47*
%TO.C,C72*%
X68140000Y-91320000D03*
X68140000Y-88370000D03*
%TD*%
D20*
%TO.C,C10*%
X76810000Y-53155000D03*
X76810000Y-51605000D03*
%TD*%
D43*
%TO.C,R33*%
X115090000Y-74120000D03*
X116110000Y-74120000D03*
%TD*%
D12*
%TO.C,R62*%
X74445000Y-92810000D03*
X76095000Y-92810000D03*
%TD*%
D47*
%TO.C,C74*%
X68110000Y-103150000D03*
X68110000Y-100200000D03*
%TD*%
D51*
%TO.C,U7*%
X66060000Y-70697500D03*
X67010000Y-70697500D03*
X67960000Y-70697500D03*
X67960000Y-68422500D03*
X67010000Y-68422500D03*
X66060000Y-68422500D03*
%TD*%
D36*
%TO.C,R44*%
X120320000Y-120880000D03*
X119300000Y-120880000D03*
%TD*%
D52*
%TO.C,FB1*%
X68812500Y-65820000D03*
X66987500Y-65820000D03*
%TD*%
D53*
%TO.C,U1*%
X88965000Y-114665000D03*
X90235000Y-114665000D03*
X91505000Y-114665000D03*
X92775000Y-114665000D03*
X94045000Y-114665000D03*
X95315000Y-114665000D03*
X96585000Y-114665000D03*
X96585000Y-109715000D03*
X95315000Y-109715000D03*
X94045000Y-109715000D03*
X92775000Y-109715000D03*
X91505000Y-109715000D03*
X90235000Y-109715000D03*
X88965000Y-109715000D03*
%TD*%
D54*
%TO.C,Q21*%
X110395000Y-59980000D03*
X110395000Y-61880000D03*
X112270000Y-60930000D03*
%TD*%
D22*
%TO.C,D11*%
X112080000Y-104650000D03*
X108780000Y-104650000D03*
%TD*%
D47*
%TO.C,C76*%
X68140000Y-115040000D03*
X68140000Y-112090000D03*
%TD*%
D53*
%TO.C,U10*%
X112960000Y-118905000D03*
X114230000Y-118905000D03*
X115500000Y-118905000D03*
X116770000Y-118905000D03*
X118040000Y-118905000D03*
X119310000Y-118905000D03*
X120580000Y-118905000D03*
X120580000Y-113955000D03*
X119310000Y-113955000D03*
X118040000Y-113955000D03*
X116770000Y-113955000D03*
X115500000Y-113955000D03*
X114230000Y-113955000D03*
X112960000Y-113955000D03*
%TD*%
D12*
%TO.C,R28*%
X123495000Y-108112500D03*
X125145000Y-108112500D03*
%TD*%
D55*
%TO.C,D24*%
X97450000Y-72250000D03*
X97450000Y-75550000D03*
%TD*%
D12*
%TO.C,R24*%
X96465000Y-136710000D03*
X98115000Y-136710000D03*
%TD*%
D21*
%TO.C,D17*%
X72800000Y-112570000D03*
X72800000Y-110470000D03*
%TD*%
D43*
%TO.C,R20*%
X96900000Y-99480000D03*
X97920000Y-99480000D03*
%TD*%
D32*
%TO.C,C7*%
X115105000Y-120960000D03*
X116655000Y-120960000D03*
%TD*%
D36*
%TO.C,R2*%
X95840000Y-116470000D03*
X94820000Y-116470000D03*
%TD*%
D31*
%TO.C,Q11*%
X139120000Y-111090000D03*
X139120000Y-109820000D03*
X139120000Y-108550000D03*
X139120000Y-107280000D03*
%TD*%
D56*
%TO.C,Q20*%
X113645000Y-58330000D03*
X113645000Y-56430000D03*
X111770000Y-57380000D03*
%TD*%
D18*
%TO.C,R18*%
X115820000Y-61900000D03*
X114170000Y-61900000D03*
%TD*%
D57*
%TO.C,L1*%
X133470000Y-68280000D03*
X133470000Y-62280000D03*
%TD*%
D58*
%TO.C,R56*%
X104780000Y-131710000D03*
X104780000Y-137635000D03*
%TD*%
D17*
%TO.C,R11*%
X90810000Y-103430000D03*
X90810000Y-101780000D03*
%TD*%
D47*
%TO.C,C77*%
X70580000Y-115065000D03*
X70580000Y-112115000D03*
%TD*%
D16*
%TO.C,R40*%
X120880000Y-122880000D03*
X120880000Y-121860000D03*
%TD*%
D17*
%TO.C,R9*%
X92460000Y-103450000D03*
X92460000Y-101800000D03*
%TD*%
%TO.C,R13*%
X92435000Y-106535000D03*
X92435000Y-104885000D03*
%TD*%
D32*
%TO.C,C14*%
X66960000Y-62390000D03*
X68510000Y-62390000D03*
%TD*%
D41*
%TO.C,R26*%
X119830000Y-121860000D03*
X119830000Y-122880000D03*
%TD*%
D12*
%TO.C,R46*%
X123445000Y-94680000D03*
X125095000Y-94680000D03*
%TD*%
D55*
%TO.C,D22*%
X95070000Y-72240000D03*
X95070000Y-75540000D03*
%TD*%
D23*
%TO.C,C8*%
X138850000Y-61775000D03*
X138850000Y-63325000D03*
%TD*%
D47*
%TO.C,C73*%
X70580000Y-91345000D03*
X70580000Y-88395000D03*
%TD*%
D12*
%TO.C,R60*%
X74445000Y-104570000D03*
X76095000Y-104570000D03*
%TD*%
D33*
%TO.C,D16*%
X72840000Y-114280000D03*
X72840000Y-116380000D03*
%TD*%
%TO.C,D15*%
X126880000Y-114960000D03*
X126880000Y-117060000D03*
%TD*%
D12*
%TO.C,R37*%
X123465000Y-103072500D03*
X125115000Y-103072500D03*
%TD*%
D23*
%TO.C,C20*%
X108420000Y-100570000D03*
X108420000Y-102120000D03*
%TD*%
D17*
%TO.C,R10*%
X94020000Y-103440000D03*
X94020000Y-101790000D03*
%TD*%
D33*
%TO.C,D10*%
X126880000Y-90960000D03*
X126880000Y-93060000D03*
%TD*%
D12*
%TO.C,R17*%
X74510000Y-116190000D03*
X76160000Y-116190000D03*
%TD*%
D28*
%TO.C,C66*%
X131320000Y-86555000D03*
X131320000Y-89505000D03*
%TD*%
D12*
%TO.C,R43*%
X123465000Y-82822500D03*
X125115000Y-82822500D03*
%TD*%
D18*
%TO.C,R58*%
X100565000Y-135155000D03*
X98915000Y-135155000D03*
%TD*%
D49*
%TO.C,U13*%
X116560000Y-134810000D03*
X116560000Y-136080000D03*
X116560000Y-137350000D03*
X116560000Y-138620000D03*
X121510000Y-138620000D03*
X121510000Y-137350000D03*
X121510000Y-136080000D03*
X121510000Y-134810000D03*
%TD*%
D20*
%TO.C,C18*%
X94520000Y-137345000D03*
X94520000Y-135795000D03*
%TD*%
D29*
%TO.C,Q10*%
X133460000Y-100800000D03*
X133460000Y-102070000D03*
X133460000Y-103340000D03*
X133460000Y-104610000D03*
%TD*%
D41*
%TO.C,R34*%
X125770000Y-138337500D03*
X125770000Y-139357500D03*
%TD*%
D59*
%TO.C,U6*%
X81250000Y-51740000D03*
X81250000Y-53010000D03*
X81250000Y-54280000D03*
X81250000Y-55550000D03*
X81250000Y-56820000D03*
X81250000Y-58090000D03*
X81250000Y-59360000D03*
X81250000Y-60630000D03*
X81250000Y-61900000D03*
X81250000Y-63170000D03*
X81250000Y-64440000D03*
X81250000Y-65710000D03*
X81250000Y-66980000D03*
X81250000Y-68250000D03*
D60*
X83015000Y-69500000D03*
X84285000Y-69500000D03*
X85555000Y-69500000D03*
X86825000Y-69500000D03*
X88095000Y-69500000D03*
X89365000Y-69500000D03*
X90635000Y-69500000D03*
X91905000Y-69500000D03*
X93175000Y-69500000D03*
X94445000Y-69500000D03*
X95715000Y-69500000D03*
X96985000Y-69500000D03*
D59*
X98750000Y-68250000D03*
X98750000Y-66980000D03*
X98750000Y-65710000D03*
X98750000Y-64440000D03*
X98750000Y-63170000D03*
X98750000Y-61900000D03*
X98750000Y-60630000D03*
X98750000Y-59360000D03*
X98750000Y-58090000D03*
X98750000Y-56820000D03*
X98750000Y-55550000D03*
X98750000Y-54280000D03*
X98750000Y-53010000D03*
X98750000Y-51740000D03*
D61*
X87100000Y-58060000D03*
X87100000Y-59460000D03*
X87100000Y-60860000D03*
X87100000Y-60860000D03*
X88500000Y-58060000D03*
X88500000Y-58060000D03*
X88500000Y-59460000D03*
X88500000Y-60860000D03*
X89900000Y-58060000D03*
X89900000Y-59460000D03*
X89900000Y-60860000D03*
%TD*%
M02*
