%TF.GenerationSoftware,KiCad,Pcbnew,8.0.1*%
%TF.CreationDate,2024-05-15T20:02:36+03:00*%
%TF.ProjectId,ESP32_dual_ESC,45535033-325f-4647-9561-6c5f4553432e,rev?*%
%TF.SameCoordinates,Original*%
%TF.FileFunction,Soldermask,Top*%
%TF.FilePolarity,Negative*%
%FSLAX46Y46*%
G04 Gerber Fmt 4.6, Leading zero omitted, Abs format (unit mm)*
G04 Created by KiCad (PCBNEW 8.0.1) date 2024-05-15 20:02:36*
%MOMM*%
%LPD*%
G01*
G04 APERTURE LIST*
G04 Aperture macros list*
%AMRoundRect*
0 Rectangle with rounded corners*
0 $1 Rounding radius*
0 $2 $3 $4 $5 $6 $7 $8 $9 X,Y pos of 4 corners*
0 Add a 4 corners polygon primitive as box body*
4,1,4,$2,$3,$4,$5,$6,$7,$8,$9,$2,$3,0*
0 Add four circle primitives for the rounded corners*
1,1,$1+$1,$2,$3*
1,1,$1+$1,$4,$5*
1,1,$1+$1,$6,$7*
1,1,$1+$1,$8,$9*
0 Add four rect primitives between the rounded corners*
20,1,$1+$1,$2,$3,$4,$5,0*
20,1,$1+$1,$4,$5,$6,$7,0*
20,1,$1+$1,$6,$7,$8,$9,0*
20,1,$1+$1,$8,$9,$2,$3,0*%
%AMRotRect*
0 Rectangle, with rotation*
0 The origin of the aperture is its center*
0 $1 length*
0 $2 width*
0 $3 Rotation angle, in degrees counterclockwise*
0 Add horizontal line*
21,1,$1,$2,0,0,$3*%
%AMFreePoly0*
4,1,19,0.500000,-0.750000,0.000000,-0.750000,0.000000,-0.744911,-0.071157,-0.744911,-0.207708,-0.704816,-0.327430,-0.627875,-0.420627,-0.520320,-0.479746,-0.390866,-0.500000,-0.250000,-0.500000,0.250000,-0.479746,0.390866,-0.420627,0.520320,-0.327430,0.627875,-0.207708,0.704816,-0.071157,0.744911,0.000000,0.744911,0.000000,0.750000,0.500000,0.750000,0.500000,-0.750000,0.500000,-0.750000,
$1*%
%AMFreePoly1*
4,1,19,0.000000,0.744911,0.071157,0.744911,0.207708,0.704816,0.327430,0.627875,0.420627,0.520320,0.479746,0.390866,0.500000,0.250000,0.500000,-0.250000,0.479746,-0.390866,0.420627,-0.520320,0.327430,-0.627875,0.207708,-0.704816,0.071157,-0.744911,0.000000,-0.744911,0.000000,-0.750000,-0.500000,-0.750000,-0.500000,0.750000,0.000000,0.750000,0.000000,0.744911,0.000000,0.744911,
$1*%
G04 Aperture macros list end*
%ADD10C,3.500500*%
%ADD11RoundRect,0.250000X0.450000X-0.262500X0.450000X0.262500X-0.450000X0.262500X-0.450000X-0.262500X0*%
%ADD12RoundRect,0.250000X-0.262500X-0.450000X0.262500X-0.450000X0.262500X0.450000X-0.262500X0.450000X0*%
%ADD13RoundRect,0.250000X0.262500X0.450000X-0.262500X0.450000X-0.262500X-0.450000X0.262500X-0.450000X0*%
%ADD14RoundRect,0.200000X-0.200000X-0.275000X0.200000X-0.275000X0.200000X0.275000X-0.200000X0.275000X0*%
%ADD15C,2.900000*%
%ADD16C,5.000000*%
%ADD17RoundRect,0.100000X0.100000X-0.637500X0.100000X0.637500X-0.100000X0.637500X-0.100000X-0.637500X0*%
%ADD18RoundRect,0.250000X0.250000X0.475000X-0.250000X0.475000X-0.250000X-0.475000X0.250000X-0.475000X0*%
%ADD19RoundRect,0.140000X-0.170000X0.140000X-0.170000X-0.140000X0.170000X-0.140000X0.170000X0.140000X0*%
%ADD20RoundRect,0.140000X0.170000X-0.140000X0.170000X0.140000X-0.170000X0.140000X-0.170000X-0.140000X0*%
%ADD21RoundRect,0.225000X-0.225000X-0.250000X0.225000X-0.250000X0.225000X0.250000X-0.225000X0.250000X0*%
%ADD22RoundRect,0.150000X-0.150000X0.587500X-0.150000X-0.587500X0.150000X-0.587500X0.150000X0.587500X0*%
%ADD23RoundRect,0.243750X-0.243750X-0.456250X0.243750X-0.456250X0.243750X0.456250X-0.243750X0.456250X0*%
%ADD24RoundRect,0.250000X0.475000X-0.250000X0.475000X0.250000X-0.475000X0.250000X-0.475000X-0.250000X0*%
%ADD25RoundRect,0.135000X0.185000X-0.135000X0.185000X0.135000X-0.185000X0.135000X-0.185000X-0.135000X0*%
%ADD26RoundRect,0.160000X0.160000X-0.197500X0.160000X0.197500X-0.160000X0.197500X-0.160000X-0.197500X0*%
%ADD27RoundRect,0.225000X0.225000X0.375000X-0.225000X0.375000X-0.225000X-0.375000X0.225000X-0.375000X0*%
%ADD28RoundRect,0.200000X0.275000X-0.200000X0.275000X0.200000X-0.275000X0.200000X-0.275000X-0.200000X0*%
%ADD29RoundRect,0.225000X-0.250000X0.225000X-0.250000X-0.225000X0.250000X-0.225000X0.250000X0.225000X0*%
%ADD30RoundRect,0.200000X0.200000X0.275000X-0.200000X0.275000X-0.200000X-0.275000X0.200000X-0.275000X0*%
%ADD31RoundRect,0.150000X-0.825000X-0.150000X0.825000X-0.150000X0.825000X0.150000X-0.825000X0.150000X0*%
%ADD32RoundRect,0.225000X0.250000X-0.225000X0.250000X0.225000X-0.250000X0.225000X-0.250000X-0.225000X0*%
%ADD33RoundRect,0.250000X-0.650000X0.325000X-0.650000X-0.325000X0.650000X-0.325000X0.650000X0.325000X0*%
%ADD34RoundRect,0.150000X0.587500X0.150000X-0.587500X0.150000X-0.587500X-0.150000X0.587500X-0.150000X0*%
%ADD35RoundRect,0.140000X0.140000X0.170000X-0.140000X0.170000X-0.140000X-0.170000X0.140000X-0.170000X0*%
%ADD36RoundRect,0.250000X-0.250000X-0.475000X0.250000X-0.475000X0.250000X0.475000X-0.250000X0.475000X0*%
%ADD37RoundRect,0.135000X0.135000X0.185000X-0.135000X0.185000X-0.135000X-0.185000X0.135000X-0.185000X0*%
%ADD38RoundRect,0.150000X0.150000X-0.825000X0.150000X0.825000X-0.150000X0.825000X-0.150000X-0.825000X0*%
%ADD39C,3.600000*%
%ADD40C,5.600000*%
%ADD41RoundRect,0.218750X0.218750X0.256250X-0.218750X0.256250X-0.218750X-0.256250X0.218750X-0.256250X0*%
%ADD42R,1.510000X4.710000*%
%ADD43R,3.100000X4.210000*%
%ADD44RoundRect,0.175000X-0.400000X0.175000X-0.400000X-0.175000X0.400000X-0.175000X0.400000X0.175000X0*%
%ADD45R,1.000000X1.000000*%
%ADD46FreePoly0,270.000000*%
%ADD47FreePoly1,270.000000*%
%ADD48RoundRect,0.200000X-0.275000X0.200000X-0.275000X-0.200000X0.275000X-0.200000X0.275000X0.200000X0*%
%ADD49RoundRect,0.175000X0.400000X-0.175000X0.400000X0.175000X-0.400000X0.175000X-0.400000X-0.175000X0*%
%ADD50RoundRect,0.160000X-0.197500X-0.160000X0.197500X-0.160000X0.197500X0.160000X-0.197500X0.160000X0*%
%ADD51RoundRect,0.250000X-0.475000X0.250000X-0.475000X-0.250000X0.475000X-0.250000X0.475000X0.250000X0*%
%ADD52RoundRect,0.112500X-0.112500X0.187500X-0.112500X-0.187500X0.112500X-0.187500X0.112500X0.187500X0*%
%ADD53RoundRect,0.112500X0.112500X-0.187500X0.112500X0.187500X-0.112500X0.187500X-0.112500X-0.187500X0*%
%ADD54R,1.700000X1.700000*%
%ADD55O,1.700000X1.700000*%
%ADD56RoundRect,0.225000X-0.225000X-0.375000X0.225000X-0.375000X0.225000X0.375000X-0.225000X0.375000X0*%
%ADD57RoundRect,0.135000X-0.135000X-0.185000X0.135000X-0.185000X0.135000X0.185000X-0.135000X0.185000X0*%
%ADD58RoundRect,0.250000X-0.362500X-1.425000X0.362500X-1.425000X0.362500X1.425000X-0.362500X1.425000X0*%
%ADD59R,1.800000X1.800000*%
%ADD60C,1.800000*%
%ADD61RoundRect,0.750000X0.750000X-1.250000X0.750000X1.250000X-0.750000X1.250000X-0.750000X-1.250000X0*%
%ADD62RoundRect,0.250000X-1.500000X-0.550000X1.500000X-0.550000X1.500000X0.550000X-1.500000X0.550000X0*%
%ADD63RoundRect,0.250000X0.362500X1.425000X-0.362500X1.425000X-0.362500X-1.425000X0.362500X-1.425000X0*%
%ADD64R,1.500000X1.600000*%
%ADD65C,1.600000*%
%ADD66C,3.000000*%
%ADD67R,1.550000X0.600000*%
%ADD68R,2.600000X3.100000*%
%ADD69RoundRect,0.135000X-0.185000X0.135000X-0.185000X-0.135000X0.185000X-0.135000X0.185000X0.135000X0*%
%ADD70R,0.700000X1.000000*%
%ADD71RoundRect,0.150000X0.825000X0.150000X-0.825000X0.150000X-0.825000X-0.150000X0.825000X-0.150000X0*%
%ADD72RoundRect,0.140000X-0.140000X-0.170000X0.140000X-0.170000X0.140000X0.170000X-0.140000X0.170000X0*%
%ADD73RoundRect,0.243750X0.456250X-0.243750X0.456250X0.243750X-0.456250X0.243750X-0.456250X-0.243750X0*%
%ADD74RoundRect,0.140000X-0.219203X-0.021213X-0.021213X-0.219203X0.219203X0.021213X0.021213X0.219203X0*%
%ADD75RoundRect,0.250000X0.650000X-0.325000X0.650000X0.325000X-0.650000X0.325000X-0.650000X-0.325000X0*%
%ADD76RoundRect,0.225000X0.335876X0.017678X0.017678X0.335876X-0.335876X-0.017678X-0.017678X-0.335876X0*%
%ADD77RoundRect,0.225000X0.225000X0.250000X-0.225000X0.250000X-0.225000X-0.250000X0.225000X-0.250000X0*%
%ADD78C,1.000000*%
%ADD79RoundRect,0.150000X0.150000X-0.512500X0.150000X0.512500X-0.150000X0.512500X-0.150000X-0.512500X0*%
%ADD80RoundRect,0.225000X-0.375000X0.225000X-0.375000X-0.225000X0.375000X-0.225000X0.375000X0.225000X0*%
%ADD81R,7.500000X2.200000*%
%ADD82RoundRect,0.250000X-1.425000X0.362500X-1.425000X-0.362500X1.425000X-0.362500X1.425000X0.362500X0*%
%ADD83FreePoly0,180.000000*%
%ADD84FreePoly1,180.000000*%
%ADD85RoundRect,0.062500X0.194454X0.282843X-0.282843X-0.194454X-0.194454X-0.282843X0.282843X0.194454X0*%
%ADD86RoundRect,0.062500X-0.194454X0.282843X-0.282843X0.194454X0.194454X-0.282843X0.282843X-0.194454X0*%
%ADD87RotRect,3.350000X3.350000X225.000000*%
%ADD88RoundRect,0.150000X0.512500X0.150000X-0.512500X0.150000X-0.512500X-0.150000X0.512500X-0.150000X0*%
%ADD89R,1.500000X0.900000*%
%ADD90R,0.900000X1.500000*%
%ADD91R,0.900000X0.900000*%
%ADD92O,3.500000X3.500000*%
%ADD93R,2.000000X1.905000*%
%ADD94O,2.000000X1.905000*%
%ADD95R,1.905000X2.000000*%
%ADD96O,1.905000X2.000000*%
%ADD97R,1.600000X1.500000*%
G04 APERTURE END LIST*
D10*
X146949450Y-105931000D02*
G75*
G02*
X143448950Y-105931000I-1750250J0D01*
G01*
X143448950Y-105931000D02*
G75*
G02*
X146949450Y-105931000I1750250J0D01*
G01*
X146873250Y-93891400D02*
G75*
G02*
X143372750Y-93891400I-1750250J0D01*
G01*
X143372750Y-93891400D02*
G75*
G02*
X146873250Y-93891400I1750250J0D01*
G01*
X96810250Y-144390000D02*
G75*
G02*
X93309750Y-144390000I-1750250J0D01*
G01*
X93309750Y-144390000D02*
G75*
G02*
X96810250Y-144390000I1750250J0D01*
G01*
X106720250Y-144350000D02*
G75*
G02*
X103219750Y-144350000I-1750250J0D01*
G01*
X103219750Y-144350000D02*
G75*
G02*
X106720250Y-144350000I1750250J0D01*
G01*
X57078871Y-100195000D02*
G75*
G02*
X53578371Y-100195000I-1750250J0D01*
G01*
X53578371Y-100195000D02*
G75*
G02*
X57078871Y-100195000I1750250J0D01*
G01*
X57078871Y-88215000D02*
G75*
G02*
X53578371Y-88215000I-1750250J0D01*
G01*
X53578371Y-88215000D02*
G75*
G02*
X57078871Y-88215000I1750250J0D01*
G01*
X146873250Y-118072200D02*
G75*
G02*
X143372750Y-118072200I-1750250J0D01*
G01*
X143372750Y-118072200D02*
G75*
G02*
X146873250Y-118072200I1750250J0D01*
G01*
X57078871Y-112175000D02*
G75*
G02*
X53578371Y-112175000I-1750250J0D01*
G01*
X53578371Y-112175000D02*
G75*
G02*
X57078871Y-112175000I1750250J0D01*
G01*
D11*
%TO.C,R22*%
X68320000Y-79627500D03*
X68320000Y-77802500D03*
%TD*%
D12*
%TO.C,FB2*%
X116372100Y-56604200D03*
X118197100Y-56604200D03*
%TD*%
D11*
%TO.C,R23*%
X70300000Y-79625000D03*
X70300000Y-77800000D03*
%TD*%
D13*
%TO.C,FB1*%
X68812500Y-65820000D03*
X66987500Y-65820000D03*
%TD*%
D14*
%TO.C,R100*%
X122250800Y-75959000D03*
X123900800Y-75959000D03*
%TD*%
D15*
%TO.C,J9*%
X145100400Y-117934800D03*
D16*
X145100400Y-117934800D03*
%TD*%
D17*
%TO.C,U16*%
X105378400Y-80828100D03*
X106028400Y-80828100D03*
X106678400Y-80828100D03*
X107328400Y-80828100D03*
X107978400Y-80828100D03*
X108628400Y-80828100D03*
X109278400Y-80828100D03*
X109928400Y-80828100D03*
X110578400Y-80828100D03*
X111228400Y-80828100D03*
X111878400Y-80828100D03*
X112528400Y-80828100D03*
X112528400Y-75103100D03*
X111878400Y-75103100D03*
X111228400Y-75103100D03*
X110578400Y-75103100D03*
X109928400Y-75103100D03*
X109278400Y-75103100D03*
X108628400Y-75103100D03*
X107978400Y-75103100D03*
X107328400Y-75103100D03*
X106678400Y-75103100D03*
X106028400Y-75103100D03*
X105378400Y-75103100D03*
%TD*%
D18*
%TO.C,C1*%
X87100000Y-117800000D03*
X85200000Y-117800000D03*
%TD*%
%TO.C,C5*%
X86433800Y-94120000D03*
X84533800Y-94120000D03*
%TD*%
D14*
%TO.C,R68*%
X140200600Y-74003200D03*
X141850600Y-74003200D03*
%TD*%
D19*
%TO.C,C9*%
X79600000Y-51860000D03*
X79600000Y-52820000D03*
%TD*%
D14*
%TO.C,R82*%
X122200000Y-58687000D03*
X123850000Y-58687000D03*
%TD*%
D20*
%TO.C,C46*%
X125245800Y-80668400D03*
X125245800Y-79708400D03*
%TD*%
D21*
%TO.C,C7*%
X91160400Y-116700600D03*
X92710400Y-116700600D03*
%TD*%
D22*
%TO.C,Q20*%
X112363500Y-62832000D03*
X110463500Y-62832000D03*
X111413500Y-64707000D03*
%TD*%
D23*
%TO.C,D25*%
X96030500Y-86245200D03*
X97905500Y-86245200D03*
%TD*%
D24*
%TO.C,C2*%
X77970000Y-115590000D03*
X77970000Y-113690000D03*
%TD*%
D25*
%TO.C,R67*%
X113530000Y-136400000D03*
X113530000Y-135380000D03*
%TD*%
%TO.C,R33*%
X113545800Y-55990400D03*
X113545800Y-54970400D03*
%TD*%
D26*
%TO.C,R86*%
X110375800Y-73289600D03*
X110375800Y-72094600D03*
%TD*%
D14*
%TO.C,R55*%
X123698600Y-120942400D03*
X125348600Y-120942400D03*
%TD*%
D15*
%TO.C,J7*%
X145100400Y-93804800D03*
D16*
X145100400Y-93804800D03*
%TD*%
D25*
%TO.C,R32*%
X112098000Y-55990400D03*
X112098000Y-54970400D03*
%TD*%
D26*
%TO.C,R75*%
X85229800Y-80214100D03*
X85229800Y-79019100D03*
%TD*%
%TO.C,R78*%
X83223200Y-80239500D03*
X83223200Y-79044500D03*
%TD*%
D27*
%TO.C,D8*%
X120001400Y-101689200D03*
X116701400Y-101689200D03*
%TD*%
D28*
%TO.C,R19*%
X108822700Y-64109600D03*
X108822700Y-62459600D03*
%TD*%
D19*
%TO.C,C43*%
X105346600Y-72532600D03*
X105346600Y-73492600D03*
%TD*%
D29*
%TO.C,C47*%
X126495000Y-79375000D03*
X126495000Y-80925000D03*
%TD*%
D30*
%TO.C,R5*%
X76105000Y-110660000D03*
X74455000Y-110660000D03*
%TD*%
D18*
%TO.C,C3*%
X86408400Y-106032600D03*
X84508400Y-106032600D03*
%TD*%
D26*
%TO.C,R74*%
X86229200Y-82410600D03*
X86229200Y-81215600D03*
%TD*%
D31*
%TO.C,U17*%
X114657200Y-103760800D03*
X114657200Y-105030800D03*
X114657200Y-106300800D03*
X114657200Y-107570800D03*
X119607200Y-107570800D03*
X119607200Y-106300800D03*
X119607200Y-105030800D03*
X119607200Y-103760800D03*
%TD*%
D32*
%TO.C,C11*%
X78340000Y-53155000D03*
X78340000Y-51605000D03*
%TD*%
D14*
%TO.C,R59*%
X74465000Y-112390000D03*
X76115000Y-112390000D03*
%TD*%
D33*
%TO.C,C35*%
X131915000Y-116114600D03*
X131915000Y-119064600D03*
%TD*%
D29*
%TO.C,C28*%
X132219800Y-82296000D03*
X132219800Y-83846000D03*
%TD*%
D34*
%TO.C,U9*%
X143431600Y-62405600D03*
X143431600Y-60505600D03*
X141556600Y-61455600D03*
%TD*%
D35*
%TO.C,C13*%
X145881600Y-62225600D03*
X144921600Y-62225600D03*
%TD*%
D36*
%TO.C,C20*%
X113134200Y-112941400D03*
X115034200Y-112941400D03*
%TD*%
D37*
%TO.C,R29*%
X107990200Y-117284800D03*
X106970200Y-117284800D03*
%TD*%
D28*
%TO.C,R40*%
X107581800Y-104000600D03*
X107581800Y-102350600D03*
%TD*%
D38*
%TO.C,U10*%
X101892200Y-115238600D03*
X103162200Y-115238600D03*
X104432200Y-115238600D03*
X105702200Y-115238600D03*
X106972200Y-115238600D03*
X108242200Y-115238600D03*
X109512200Y-115238600D03*
X109512200Y-110288600D03*
X108242200Y-110288600D03*
X106972200Y-110288600D03*
X105702200Y-110288600D03*
X104432200Y-110288600D03*
X103162200Y-110288600D03*
X101892200Y-110288600D03*
%TD*%
D39*
%TO.C,H3*%
X145000000Y-145000000D03*
D40*
X145000000Y-145000000D03*
%TD*%
D20*
%TO.C,C42*%
X104254400Y-81417400D03*
X104254400Y-80457400D03*
%TD*%
D29*
%TO.C,C29*%
X102253600Y-91948200D03*
X102253600Y-93498200D03*
%TD*%
D26*
%TO.C,R84*%
X108351600Y-73289600D03*
X108351600Y-72094600D03*
%TD*%
%TO.C,R88*%
X112484000Y-73264200D03*
X112484000Y-72069200D03*
%TD*%
D41*
%TO.C,D6*%
X99837500Y-138230000D03*
X98262500Y-138230000D03*
%TD*%
D29*
%TO.C,C26*%
X147865600Y-69437200D03*
X147865600Y-70987200D03*
%TD*%
D42*
%TO.C,Q8*%
X139240821Y-96739000D03*
D43*
X136954821Y-96739000D03*
D44*
X133790821Y-94839000D03*
X133790821Y-96109000D03*
X133790821Y-97379000D03*
X133790821Y-98649000D03*
%TD*%
D45*
%TO.C,TP5*%
X111849000Y-83325000D03*
%TD*%
D46*
%TO.C,JP1*%
X69290000Y-74580000D03*
D47*
X69290000Y-75880000D03*
%TD*%
D48*
%TO.C,R18*%
X112708900Y-59259200D03*
X112708900Y-60909200D03*
%TD*%
D28*
%TO.C,R95*%
X123634600Y-137083600D03*
X123634600Y-135433600D03*
%TD*%
D26*
%TO.C,R79*%
X90284400Y-82423900D03*
X90284400Y-81228900D03*
%TD*%
D28*
%TO.C,R101*%
X125209400Y-138556800D03*
X125209400Y-136906800D03*
%TD*%
%TO.C,R93*%
X74409400Y-132587800D03*
X74409400Y-130937800D03*
%TD*%
D42*
%TO.C,Q6*%
X60798621Y-87205000D03*
D43*
X63084621Y-87205000D03*
D49*
X66248621Y-89105000D03*
X66248621Y-87835000D03*
X66248621Y-86565000D03*
X66248621Y-85295000D03*
%TD*%
D50*
%TO.C,R90*%
X104710400Y-82436000D03*
X105905400Y-82436000D03*
%TD*%
D51*
%TO.C,C21*%
X122074000Y-92396800D03*
X122074000Y-94296800D03*
%TD*%
D52*
%TO.C,D18*%
X72760000Y-102660000D03*
X72760000Y-104760000D03*
%TD*%
D30*
%TO.C,R42*%
X76165000Y-114470000D03*
X74515000Y-114470000D03*
%TD*%
%TO.C,R27*%
X138825600Y-74003200D03*
X137175600Y-74003200D03*
%TD*%
D27*
%TO.C,D9*%
X119899800Y-112789000D03*
X116599800Y-112789000D03*
%TD*%
D14*
%TO.C,R98*%
X123470000Y-74435000D03*
X125120000Y-74435000D03*
%TD*%
D53*
%TO.C,D19*%
X72720000Y-100730000D03*
X72720000Y-98630000D03*
%TD*%
D31*
%TO.C,U11*%
X114835000Y-92432400D03*
X114835000Y-93702400D03*
X114835000Y-94972400D03*
X114835000Y-96242400D03*
X119785000Y-96242400D03*
X119785000Y-94972400D03*
X119785000Y-93702400D03*
X119785000Y-92432400D03*
%TD*%
D42*
%TO.C,Q1*%
X66018621Y-116205000D03*
D43*
X63732621Y-116205000D03*
D44*
X60568621Y-114305000D03*
X60568621Y-115575000D03*
X60568621Y-116845000D03*
X60568621Y-118115000D03*
%TD*%
D14*
%TO.C,R61*%
X74430000Y-100570000D03*
X76080000Y-100570000D03*
%TD*%
D30*
%TO.C,R7*%
X76090000Y-102840000D03*
X74440000Y-102840000D03*
%TD*%
D53*
%TO.C,D21*%
X72770000Y-88910000D03*
X72770000Y-86810000D03*
%TD*%
D42*
%TO.C,Q5*%
X66018621Y-92705000D03*
D43*
X63732621Y-92705000D03*
D44*
X60568621Y-90805000D03*
X60568621Y-92075000D03*
X60568621Y-93345000D03*
X60568621Y-94615000D03*
%TD*%
D54*
%TO.C,J4*%
X147635600Y-74997200D03*
D55*
X145095600Y-74997200D03*
%TD*%
D26*
%TO.C,R77*%
X82216000Y-82436000D03*
X82216000Y-81241000D03*
%TD*%
D56*
%TO.C,D3*%
X79693600Y-94272400D03*
X82993600Y-94272400D03*
%TD*%
D33*
%TO.C,C39*%
X129451200Y-104303600D03*
X129451200Y-107253600D03*
%TD*%
D57*
%TO.C,R92*%
X134503800Y-55599400D03*
X135523800Y-55599400D03*
%TD*%
%TO.C,R30*%
X108900600Y-118478600D03*
X109920600Y-118478600D03*
%TD*%
D36*
%TO.C,C16*%
X113388200Y-90437000D03*
X115288200Y-90437000D03*
%TD*%
D42*
%TO.C,Q2*%
X60798621Y-110705000D03*
D43*
X63084621Y-110705000D03*
D49*
X66248621Y-112605000D03*
X66248621Y-111335000D03*
X66248621Y-110065000D03*
X66248621Y-108795000D03*
%TD*%
D26*
%TO.C,R89*%
X106388000Y-73289600D03*
X106388000Y-72094600D03*
%TD*%
D58*
%TO.C,R25*%
X106651300Y-128181400D03*
X112576300Y-128181400D03*
%TD*%
D37*
%TO.C,R6*%
X97470000Y-117510000D03*
X96450000Y-117510000D03*
%TD*%
D59*
%TO.C,RV2*%
X131000000Y-147000000D03*
D60*
X133500000Y-147000000D03*
X136000000Y-147000000D03*
D61*
X129100000Y-140000000D03*
X137900000Y-140000000D03*
%TD*%
D39*
%TO.C,H2*%
X145000000Y-55000000D03*
D40*
X145000000Y-55000000D03*
%TD*%
D30*
%TO.C,R12*%
X76105000Y-91070000D03*
X74455000Y-91070000D03*
%TD*%
D27*
%TO.C,D23*%
X145275600Y-66257200D03*
X141975600Y-66257200D03*
%TD*%
D30*
%TO.C,R36*%
X71615000Y-62390000D03*
X69965000Y-62390000D03*
%TD*%
D14*
%TO.C,R44*%
X123724000Y-116294200D03*
X125374000Y-116294200D03*
%TD*%
D33*
%TO.C,C40*%
X129502000Y-92392800D03*
X129502000Y-95342800D03*
%TD*%
D53*
%TO.C,D12*%
X127089000Y-105431600D03*
X127089000Y-103331600D03*
%TD*%
D30*
%TO.C,R45*%
X125348600Y-119316800D03*
X123698600Y-119316800D03*
%TD*%
%TO.C,R54*%
X125374000Y-114668600D03*
X123724000Y-114668600D03*
%TD*%
D62*
%TO.C,C23*%
X134815600Y-78575200D03*
X140415600Y-78575200D03*
%TD*%
D63*
%TO.C,R3*%
X102962500Y-128260000D03*
X97037500Y-128260000D03*
%TD*%
D33*
%TO.C,C38*%
X129552800Y-116140000D03*
X129552800Y-119090000D03*
%TD*%
D30*
%TO.C,R8*%
X76075000Y-98820000D03*
X74425000Y-98820000D03*
%TD*%
D53*
%TO.C,D10*%
X127063600Y-116582200D03*
X127063600Y-114482200D03*
%TD*%
D64*
%TO.C,J5*%
X60000000Y-66000000D03*
D65*
X60000000Y-68500000D03*
X60000000Y-70500000D03*
X60000000Y-73000000D03*
D66*
X57290000Y-62930000D03*
X57290000Y-76070000D03*
%TD*%
D42*
%TO.C,Q7*%
X133970821Y-91239000D03*
D43*
X136256821Y-91239000D03*
D49*
X139420821Y-93139000D03*
X139420821Y-91869000D03*
X139420821Y-90599000D03*
X139420821Y-89329000D03*
%TD*%
D67*
%TO.C,U5*%
X139545600Y-68377200D03*
X139545600Y-69647200D03*
X139545600Y-70917200D03*
X139545600Y-72187200D03*
X144945600Y-72187200D03*
X144945600Y-70917200D03*
X144945600Y-69647200D03*
X144945600Y-68377200D03*
D68*
X142245600Y-70282200D03*
%TD*%
D45*
%TO.C,TP8*%
X92746200Y-73546000D03*
%TD*%
D30*
%TO.C,R49*%
X125489800Y-96279000D03*
X123839800Y-96279000D03*
%TD*%
%TO.C,R94*%
X132867000Y-131712000D03*
X131217000Y-131712000D03*
%TD*%
D52*
%TO.C,D13*%
X127059800Y-107861200D03*
X127059800Y-109961200D03*
%TD*%
D69*
%TO.C,R4*%
X96950000Y-118470000D03*
X96950000Y-119490000D03*
%TD*%
D26*
%TO.C,R73*%
X87236400Y-80214100D03*
X87236400Y-79019100D03*
%TD*%
D30*
%TO.C,R16*%
X76105000Y-86990000D03*
X74455000Y-86990000D03*
%TD*%
D20*
%TO.C,C27*%
X130979800Y-83566000D03*
X130979800Y-82606000D03*
%TD*%
D26*
%TO.C,R97*%
X126301600Y-70079500D03*
X126301600Y-68884500D03*
%TD*%
D52*
%TO.C,D15*%
X127154000Y-96041800D03*
X127154000Y-98141800D03*
%TD*%
D70*
%TO.C,SW1*%
X62150000Y-58000000D03*
X62150000Y-52000000D03*
X65850000Y-58000000D03*
X65850000Y-52000000D03*
%TD*%
D24*
%TO.C,C6*%
X77880000Y-91970000D03*
X77880000Y-90070000D03*
%TD*%
D14*
%TO.C,R48*%
X123839800Y-93245200D03*
X125489800Y-93245200D03*
%TD*%
D57*
%TO.C,R64*%
X110970000Y-133900000D03*
X111990000Y-133900000D03*
%TD*%
D35*
%TO.C,C78*%
X122250000Y-133480000D03*
X121290000Y-133480000D03*
%TD*%
D71*
%TO.C,U3*%
X85149975Y-104165000D03*
X85149975Y-102895000D03*
X85149975Y-101625000D03*
X85149975Y-100355000D03*
X80199975Y-100355000D03*
X80199975Y-101625000D03*
X80199975Y-102895000D03*
X80199975Y-104165000D03*
%TD*%
D57*
%TO.C,R66*%
X111540000Y-135400000D03*
X112560000Y-135400000D03*
%TD*%
D24*
%TO.C,C4*%
X77840000Y-103820000D03*
X77840000Y-101920000D03*
%TD*%
D72*
%TO.C,C33*%
X120944800Y-73139600D03*
X121904800Y-73139600D03*
%TD*%
D26*
%TO.C,R85*%
X109428200Y-71054400D03*
X109428200Y-69859400D03*
%TD*%
D42*
%TO.C,Q3*%
X66018621Y-104405000D03*
D43*
X63732621Y-104405000D03*
D44*
X60568621Y-102505000D03*
X60568621Y-103775000D03*
X60568621Y-105045000D03*
X60568621Y-106315000D03*
%TD*%
D29*
%TO.C,C12*%
X100703600Y-91948200D03*
X100703600Y-93498200D03*
%TD*%
D19*
%TO.C,C41*%
X140830400Y-57445000D03*
X140830400Y-58405000D03*
%TD*%
D53*
%TO.C,D14*%
X127154000Y-93558600D03*
X127154000Y-91458600D03*
%TD*%
D73*
%TO.C,D4*%
X66285000Y-79660000D03*
X66285000Y-77785000D03*
%TD*%
D70*
%TO.C,SW3*%
X69650000Y-58000000D03*
X69650000Y-52000000D03*
X73350000Y-58000000D03*
X73350000Y-52000000D03*
%TD*%
D73*
%TO.C,D5*%
X72310000Y-79650000D03*
X72310000Y-77775000D03*
%TD*%
D52*
%TO.C,D20*%
X72770000Y-90880000D03*
X72770000Y-92980000D03*
%TD*%
D56*
%TO.C,D1*%
X80340000Y-117920000D03*
X83640000Y-117920000D03*
%TD*%
D57*
%TO.C,R65*%
X113010000Y-133900000D03*
X114030000Y-133900000D03*
%TD*%
D71*
%TO.C,U4*%
X85110000Y-92250000D03*
X85110000Y-90980000D03*
X85110000Y-89710000D03*
X85110000Y-88440000D03*
X80160000Y-88440000D03*
X80160000Y-89710000D03*
X80160000Y-90980000D03*
X80160000Y-92250000D03*
%TD*%
D74*
%TO.C,C32*%
X123625389Y-61674989D03*
X124304211Y-62353811D03*
%TD*%
D28*
%TO.C,R41*%
X107505600Y-107353400D03*
X107505600Y-105703400D03*
%TD*%
D30*
%TO.C,R47*%
X125370200Y-108073000D03*
X123720200Y-108073000D03*
%TD*%
D28*
%TO.C,R26*%
X104533800Y-104026000D03*
X104533800Y-102376000D03*
%TD*%
D33*
%TO.C,C37*%
X131864200Y-92367400D03*
X131864200Y-95317400D03*
%TD*%
D75*
%TO.C,C75*%
X70550000Y-103175000D03*
X70550000Y-100225000D03*
%TD*%
D33*
%TO.C,C36*%
X131813400Y-104278200D03*
X131813400Y-107228200D03*
%TD*%
D29*
%TO.C,C25*%
X97450000Y-133575000D03*
X97450000Y-135125000D03*
%TD*%
D69*
%TO.C,R102*%
X123787000Y-138618800D03*
X123787000Y-139638800D03*
%TD*%
D14*
%TO.C,R63*%
X74465000Y-88730000D03*
X76115000Y-88730000D03*
%TD*%
D42*
%TO.C,Q12*%
X139222200Y-120674000D03*
D43*
X136936200Y-120674000D03*
D44*
X133772200Y-118774000D03*
X133772200Y-120044000D03*
X133772200Y-121314000D03*
X133772200Y-122584000D03*
%TD*%
D74*
%TO.C,C30*%
X120374189Y-61471789D03*
X121053011Y-62150611D03*
%TD*%
D20*
%TO.C,C24*%
X146585600Y-70777200D03*
X146585600Y-69817200D03*
%TD*%
D14*
%TO.C,R38*%
X69965000Y-60870000D03*
X71615000Y-60870000D03*
%TD*%
D59*
%TO.C,RV1*%
X70000000Y-147000000D03*
D60*
X72500000Y-147000000D03*
X75000000Y-147000000D03*
D61*
X68100000Y-140000000D03*
X76900000Y-140000000D03*
%TD*%
D54*
%TO.C,J10*%
X116802000Y-52337000D03*
D55*
X114262000Y-52337000D03*
X111722000Y-52337000D03*
X109182000Y-52337000D03*
%TD*%
D39*
%TO.C,H1*%
X55000000Y-55000000D03*
D40*
X55000000Y-55000000D03*
%TD*%
D15*
%TO.C,J1*%
X55258621Y-112205000D03*
D16*
X55258621Y-112205000D03*
%TD*%
D15*
%TO.C,J8*%
X145100400Y-105819000D03*
D16*
X145100400Y-105819000D03*
%TD*%
D42*
%TO.C,Q9*%
X133922200Y-103184000D03*
D43*
X136208200Y-103184000D03*
D49*
X139372200Y-105084000D03*
X139372200Y-103814000D03*
X139372200Y-102544000D03*
X139372200Y-101274000D03*
%TD*%
D45*
%TO.C,TP6*%
X112865000Y-85458600D03*
%TD*%
D30*
%TO.C,R71*%
X100788600Y-94983200D03*
X99138600Y-94983200D03*
%TD*%
D45*
%TO.C,TP3*%
X114414400Y-76035200D03*
%TD*%
D14*
%TO.C,R72*%
X137605600Y-56920200D03*
X139255600Y-56920200D03*
%TD*%
D30*
%TO.C,R50*%
X125489800Y-91645000D03*
X123839800Y-91645000D03*
%TD*%
D56*
%TO.C,D2*%
X79693600Y-106159600D03*
X82993600Y-106159600D03*
%TD*%
D14*
%TO.C,R69*%
X92768000Y-86005200D03*
X94418000Y-86005200D03*
%TD*%
%TO.C,R91*%
X134569800Y-56920200D03*
X136219800Y-56920200D03*
%TD*%
D31*
%TO.C,U12*%
X87535000Y-133425000D03*
X87535000Y-134695000D03*
X87535000Y-135965000D03*
X87535000Y-137235000D03*
X92485000Y-137235000D03*
X92485000Y-135965000D03*
X92485000Y-134695000D03*
X92485000Y-133425000D03*
%TD*%
D37*
%TO.C,R35*%
X145921600Y-61225600D03*
X144901600Y-61225600D03*
%TD*%
D71*
%TO.C,U2*%
X85290000Y-115910000D03*
X85290000Y-114640000D03*
X85290000Y-113370000D03*
X85290000Y-112100000D03*
X80340000Y-112100000D03*
X80340000Y-113370000D03*
X80340000Y-114640000D03*
X80340000Y-115910000D03*
%TD*%
D28*
%TO.C,R15*%
X90810000Y-106535000D03*
X90810000Y-104885000D03*
%TD*%
D37*
%TO.C,R43*%
X109896200Y-117284000D03*
X108876200Y-117284000D03*
%TD*%
D14*
%TO.C,R99*%
X120396600Y-74435000D03*
X122046600Y-74435000D03*
%TD*%
D76*
%TO.C,C31*%
X121744208Y-61063808D03*
X120648192Y-59967792D03*
%TD*%
D30*
%TO.C,R57*%
X100555000Y-133605000D03*
X98905000Y-133605000D03*
%TD*%
%TO.C,R70*%
X99218600Y-92993200D03*
X97568600Y-92993200D03*
%TD*%
D42*
%TO.C,Q4*%
X60798621Y-98905000D03*
D43*
X63084621Y-98905000D03*
D49*
X66248621Y-100805000D03*
X66248621Y-99535000D03*
X66248621Y-98265000D03*
X66248621Y-96995000D03*
%TD*%
D34*
%TO.C,Q21*%
X110909200Y-60973000D03*
X110909200Y-59073000D03*
X109034200Y-60023000D03*
%TD*%
D15*
%TO.C,J2*%
X55258621Y-100205000D03*
D16*
X55258621Y-100205000D03*
%TD*%
D77*
%TO.C,C17*%
X68525000Y-60850000D03*
X66975000Y-60850000D03*
%TD*%
D37*
%TO.C,R21*%
X99453600Y-91723200D03*
X98433600Y-91723200D03*
%TD*%
D14*
%TO.C,R46*%
X123749400Y-105194400D03*
X125399400Y-105194400D03*
%TD*%
D26*
%TO.C,R76*%
X84222600Y-82410600D03*
X84222600Y-81215600D03*
%TD*%
D28*
%TO.C,R14*%
X94040000Y-106535000D03*
X94040000Y-104885000D03*
%TD*%
%TO.C,R31*%
X106032400Y-104026000D03*
X106032400Y-102376000D03*
%TD*%
D69*
%TO.C,R1*%
X95470000Y-117550000D03*
X95470000Y-118570000D03*
%TD*%
D75*
%TO.C,C72*%
X68140000Y-91320000D03*
X68140000Y-88370000D03*
%TD*%
D32*
%TO.C,C10*%
X76810000Y-53155000D03*
X76810000Y-51605000D03*
%TD*%
D14*
%TO.C,R53*%
X123720200Y-109724000D03*
X125370200Y-109724000D03*
%TD*%
%TO.C,R62*%
X74445000Y-92810000D03*
X76095000Y-92810000D03*
%TD*%
D75*
%TO.C,C74*%
X68110000Y-103150000D03*
X68110000Y-100200000D03*
%TD*%
D78*
%TO.C,FID1*%
X59000000Y-51500000D03*
%TD*%
D79*
%TO.C,U7*%
X66060000Y-70697500D03*
X67010000Y-70697500D03*
X67960000Y-70697500D03*
X67960000Y-68422500D03*
X67010000Y-68422500D03*
X66060000Y-68422500D03*
%TD*%
D38*
%TO.C,U1*%
X88965000Y-114665000D03*
X90235000Y-114665000D03*
X91505000Y-114665000D03*
X92775000Y-114665000D03*
X94045000Y-114665000D03*
X95315000Y-114665000D03*
X96585000Y-114665000D03*
X96585000Y-109715000D03*
X95315000Y-109715000D03*
X94045000Y-109715000D03*
X92775000Y-109715000D03*
X91505000Y-109715000D03*
X90235000Y-109715000D03*
X88965000Y-109715000D03*
%TD*%
D51*
%TO.C,C34*%
X121805800Y-115166400D03*
X121805800Y-117066400D03*
%TD*%
D28*
%TO.C,R37*%
X105972400Y-107328000D03*
X105972400Y-105678000D03*
%TD*%
D45*
%TO.C,TP4*%
X114312800Y-72971500D03*
%TD*%
D30*
%TO.C,R52*%
X125399400Y-103594200D03*
X123749400Y-103594200D03*
%TD*%
D26*
%TO.C,R83*%
X107404000Y-71054400D03*
X107404000Y-69859400D03*
%TD*%
D75*
%TO.C,C76*%
X68140000Y-115040000D03*
X68140000Y-112090000D03*
%TD*%
D80*
%TO.C,D24*%
X99199800Y-78246000D03*
X99199800Y-81546000D03*
%TD*%
D36*
%TO.C,C19*%
X113235800Y-101867000D03*
X115135800Y-101867000D03*
%TD*%
D14*
%TO.C,R24*%
X96465000Y-136710000D03*
X98115000Y-136710000D03*
%TD*%
D45*
%TO.C,TP9*%
X95796200Y-73546000D03*
%TD*%
D53*
%TO.C,D17*%
X72800000Y-112570000D03*
X72800000Y-110470000D03*
%TD*%
D57*
%TO.C,R20*%
X96503600Y-91723200D03*
X97523600Y-91723200D03*
%TD*%
D37*
%TO.C,R2*%
X95840000Y-116470000D03*
X94820000Y-116470000D03*
%TD*%
D42*
%TO.C,Q11*%
X133952200Y-115174000D03*
D43*
X136238200Y-115174000D03*
D49*
X139402200Y-117074000D03*
X139402200Y-115804000D03*
X139402200Y-114534000D03*
X139402200Y-113264000D03*
%TD*%
D51*
%TO.C,C22*%
X121983600Y-104092000D03*
X121983600Y-105992000D03*
%TD*%
D81*
%TO.C,L1*%
X134150200Y-71844200D03*
X134150200Y-65844200D03*
%TD*%
D29*
%TO.C,C45*%
X126469600Y-82778600D03*
X126469600Y-84328600D03*
%TD*%
D32*
%TO.C,C15*%
X105651400Y-118821800D03*
X105651400Y-117271800D03*
%TD*%
D82*
%TO.C,R56*%
X104780000Y-131710000D03*
X104780000Y-137635000D03*
%TD*%
D28*
%TO.C,R28*%
X104457600Y-107328000D03*
X104457600Y-105678000D03*
%TD*%
%TO.C,R11*%
X90810000Y-103430000D03*
X90810000Y-101780000D03*
%TD*%
D75*
%TO.C,C77*%
X70580000Y-115065000D03*
X70580000Y-112115000D03*
%TD*%
D83*
%TO.C,JP2*%
X94338000Y-83655200D03*
D84*
X93038000Y-83655200D03*
%TD*%
D28*
%TO.C,R9*%
X92460000Y-103450000D03*
X92460000Y-101800000D03*
%TD*%
D27*
%TO.C,D7*%
X120168000Y-90273400D03*
X116868000Y-90273400D03*
%TD*%
D28*
%TO.C,R13*%
X92435000Y-106535000D03*
X92435000Y-104885000D03*
%TD*%
D21*
%TO.C,C14*%
X66960000Y-62390000D03*
X68510000Y-62390000D03*
%TD*%
D20*
%TO.C,C44*%
X125199600Y-84059000D03*
X125199600Y-83099000D03*
%TD*%
D45*
%TO.C,TP7*%
X113931800Y-83350400D03*
%TD*%
D80*
%TO.C,D22*%
X96819800Y-78236000D03*
X96819800Y-81536000D03*
%TD*%
D29*
%TO.C,C8*%
X139475600Y-64862200D03*
X139475600Y-66412200D03*
%TD*%
D75*
%TO.C,C73*%
X70580000Y-91345000D03*
X70580000Y-88395000D03*
%TD*%
D14*
%TO.C,R60*%
X74445000Y-104570000D03*
X76095000Y-104570000D03*
%TD*%
D31*
%TO.C,U19*%
X134113600Y-58560000D03*
X134113600Y-59830000D03*
X134113600Y-61100000D03*
X134113600Y-62370000D03*
X139063600Y-62370000D03*
X139063600Y-61100000D03*
X139063600Y-59830000D03*
X139063600Y-58560000D03*
%TD*%
D85*
%TO.C,U15*%
X125361800Y-65141298D03*
X125008246Y-64787744D03*
X124654693Y-64434191D03*
X124301140Y-64080637D03*
X123947586Y-63727084D03*
X123594033Y-63373531D03*
X123240479Y-63019977D03*
D86*
X121896977Y-63019977D03*
X121543423Y-63373531D03*
X121189870Y-63727084D03*
X120836316Y-64080637D03*
X120482763Y-64434191D03*
X120129210Y-64787744D03*
X119775656Y-65141298D03*
D85*
X119775656Y-66484800D03*
X120129210Y-66838354D03*
X120482763Y-67191907D03*
X120836316Y-67545461D03*
X121189870Y-67899014D03*
X121543423Y-68252567D03*
X121896977Y-68606121D03*
D86*
X123240479Y-68606121D03*
X123594033Y-68252567D03*
X123947586Y-67899014D03*
X124301140Y-67545461D03*
X124654693Y-67191907D03*
X125008246Y-66838354D03*
X125361800Y-66484800D03*
D87*
X122568728Y-65813049D03*
%TD*%
D52*
%TO.C,D16*%
X72840000Y-114280000D03*
X72840000Y-116380000D03*
%TD*%
D26*
%TO.C,R96*%
X125260200Y-70663700D03*
X125260200Y-69468700D03*
%TD*%
D31*
%TO.C,U18*%
X114468200Y-114871800D03*
X114468200Y-116141800D03*
X114468200Y-117411800D03*
X114468200Y-118681800D03*
X119418200Y-118681800D03*
X119418200Y-117411800D03*
X119418200Y-116141800D03*
X119418200Y-114871800D03*
%TD*%
D88*
%TO.C,U14*%
X128582100Y-59625700D03*
X128582100Y-58675700D03*
X128582100Y-57725700D03*
X126307100Y-57725700D03*
X126307100Y-58675700D03*
X126307100Y-59625700D03*
%TD*%
D26*
%TO.C,R81*%
X89243000Y-80239500D03*
X89243000Y-79044500D03*
%TD*%
D39*
%TO.C,H4*%
X55000000Y-145000000D03*
D40*
X55000000Y-145000000D03*
%TD*%
D57*
%TO.C,R39*%
X106970200Y-118478600D03*
X107990200Y-118478600D03*
%TD*%
D15*
%TO.C,J15*%
X104960000Y-144360000D03*
D16*
X104960000Y-144360000D03*
%TD*%
D26*
%TO.C,R80*%
X88235800Y-82436000D03*
X88235800Y-81241000D03*
%TD*%
D28*
%TO.C,R10*%
X94020000Y-103440000D03*
X94020000Y-101790000D03*
%TD*%
D45*
%TO.C,TP2*%
X113779400Y-69948900D03*
%TD*%
D15*
%TO.C,J3*%
X55258621Y-88205000D03*
D16*
X55258621Y-88205000D03*
%TD*%
D14*
%TO.C,R17*%
X74510000Y-116190000D03*
X76160000Y-116190000D03*
%TD*%
D15*
%TO.C,J14*%
X94960000Y-144360000D03*
D16*
X94960000Y-144360000D03*
%TD*%
D26*
%TO.C,R87*%
X111468000Y-71054400D03*
X111468000Y-69859400D03*
%TD*%
D56*
%TO.C,D26*%
X96432200Y-76263800D03*
X99732200Y-76263800D03*
%TD*%
D30*
%TO.C,R58*%
X100565000Y-135155000D03*
X98915000Y-135155000D03*
%TD*%
D52*
%TO.C,D11*%
X127038200Y-119028800D03*
X127038200Y-121128800D03*
%TD*%
D31*
%TO.C,U13*%
X116560000Y-134810000D03*
X116560000Y-136080000D03*
X116560000Y-137350000D03*
X116560000Y-138620000D03*
X121510000Y-138620000D03*
X121510000Y-137350000D03*
X121510000Y-136080000D03*
X121510000Y-134810000D03*
%TD*%
D32*
%TO.C,C18*%
X94520000Y-137345000D03*
X94520000Y-135795000D03*
%TD*%
D42*
%TO.C,Q10*%
X139192200Y-108684000D03*
D43*
X136906200Y-108684000D03*
D44*
X133742200Y-106784000D03*
X133742200Y-108054000D03*
X133742200Y-109324000D03*
X133742200Y-110594000D03*
%TD*%
D14*
%TO.C,R51*%
X123839800Y-97930000D03*
X125489800Y-97930000D03*
%TD*%
D57*
%TO.C,R34*%
X144899100Y-60235600D03*
X145919100Y-60235600D03*
%TD*%
D89*
%TO.C,U6*%
X81250000Y-51740000D03*
X81250000Y-53010000D03*
X81250000Y-54280000D03*
X81250000Y-55550000D03*
X81250000Y-56820000D03*
X81250000Y-58090000D03*
X81250000Y-59360000D03*
X81250000Y-60630000D03*
X81250000Y-61900000D03*
X81250000Y-63170000D03*
X81250000Y-64440000D03*
X81250000Y-65710000D03*
X81250000Y-66980000D03*
X81250000Y-68250000D03*
D90*
X83015000Y-69500000D03*
X84285000Y-69500000D03*
X85555000Y-69500000D03*
X86825000Y-69500000D03*
X88095000Y-69500000D03*
X89365000Y-69500000D03*
X90635000Y-69500000D03*
X91905000Y-69500000D03*
X93175000Y-69500000D03*
X94445000Y-69500000D03*
X95715000Y-69500000D03*
X96985000Y-69500000D03*
D89*
X98750000Y-68250000D03*
X98750000Y-66980000D03*
X98750000Y-65710000D03*
X98750000Y-64440000D03*
X98750000Y-63170000D03*
X98750000Y-61900000D03*
X98750000Y-60630000D03*
X98750000Y-59360000D03*
X98750000Y-58090000D03*
X98750000Y-56820000D03*
X98750000Y-55550000D03*
X98750000Y-54280000D03*
X98750000Y-53010000D03*
X98750000Y-51740000D03*
D91*
X87100000Y-58060000D03*
X87100000Y-59460000D03*
X87100000Y-60860000D03*
X87100000Y-60860000D03*
X88500000Y-58060000D03*
X88500000Y-58060000D03*
X88500000Y-59460000D03*
X88500000Y-60860000D03*
X89900000Y-58060000D03*
X89900000Y-59460000D03*
X89900000Y-60860000D03*
%TD*%
D92*
%TO.C,U20*%
X145568000Y-82334400D03*
D93*
X128908000Y-84874400D03*
D94*
X128908000Y-82334400D03*
X128908000Y-79794400D03*
%TD*%
D92*
%TO.C,U8*%
X99250600Y-105690200D03*
D95*
X96710600Y-89030200D03*
D96*
X99250600Y-89030200D03*
X101790600Y-89030200D03*
%TD*%
D97*
%TO.C,J6*%
X124062200Y-55689800D03*
D65*
X126562200Y-55689800D03*
X128562200Y-55689800D03*
X131062200Y-55689800D03*
D66*
X120992200Y-52979800D03*
X134132200Y-52979800D03*
%TD*%
M02*
