M48
; DRILL file {KiCad 8.0.1} date 2024-05-15T20:02:36+0300
; FORMAT={-:-/ absolute / inch / decimal}
; #@! TF.CreationDate,2024-05-15T20:02:36+03:00
; #@! TF.GenerationSoftware,Kicad,Pcbnew,8.0.1
; #@! TF.FileFunction,Plated,1,4,PTH
FMAT,2
INCH
; #@! TA.AperFunction,Plated,PTH,ViaDrill
T1C0.0157
; #@! TA.AperFunction,Plated,PTH,ComponentDrill
T2C0.0157
; #@! TA.AperFunction,Plated,PTH,ComponentDrill
T3C0.0374
; #@! TA.AperFunction,Plated,PTH,ComponentDrill
T4C0.0394
; #@! TA.AperFunction,Plated,PTH,ComponentDrill
T5C0.0433
; #@! TA.AperFunction,Plated,PTH,ComponentDrill
T6C0.0709
; #@! TA.AperFunction,Plated,PTH,ComponentDrill
T7C0.0906
; #@! TA.AperFunction,Plated,PTH,ViaDrill
T8C0.0984
; #@! TA.AperFunction,Plated,PTH,ComponentDrill
T9C0.0984
; #@! TA.AperFunction,Plated,PTH,ComponentDrill
T10C0.1260
%
G90
G05
T1
X2.0144Y-2.8602
X2.0204Y-3.9675
X2.0212Y-3.0253
X2.0217Y-4.4323
X2.022Y-3.5053
X2.0232Y-3.8923
X2.0232Y-4.1061
X2.0236Y-4.0187
X2.0236Y-3.1102
X2.0236Y-3.1969
X2.024Y-3.8081
X2.0244Y-4.3571
X2.0244Y-4.5709
X2.0247Y-3.4301
X2.0247Y-3.6439
X2.0248Y-4.4835
X2.0251Y-3.5565
X2.0252Y-4.2728
X2.0255Y-3.3459
X2.0259Y-4.1951
X2.0272Y-4.6598
X2.0275Y-3.7329
X2.0315Y-2.7795
X2.0352Y-2.6784
X2.0354Y-2.4606
X2.036Y-2.9458
X2.039Y-2.5286
X2.0394Y-2.3504
X2.0414Y-2.6199
X2.044Y-3.8535
X2.044Y-4.1488
X2.0452Y-4.3183
X2.0452Y-4.6136
X2.0456Y-3.3913
X2.0456Y-3.6866
X2.0461Y-3.2667
X2.0476Y-4.0585
X2.0488Y-4.5232
X2.0492Y-3.5963
X2.0598Y-3.9439
X2.061Y-4.4087
X2.0614Y-3.4817
X2.0694Y-5.0845
X2.0716Y-3.8923
X2.0716Y-4.1057
X2.072Y-3.8085
X2.0728Y-3.5474
X2.0728Y-4.3571
X2.0728Y-4.5705
X2.0732Y-3.4301
X2.0732Y-3.6435
X2.0732Y-4.2732
X2.0736Y-3.3463
X2.0754Y-4.754
X2.0759Y-4.1943
X2.0772Y-4.6591
X2.0775Y-3.7321
X2.0783Y-4.4774
X2.0791Y-4.0199
X2.08Y-5.4697
X2.0804Y-5.2307
X2.0817Y-5.1558
X2.085Y-5.5471
X2.0853Y-5.3123
X2.0862Y-4.9223
X2.0895Y-4.8416
X2.0903Y-5.3868
X2.0908Y-4.9901
X2.098Y-3.599
X2.1004Y-2.9345
X2.1007Y-2.8524
X2.1008Y-2.7851
X2.103Y-3.8535
X2.103Y-4.1488
X2.1031Y-3.3856
X2.1031Y-4.5238
X2.1043Y-4.3183
X2.1043Y-4.6136
X2.1044Y-3.1027
X2.1046Y-3.6866
X2.1051Y-4.0632
X2.115Y-3.0295
X2.116Y-3.1977
X2.1202Y-2.3428
X2.1237Y-2.6873
X2.1239Y-3.2703
X2.1291Y-2.5373
X2.1299Y-2.4449
X2.1303Y-3.6431
X2.1303Y-4.573
X2.131Y-3.8085
X2.1322Y-4.1061
X2.1323Y-4.2732
X2.1326Y-3.3463
X2.135Y-4.1943
X2.1361Y-2.6143
X2.1362Y-4.6591
X2.1366Y-3.7321
X2.1492Y-4.8279
X2.1494Y-5.386
X2.1538Y-5.4659
X2.1547Y-3.8518
X2.1565Y-5.152
X2.1566Y-4.5246
X2.1579Y-5.5366
X2.1584Y-5.3102
X2.1606Y-4.314
X2.1614Y-3.601
X2.1621Y-4.1488
X2.1622Y-4.7575
X2.1626Y-5.0757
X2.1633Y-4.6136
X2.1637Y-3.6866
X2.1641Y-4.0656
X2.1658Y-4.905
X2.1659Y-4.9944
X2.1686Y-5.2339
X2.1841Y-3.2615
X2.1883Y-3.1001
X2.1901Y-3.8085
X2.1901Y-4.573
X2.1909Y-3.6455
X2.1913Y-4.2732
X2.1917Y-3.3463
X2.1921Y-4.1081
X2.1931Y-3.1907
X2.194Y-4.1943
X2.1953Y-4.6591
X2.1956Y-3.7321
X2.2041Y-2.3403
X2.2149Y-4.5285
X2.2169Y-3.6002
X2.22Y-3.8518
X2.22Y-4.0675
X2.2212Y-4.1488
X2.2212Y-4.3152
X2.2224Y-4.6136
X2.2227Y-3.6866
X2.2271Y-3.3841
X2.2275Y-5.2343
X2.2278Y-4.9229
X2.2304Y-5.5578
X2.2304Y-5.3872
X2.2326Y-2.7038
X2.2327Y-2.8481
X2.2334Y-5.144
X2.2345Y-5.076
X2.2362Y-2.626
X2.2393Y-4.4844
X2.2406Y-4.9967
X2.2414Y-2.764
X2.2414Y-4.8284
X2.2417Y-4.0289
X2.2431Y-4.7494
X2.2444Y-5.3117
X2.2472Y-3.5719
X2.2473Y-5.4727
X2.2484Y-4.1077
X2.2492Y-3.8085
X2.2496Y-4.5724
X2.2499Y-3.6455
X2.2504Y-4.2732
X2.2507Y-3.3463
X2.2531Y-4.1943
X2.2543Y-4.6591
X2.2547Y-3.7321
X2.2661Y-3.2031
X2.2682Y-3.2702
X2.2716Y-4.3959
X2.2717Y-3.1142
X2.274Y-3.4742
X2.2797Y-2.3437
X2.2802Y-3.8535
X2.2802Y-4.1488
X2.2814Y-4.3183
X2.2814Y-4.6136
X2.2818Y-3.3913
X2.2818Y-3.6866
X2.2846Y-4.0675
X2.2858Y-4.5323
X2.2862Y-3.6053
X2.2893Y-4.0171
X2.2906Y-4.4819
X2.2909Y-3.5549
X2.2965Y-2.2283
X2.3007Y-3.8923
X2.3011Y-3.9715
X2.302Y-4.3571
X2.3023Y-3.4301
X2.3024Y-4.4362
X2.3027Y-3.5093
X2.3055Y-5.6344
X2.3082Y-3.8085
X2.3084Y-5.231
X2.3094Y-4.2732
X2.3098Y-3.3463
X2.3114Y-4.1077
X2.3122Y-4.1943
X2.3126Y-4.5724
X2.3129Y-3.6455
X2.3134Y-4.6591
X2.3137Y-3.7321
X2.3138Y-5.0015
X2.314Y-5.1535
X2.3146Y-5.3781
X2.3147Y-2.1519
X2.3165Y-4.8256
X2.3174Y-4.9207
X2.3174Y-5.0704
X2.3186Y-4.751
X2.3211Y-5.466
X2.3212Y-5.7771
X2.3213Y-5.3047
X2.3218Y-2.0747
X2.3232Y-5.7099
X2.3242Y-5.5378
X2.3259Y-3.853
X2.3272Y-4.3177
X2.3275Y-3.3907
X2.3401Y-4.1506
X2.3409Y-3.9364
X2.3409Y-3.9994
X2.3409Y-4.0589
X2.3413Y-4.6154
X2.3417Y-3.6884
X2.3421Y-4.4012
X2.3421Y-4.4642
X2.3421Y-4.5236
X2.3425Y-3.4742
X2.3425Y-3.5372
X2.3425Y-3.5967
X2.3433Y-3.2051
X2.3469Y-3.2731
X2.3641Y-4.2781
X2.3658Y-3.1282
X2.3696Y-3.8132
X2.37Y-3.353
X2.372Y-3.0697
X2.3831Y-5.1462
X2.3837Y-5.7729
X2.3877Y-2.1653
X2.3877Y-4.9108
X2.39Y-3.8972
X2.3913Y-4.362
X2.3914Y-4.9901
X2.3916Y-3.435
X2.3927Y-5.4688
X2.3931Y-5.6231
X2.3935Y-5.0694
X2.3937Y-4.7525
X2.3954Y-4.8445
X2.3956Y-5.3968
X2.3972Y-5.2404
X2.3975Y-5.5361
X2.3999Y-2.4744
X2.4004Y-2.2405
X2.401Y-5.3007
X2.4038Y-2.0876
X2.404Y-2.3897
X2.4064Y-5.7129
X2.4129Y-3.936
X2.4142Y-4.4008
X2.4144Y-3.2723
X2.4145Y-3.4738
X2.4181Y-3.8522
X2.4193Y-4.3169
X2.4196Y-3.39
X2.4315Y-3.1916
X2.4485Y-3.0655
X2.4491Y-3.8972
X2.4503Y-4.362
X2.4507Y-3.435
X2.4627Y-5.1618
X2.4669Y-4.7704
X2.4686Y-5.3171
X2.4688Y-5.2406
X2.469Y-4.9156
X2.4719Y-5.3895
X2.4722Y-2.4783
X2.4723Y-5.5424
X2.4727Y-5.7776
X2.4763Y-3.936
X2.477Y-4.9987
X2.4771Y-3.8522
X2.4774Y-5.6148
X2.4774Y-5.4631
X2.4775Y-4.1128
X2.4776Y-4.4008
X2.4779Y-3.4738
X2.4783Y-4.3169
X2.4787Y-3.39
X2.4787Y-2.0465
X2.4797Y-3.6498
X2.4802Y-4.5756
X2.4812Y-4.839
X2.4823Y-5.7092
X2.4848Y-5.0726
X2.4939Y-2.8841
X2.4959Y-2.9506
X2.5004Y-4.1516
X2.5007Y-3.2644
X2.5007Y-3.1972
X2.5026Y-3.6886
X2.5031Y-4.6144
X2.5055Y-4.0677
X2.5077Y-3.6047
X2.5082Y-3.8972
X2.5082Y-4.5305
X2.5085Y-2.6555
X2.5094Y-4.362
X2.5097Y-3.435
X2.5185Y-2.5355
X2.5185Y-2.7955
X2.5185Y-3.0255
X2.5366Y-4.1128
X2.5387Y-3.6498
X2.5393Y-4.5756
X2.543Y-5.2305
X2.544Y-5.6201
X2.5445Y-5.7043
X2.5456Y-5.5528
X2.546Y-5.7816
X2.5469Y-5.3809
X2.5531Y-5.4785
X2.5532Y-5.3198
X2.5534Y-5.0663
X2.5549Y-5.1619
X2.5585Y-3.1955
X2.5638Y-4.1516
X2.5646Y-4.0677
X2.5659Y-3.6886
X2.5665Y-4.6144
X2.5667Y-3.6047
X2.5669Y-2.8965
X2.5673Y-4.5305
X2.5689Y-2.963
X2.5937Y-2.3965
X2.5953Y-2.4563
X2.5956Y-4.1128
X2.5978Y-3.6498
X2.5983Y-4.5756
X2.6193Y-3.1949
X2.6252Y-2.2827
X2.628Y-2.0476
X2.6289Y-5.225
X2.6309Y-5.155
X2.6386Y-2.8323
X2.6405Y-4.0439
X2.6405Y-4.1904
X2.6425Y-4.5065
X2.6425Y-4.653
X2.6431Y-3.5803
X2.6431Y-3.7268
X2.6442Y-2.8985
X2.6461Y-2.9651
X2.6559Y-3.8691
X2.6559Y-3.9407
X2.6582Y-4.3317
X2.6582Y-4.4033
X2.6584Y-3.4063
X2.6584Y-3.478
X2.6606Y-4.0813
X2.6606Y-4.1549
X2.6625Y-4.5439
X2.6625Y-4.6175
X2.6631Y-3.6177
X2.6631Y-3.6913
X2.6744Y-3.8329
X2.6744Y-3.9045
X2.6744Y-3.9781
X2.6759Y-4.0439
X2.6759Y-4.1187
X2.6759Y-4.1904
X2.6767Y-4.2955
X2.6767Y-4.3671
X2.6767Y-4.4407
X2.6769Y-3.3701
X2.6769Y-3.4417
X2.6769Y-3.5154
X2.6779Y-4.5065
X2.6779Y-4.5813
X2.6779Y-4.653
X2.6785Y-3.5803
X2.6785Y-3.6551
X2.6785Y-3.7268
X2.6944Y-3.8691
X2.6944Y-3.9407
X2.696Y-4.0813
X2.696Y-4.1549
X2.6965Y-3.1969
X2.6968Y-4.3317
X2.6968Y-4.4033
X2.697Y-3.4063
X2.697Y-3.478
X2.698Y-4.5439
X2.698Y-4.6175
X2.6986Y-3.6177
X2.6986Y-3.6913
X2.7031Y-2.2839
X2.7051Y-2.0469
X2.7077Y-5.2276
X2.7114Y-3.8329
X2.7114Y-3.9045
X2.7114Y-3.9781
X2.7129Y-4.0439
X2.7129Y-4.1187
X2.7129Y-4.1904
X2.7137Y-4.2955
X2.7137Y-4.3671
X2.7137Y-4.4407
X2.7139Y-3.3701
X2.7139Y-3.4417
X2.7139Y-3.5154
X2.7149Y-4.5065
X2.7149Y-4.5813
X2.7149Y-4.653
X2.7155Y-3.5803
X2.7155Y-3.6551
X2.7155Y-3.7268
X2.7314Y-3.8691
X2.7314Y-3.9407
X2.733Y-4.0813
X2.733Y-4.1549
X2.7338Y-4.3317
X2.7338Y-4.4033
X2.734Y-3.4063
X2.734Y-3.478
X2.735Y-4.5439
X2.735Y-4.6175
X2.7356Y-3.6177
X2.7356Y-3.6913
X2.7468Y-3.8329
X2.7468Y-3.9045
X2.7468Y-3.9781
X2.7485Y-2.8355
X2.7492Y-4.2955
X2.7492Y-4.3671
X2.7492Y-4.4407
X2.7494Y-3.3701
X2.7494Y-3.4417
X2.7494Y-3.5154
X2.7515Y-4.0439
X2.7515Y-4.1187
X2.7515Y-4.1904
X2.7535Y-4.5065
X2.7535Y-4.5813
X2.7535Y-4.653
X2.7541Y-3.5803
X2.7541Y-3.6551
X2.7541Y-3.7268
X2.7669Y-3.8691
X2.7669Y-3.9407
X2.7692Y-4.3317
X2.7692Y-4.4033
X2.7694Y-3.4063
X2.7694Y-3.478
X2.7716Y-4.0813
X2.7716Y-4.1549
X2.7736Y-4.5439
X2.7736Y-4.6175
X2.7742Y-3.6177
X2.7742Y-3.6913
X2.7785Y-2.5155
X2.7822Y-3.8329
X2.7822Y-3.9045
X2.7822Y-3.9781
X2.7846Y-4.2955
X2.7846Y-4.3671
X2.7846Y-4.4407
X2.7848Y-5.2304
X2.7848Y-3.3701
X2.7848Y-3.4417
X2.7848Y-3.5154
X2.7868Y-3.1979
X2.789Y-2.9378
X2.791Y-2.608
X2.7915Y-2.8285
X2.7925Y-4.0439
X2.7925Y-4.1187
X2.7925Y-4.1904
X2.7944Y-4.5065
X2.7944Y-4.5813
X2.7944Y-4.653
X2.795Y-3.5803
X2.795Y-3.6551
X2.795Y-3.7268
X2.8023Y-3.8691
X2.8023Y-3.9407
X2.8047Y-4.3317
X2.8047Y-4.4033
X2.8049Y-3.4063
X2.8049Y-3.478
X2.8543Y-5.3735
X2.8585Y-2.5355
X2.8598Y-3.2102
X2.8625Y-2.7835
X2.9028Y-2.3949
X2.9371Y-3.2123
X2.9472Y-2.2858
X2.9562Y-2.4763
X2.9585Y-3.1355
X2.9787Y-2.6122
X2.9835Y-2.0895
X2.9862Y-2.0327
X3.0065Y-5.2235
X3.0102Y-4.0008
X3.0209Y-4.4661
X3.0272Y-3.538
X3.0476Y-4.15
X3.0555Y-3.7115
X3.0563Y-4.3677
X3.063Y-3.8764
X3.0661Y-3.4146
X3.0805Y-3.0455
X3.0805Y-3.1995
X3.0855Y-1.9955
X3.0921Y-5.8571
X3.0969Y-4.2843
X3.1084Y-4.6802
X3.1155Y-2.5915
X3.1195Y-2.4405
X3.1268Y-2.5445
X3.1303Y-2.137
X3.1339Y-2.0138
X3.1415Y-3.1055
X3.1435Y-3.2455
X3.1531Y-5.6957
X3.1712Y-5.6188
X3.1764Y-5.5361
X3.1805Y-3.3135
X3.186Y-4.7641
X3.1903Y-5.4572
X3.1921Y-2.7898
X3.1992Y-2.0035
X3.228Y-5.6949
X3.2365Y-3.1515
X3.2382Y-5.8386
X3.2421Y-2.0366
X3.257Y-5.4656
X3.2603Y-4.7525
X3.2604Y-5.6133
X3.2606Y-5.5394
X3.2625Y-2.2885
X3.2657Y-4.2819
X3.2668Y-4.8312
X3.2765Y-3.0725
X3.2775Y-2.3415
X3.2865Y-3.6565
X3.2945Y-2.2255
X3.3087Y-4.4134
X3.3155Y-3.1565
X3.3165Y-2.3045
X3.322Y-2.024
X3.328Y-5.615
X3.3327Y-5.8177
X3.3343Y-4.7579
X3.3471Y-4.8294
X3.3476Y-5.5551
X3.3508Y-3.4476
X3.3524Y-3.9181
X3.3555Y-3.0705
X3.3571Y-5.248
X3.3575Y-4.248
X3.3579Y-4.3819
X3.3579Y-5.3016
X3.3626Y-5.7228
X3.3715Y-5.3985
X3.3875Y-2.5435
X3.3975Y-2.4485
X3.4005Y-4.2361
X3.4067Y-4.8416
X3.4087Y-3.4819
X3.4095Y-3.6535
X3.4105Y-3.7583
X3.4126Y-5.5287
X3.4177Y-2.0232
X3.4223Y-4.763
X3.4291Y-4.6858
X3.4291Y-5.6602
X3.4323Y-4.5882
X3.4345Y-3.0715
X3.4362Y-5.8591
X3.4378Y-2.5363
X3.4455Y-5.4475
X3.4735Y-2.8955
X3.4735Y-3.1555
X3.491Y-5.7111
X3.4984Y-5.6358
X3.4987Y-5.7868
X3.5075Y-5.4745
X3.5135Y-3.0665
X3.5177Y-4.7067
X3.5197Y-2.0213
X3.5343Y-5.0106
X3.5343Y-5.0843
X3.5425Y-2.6545
X3.5496Y-5.5402
X3.5535Y-3.1565
X3.5563Y-4.9752
X3.5563Y-5.0469
X3.5563Y-5.1217
X3.561Y-5.7157
X3.5614Y-5.6118
X3.5689Y-5.7882
X3.5725Y-3.9615
X3.5752Y-4.099
X3.5772Y-5.0106
X3.5772Y-5.0843
X3.5796Y-4.8386
X3.5799Y-4.3862
X3.5846Y-5.6646
X3.5895Y-2.9605
X3.5941Y-5.5669
X3.5984Y-4.6469
X3.5985Y-3.0215
X3.5995Y-3.2115
X3.6008Y-4.9744
X3.6008Y-5.0461
X3.6008Y-5.1209
X3.6047Y-3.935
X3.6051Y-4.2539
X3.6071Y-5.7705
X3.6122Y-2.0157
X3.6146Y-5.4752
X3.6181Y-5.7157
X3.6217Y-5.0098
X3.6217Y-5.0835
X3.622Y-5.6122
X3.6252Y-5.5291
X3.6276Y-5.835
X3.6402Y-4.1005
X3.6417Y-4.9744
X3.6417Y-5.0461
X3.6417Y-5.1209
X3.6425Y-2.2585
X3.6446Y-4.8274
X3.6472Y-5.6634
X3.6518Y-4.6549
X3.6522Y-4.3844
X3.6531Y-5.5654
X3.6575Y-4.2457
X3.6591Y-5.7906
X3.6602Y-5.0098
X3.6602Y-5.0835
X3.6626Y-2.625
X3.6634Y-5.7425
X3.6654Y-5.4882
X3.6715Y-2.8105
X3.6735Y-3.9695
X3.6803Y-4.9744
X3.6803Y-5.0461
X3.6803Y-5.1209
X3.6803Y-5.8567
X3.6878Y-4.6894
X3.6882Y-5.5319
X3.6972Y-5.0098
X3.6972Y-5.0835
X3.7016Y-4.1005
X3.7024Y-5.5949
X3.7025Y-3.9395
X3.7028Y-4.2535
X3.7091Y-5.8083
X3.7173Y-4.9744
X3.7173Y-5.0461
X3.7173Y-5.1209
X3.7268Y-5.4886
X3.7316Y-4.8428
X3.7323Y-5.8567
X3.7327Y-5.0098
X3.7327Y-5.0835
X3.7358Y-5.539
X3.7425Y-2.4655
X3.7485Y-2.6655
X3.7528Y-4.9744
X3.7528Y-5.0461
X3.7528Y-5.1209
X3.7625Y-5.3415
X3.7634Y-2.0083
X3.7657Y-5.8031
X3.7676Y-3.2919
X3.7785Y-2.4385
X3.7823Y-5.4984
X3.7845Y-2.2925
X3.7913Y-5.8543
X3.7915Y-2.4925
X3.7945Y-2.2365
X3.7969Y-5.5531
X3.8Y-5.748
X3.8012Y-5.6106
X3.8035Y-4.4095
X3.8085Y-2.3435
X3.8208Y-2.5425
X3.8252Y-5.8055
X3.8265Y-2.6165
X3.8276Y-4.5953
X3.8303Y-5.6689
X3.835Y-4.876
X3.8362Y-5.5157
X3.8374Y-2.0366
X3.8445Y-5.8547
X3.8516Y-5.5697
X3.8555Y-5.765
X3.8701Y-5.7094
X3.8705Y-5.6224
X3.8846Y-5.8071
X3.8882Y-2.001
X3.8961Y-5.524
X3.9075Y-5.2055
X3.9126Y-5.75
X3.9134Y-5.6614
X3.915Y-5.5803
X3.9382Y-2.0366
X3.9567Y-5.178
X3.9585Y-4.6555
X3.9655Y-3.7845
X3.976Y-5.5701
X3.9787Y-5.648
X3.9846Y-5.7693
X3.9855Y-2.2955
X3.9909Y-5.4783
X3.9948Y-3.7112
X4.0075Y-5.7189
X4.0155Y-4.4755
X4.0181Y-5.4126
X4.0181Y-5.5295
X4.0335Y-5.5846
X4.0385Y-4.2695
X4.0429Y-5.6449
X4.0475Y-3.0025
X4.0504Y-5.7976
X4.052Y-5.4799
X4.0772Y-5.861
X4.089Y-5.5902
X4.0945Y-3.2425
X4.0961Y-5.5283
X4.1012Y-5.7689
X4.1025Y-4.6165
X4.1105Y-4.4825
X4.1155Y-3.9825
X4.1283Y-5.8339
X4.1299Y-5.4787
X4.1405Y-4.2785
X4.1555Y-2.8275
X4.1571Y-5.5299
X4.1685Y-3.2985
X4.1736Y-5.5929
X4.1745Y-4.1265
X4.1785Y-3.9865
X4.1895Y-4.2705
X4.1895Y-4.6715
X4.1933Y-5.8579
X4.202Y-5.7528
X4.2031Y-5.4772
X4.2185Y-5.5461
X4.2215Y-4.1285
X4.2217Y-5.6665
X4.2272Y-5.8083
X4.2365Y-3.9885
X4.237Y-5.4276
X4.2383Y-4.9363
X4.2415Y-5.2455
X4.2421Y-5.6122
X4.2504Y-5.7201
X4.2543Y-5.8594
X4.2642Y-5.4787
X4.2665Y-5.2095
X4.2765Y-4.7305
X4.2795Y-5.7681
X4.2819Y-5.5657
X4.2831Y-5.6728
X4.2917Y-5.3673
X4.2935Y-2.3999
X4.302Y-5.8232
X4.3134Y-5.7185
X4.3157Y-5.5161
X4.3169Y-5.6232
X4.3406Y-5.7697
X4.3429Y-5.5673
X4.3441Y-5.6744
X4.3475Y-5.1485
X4.3735Y-2.2105
X4.375Y-5.3866
X4.3803Y-5.7299
X4.3823Y-5.6205
X4.3865Y-2.4355
X4.436Y-5.7938
X4.4438Y-5.7135
X4.4506Y-5.461
X4.4525Y-4.0685
X4.4535Y-5.5535
X4.4555Y-2.9395
X4.4555Y-4.4005
X4.4565Y-2.9755
X4.4565Y-3.1825
X4.4635Y-3.5125
X4.4635Y-3.7895
X4.4875Y-2.3315
X4.4905Y-5.2175
X4.4925Y-2.5975
X4.5004Y-4.9787
X4.5004Y-5.0535
X4.5004Y-5.1252
X4.5039Y-5.3701
X4.5055Y-4.7025
X4.5097Y-5.6995
X4.5125Y-5.7797
X4.5135Y-4.2665
X4.5172Y-5.5403
X4.5205Y-5.0161
X4.5205Y-5.0898
X4.5225Y-4.7415
X4.5308Y-5.6304
X4.5358Y-4.9787
X4.5358Y-5.0535
X4.5358Y-5.1252
X4.5405Y-2.2295
X4.5559Y-5.0161
X4.5559Y-5.0898
X4.5675Y-2.3315
X4.5685Y-2.5975
X4.5728Y-4.9787
X4.5728Y-5.0535
X4.5728Y-5.1252
X4.5886Y-5.4976
X4.5905Y-3.6195
X4.5916Y-5.615
X4.5929Y-5.0161
X4.5929Y-5.0898
X4.5994Y-5.7001
X4.6053Y-5.7853
X4.6114Y-4.9787
X4.6114Y-5.0535
X4.6114Y-5.1252
X4.6245Y-4.6205
X4.6315Y-5.0161
X4.6315Y-5.0898
X4.6445Y-4.1845
X4.6485Y-2.1445
X4.6524Y-4.9787
X4.6524Y-5.0535
X4.6524Y-5.1252
X4.6615Y-3.7375
X4.6693Y-5.6945
X4.6725Y-5.7752
X4.676Y-5.0154
X4.676Y-5.089
X4.6778Y-5.5578
X4.6793Y-5.6342
X4.6805Y-2.5245
X4.6822Y-5.4721
X4.6969Y-4.978
X4.6969Y-5.0528
X4.6969Y-5.1244
X4.7189Y-5.0154
X4.7189Y-5.089
X4.7255Y-2.8845
X4.7265Y-2.3885
X4.7425Y-2.9805
X4.744Y-5.258
X4.8175Y-2.3685
X4.8255Y-2.5911
X4.8449Y-5.2551
X4.8455Y-2.4105
X4.8745Y-5.5365
X4.9264Y-5.2335
X4.9265Y-3.3465
X4.9375Y-3.2055
X4.9475Y-2.5185
X4.9775Y-3.3575
X4.9785Y-2.6095
X4.9815Y-2.6615
X4.9865Y-5.2211
X5.0265Y-2.6165
X5.0706Y-4.2324
X5.0706Y-4.3041
X5.0711Y-4.7043
X5.0711Y-4.7759
X5.0713Y-3.7624
X5.0713Y-3.834
X5.0748Y-5.231
X5.0804Y-3.9828
X5.0804Y-4.0545
X5.0804Y-4.1293
X5.081Y-4.4555
X5.081Y-4.5271
X5.081Y-4.6019
X5.0816Y-3.5128
X5.0816Y-3.5844
X5.0816Y-3.6592
X5.0906Y-4.195
X5.0906Y-4.2687
X5.0906Y-4.3403
X5.0912Y-4.6669
X5.0912Y-4.7405
X5.0912Y-4.8122
X5.0914Y-3.725
X5.0914Y-3.7986
X5.0914Y-3.8702
X5.1013Y-4.0183
X5.1013Y-4.0919
X5.1019Y-4.4909
X5.1019Y-4.5645
X5.1024Y-3.5482
X5.1024Y-3.6218
X5.1045Y-2.3095
X5.106Y-4.2324
X5.106Y-4.3041
X5.1066Y-4.7043
X5.1066Y-4.7759
X5.1068Y-3.7624
X5.1068Y-3.834
X5.1213Y-3.9828
X5.1213Y-4.0545
X5.1213Y-4.1293
X5.1219Y-4.4555
X5.1219Y-4.5271
X5.1219Y-4.6019
X5.1225Y-3.5128
X5.1225Y-3.5844
X5.1225Y-3.6592
X5.1261Y-4.195
X5.1261Y-4.2687
X5.1261Y-4.3403
X5.1267Y-4.6669
X5.1267Y-4.7405
X5.1267Y-4.8122
X5.1269Y-3.725
X5.1269Y-3.7986
X5.1269Y-3.8702
X5.1399Y-4.0183
X5.1399Y-4.0919
X5.1404Y-4.4909
X5.1404Y-4.5645
X5.141Y-3.5482
X5.141Y-3.6218
X5.1414Y-4.2324
X5.1414Y-4.3041
X5.142Y-4.7043
X5.142Y-4.7759
X5.1422Y-3.7624
X5.1422Y-3.834
X5.1547Y-3.3252
X5.1598Y-5.2345
X5.1599Y-3.9828
X5.1599Y-4.0545
X5.1599Y-4.1293
X5.1605Y-4.4555
X5.1605Y-4.5271
X5.1605Y-4.6019
X5.1611Y-3.5128
X5.1611Y-3.5844
X5.1611Y-3.6592
X5.1615Y-4.195
X5.1615Y-4.2687
X5.1615Y-4.3403
X5.1621Y-4.6669
X5.1621Y-4.7405
X5.1621Y-4.8122
X5.1623Y-3.725
X5.1623Y-3.7986
X5.1623Y-3.8702
X5.1769Y-4.0183
X5.1769Y-4.0919
X5.1774Y-4.4909
X5.1774Y-4.5645
X5.178Y-3.5482
X5.178Y-3.6218
X5.1784Y-4.2324
X5.1784Y-4.3041
X5.179Y-4.7043
X5.179Y-4.7759
X5.1792Y-3.7624
X5.1792Y-3.834
X5.1969Y-3.9828
X5.1969Y-4.0545
X5.1969Y-4.1293
X5.1975Y-4.4555
X5.1975Y-4.5271
X5.1975Y-4.6019
X5.1981Y-3.5128
X5.1981Y-3.5844
X5.1981Y-3.6592
X5.1985Y-4.195
X5.1985Y-4.2687
X5.1985Y-4.3403
X5.1991Y-4.6669
X5.1991Y-4.7405
X5.1991Y-4.8122
X5.1993Y-3.725
X5.1993Y-3.7986
X5.1993Y-3.8702
X5.2043Y-3.3374
X5.2123Y-4.0183
X5.2123Y-4.0919
X5.2129Y-4.4909
X5.2129Y-4.5645
X5.2135Y-3.5482
X5.2135Y-3.6218
X5.217Y-4.2324
X5.217Y-4.3041
X5.2176Y-4.7043
X5.2176Y-4.7759
X5.2178Y-3.7624
X5.2178Y-3.834
X5.219Y-2.4555
X5.2324Y-3.9828
X5.2324Y-4.1293
X5.233Y-4.4555
X5.233Y-4.6019
X5.2336Y-3.5128
X5.2336Y-3.6592
X5.2773Y-4.0604
X5.2777Y-3.5901
X5.2782Y-4.5324
X5.3083Y-4.1055
X5.3087Y-3.6352
X5.3091Y-4.0216
X5.3093Y-4.5775
X5.3095Y-3.5513
X5.3101Y-4.4937
X5.3142Y-5.2249
X5.3363Y-4.0604
X5.3368Y-3.5901
X5.3373Y-4.5324
X5.3635Y-2.19
X5.3647Y-4.2759
X5.3663Y-4.7472
X5.3666Y-3.8037
X5.3674Y-4.1055
X5.3678Y-3.6352
X5.3683Y-4.5775
X5.3725Y-4.0216
X5.3729Y-3.5513
X5.3735Y-4.4937
X5.3954Y-4.0604
X5.3958Y-3.5901
X5.3963Y-5.221
X5.3963Y-4.5324
X5.3965Y-4.2372
X5.3973Y-4.7923
X5.3981Y-4.7084
X5.3985Y-3.7649
X5.4238Y-4.2759
X5.4253Y-4.7472
X5.4257Y-3.8037
X5.4548Y-4.321
X5.4564Y-4.7923
X5.4567Y-3.8488
X5.4599Y-4.2372
X5.46Y-5.226
X5.4615Y-4.7084
X5.4618Y-3.7649
X5.4749Y-2.2735
X5.4828Y-4.2759
X5.4844Y-4.7472
X5.4847Y-3.8037
X5.5275Y-2.237
X5.532Y-4.1143
X5.532Y-4.1738
X5.532Y-4.2368
X5.5328Y-4.0226
X5.5336Y-4.5856
X5.5336Y-4.645
X5.5336Y-4.708
X5.5339Y-3.6421
X5.5339Y-3.7015
X5.5339Y-3.7645
X5.5343Y-4.4939
X5.5347Y-3.5504
X5.5469Y-4.3202
X5.5485Y-4.7915
X5.5489Y-3.848
X5.5505Y-5.3876
X5.553Y-5.2368
X5.5539Y-5.7747
X5.5556Y-5.4751
X5.5607Y-3.9789
X5.5615Y-4.0655
X5.5623Y-4.4502
X5.5626Y-3.5067
X5.5631Y-4.5368
X5.5634Y-3.5933
X5.5647Y-4.3647
X5.5662Y-4.836
X5.5666Y-3.8925
X5.5717Y-4.2017
X5.5721Y-4.2809
X5.5733Y-4.673
X5.5737Y-3.7295
X5.5737Y-2.3857
X5.5737Y-4.7521
X5.574Y-3.8086
X5.5746Y-3.1452
X5.5836Y-4.1561
X5.5845Y-3.0038
X5.5851Y-4.6273
X5.5855Y-3.6838
X5.5883Y-4.1057
X5.5899Y-4.5769
X5.5902Y-3.6334
X5.5927Y-4.0244
X5.5927Y-4.3196
X5.5942Y-4.4956
X5.5942Y-4.7909
X5.5946Y-3.5521
X5.5946Y-3.8474
X5.6005Y-4.2368
X5.6021Y-4.708
X5.6024Y-3.7645
X5.6143Y-5.236
X5.6174Y-5.5569
X5.6192Y-5.3906
X5.6198Y-3.9789
X5.6211Y-3.1408
X5.6213Y-4.4502
X5.6217Y-3.5067
X5.6229Y-5.4687
X5.6234Y-3.0601
X5.6237Y-4.3647
X5.6242Y-3.0963
X5.6245Y-4.0655
X5.6245Y-4.2809
X5.6253Y-4.836
X5.6256Y-3.8925
X5.6261Y-4.5368
X5.6261Y-4.7521
X5.6264Y-3.5933
X5.6264Y-3.8086
X5.6336Y-5.3003
X5.6517Y-4.0244
X5.6517Y-4.3196
X5.6533Y-4.4956
X5.6533Y-4.7909
X5.6536Y-3.5521
X5.6536Y-3.8474
X5.6788Y-3.9789
X5.6804Y-4.4502
X5.6807Y-3.5067
X5.6828Y-4.3647
X5.6843Y-4.836
X5.6847Y-3.8925
X5.6879Y-4.2809
X5.6895Y-4.7521
X5.6898Y-3.8086
X5.6997Y-5.3194
X5.7003Y-5.4601
X5.7031Y-5.5483
X5.7059Y-5.3864
X5.7092Y-5.2353
X5.7108Y-4.0244
X5.7108Y-4.3196
X5.7123Y-4.4956
X5.7123Y-4.7909
X5.7127Y-3.5521
X5.7127Y-3.8474
X5.7379Y-3.9789
X5.7395Y-4.4502
X5.7398Y-3.5067
X5.7406Y-4.2809
X5.7418Y-4.3647
X5.7422Y-4.7521
X5.7426Y-3.8086
X5.743Y-2.4797
X5.7434Y-4.836
X5.7437Y-3.8925
X5.7698Y-4.0244
X5.7698Y-4.3196
X5.7714Y-4.4956
X5.7714Y-4.7909
X5.7717Y-3.5521
X5.7717Y-3.8474
X5.7778Y-5.5396
X5.7868Y-5.2376
X5.7888Y-5.3771
X5.7894Y-5.314
X5.7898Y-5.4556
X5.7969Y-3.9789
X5.7985Y-4.4502
X5.7989Y-3.5067
X5.8009Y-4.3647
X5.8013Y-4.0675
X5.8013Y-4.2809
X5.8024Y-4.836
X5.8028Y-3.8925
X5.8028Y-4.5387
X5.8028Y-4.7521
X5.8032Y-3.5952
X5.8032Y-3.8086
X5.8131Y-4.2293
X5.8147Y-4.7006
X5.815Y-3.757
X5.8199Y-2.8365
X5.8253Y-4.1147
X5.8269Y-4.586
X5.8272Y-3.6425
X5.8289Y-4.0244
X5.8289Y-4.3196
X5.8305Y-4.4956
X5.8305Y-4.7909
X5.8308Y-3.5521
X5.8308Y-3.8474
X5.8469Y-3.9781
X5.8485Y-4.4494
X5.8489Y-3.5059
X5.8489Y-4.3651
X5.8493Y-4.1545
X5.8497Y-4.0671
X5.8497Y-4.2809
X5.8505Y-4.8364
X5.8508Y-3.8929
X5.8509Y-4.6257
X5.8512Y-3.6822
X5.8513Y-4.5383
X5.8513Y-4.7521
X5.8516Y-3.5948
X5.8516Y-3.8086
X5.8524Y-4.2057
X5.854Y-4.6769
X5.8544Y-3.7334
X5.8565Y-2.7948
X5.8615Y-2.7345
T2
X5.5766Y-2.6961
X5.5766Y-2.7434
X5.5766Y-2.7946
X5.5766Y-2.8379
X5.6238Y-2.6961
X5.6238Y-2.7434
X5.6238Y-2.7946
X5.6238Y-2.8379
T3
X2.3622Y-2.5984
X2.3622Y-2.6969
X2.3622Y-2.7756
X2.3622Y-2.874
X4.8843Y-2.1925
X4.9828Y-2.1925
X5.0615Y-2.1925
X5.1599Y-2.1925
T4
X2.7559Y-5.7874
X2.8543Y-5.7874
X2.9528Y-5.7874
X4.2985Y-2.0605
X4.3985Y-2.0605
X4.4985Y-2.0605
X4.5985Y-2.0605
X5.1575Y-5.7874
X5.2559Y-5.7874
X5.3543Y-5.7874
X5.7124Y-2.9526
X5.8124Y-2.9526
T5
X3.8075Y-3.5051
X3.9075Y-3.5051
X4.0075Y-3.5051
X5.0751Y-3.1415
X5.0751Y-3.2415
X5.0751Y-3.3415
T7
X2.2555Y-2.4776
X2.2555Y-2.9949
X4.7635Y-2.0858
X5.2808Y-2.0858
T8
X3.4854Y-2.3417
T9
X2.1755Y-3.4726
X2.1755Y-3.9451
X2.1755Y-4.4175
X3.7386Y-5.6835
X4.1323Y-5.6835
X5.7126Y-3.6931
X5.7126Y-4.1661
X5.7126Y-4.6431
T10
X2.1654Y-2.1654
X2.1654Y-5.7087
X5.7087Y-2.1654
X5.7087Y-5.7087
T6
G00X2.6811Y-5.5177
M15
G01X2.6811Y-5.5059
M16
G05
G00X3.0276Y-5.5177
M15
G01X3.0276Y-5.5059
M16
G05
G00X5.0827Y-5.5177
M15
G01X5.0827Y-5.5059
M16
G05
G00X5.4291Y-5.5177
M15
G01X5.4291Y-5.5059
M16
G05
M30
