%TF.GenerationSoftware,KiCad,Pcbnew,8.0.1*%
%TF.CreationDate,2024-05-15T20:02:36+03:00*%
%TF.ProjectId,ESP32_dual_ESC,45535033-325f-4647-9561-6c5f4553432e,rev?*%
%TF.SameCoordinates,Original*%
%TF.FileFunction,Other,Comment*%
%FSLAX46Y46*%
G04 Gerber Fmt 4.6, Leading zero omitted, Abs format (unit mm)*
G04 Created by KiCad (PCBNEW 8.0.1) date 2024-05-15 20:02:36*
%MOMM*%
%LPD*%
G01*
G04 APERTURE LIST*
%ADD10C,0.150000*%
G04 APERTURE END LIST*
D10*
%TO.C,J9*%
X147600400Y-117934800D02*
G75*
G02*
X142600400Y-117934800I-2500000J0D01*
G01*
X142600400Y-117934800D02*
G75*
G02*
X147600400Y-117934800I2500000J0D01*
G01*
%TO.C,J7*%
X147600400Y-93804800D02*
G75*
G02*
X142600400Y-93804800I-2500000J0D01*
G01*
X142600400Y-93804800D02*
G75*
G02*
X147600400Y-93804800I2500000J0D01*
G01*
%TO.C,H3*%
X147800000Y-145000000D02*
G75*
G02*
X142200000Y-145000000I-2800000J0D01*
G01*
X142200000Y-145000000D02*
G75*
G02*
X147800000Y-145000000I2800000J0D01*
G01*
%TO.C,H2*%
X147800000Y-55000000D02*
G75*
G02*
X142200000Y-55000000I-2800000J0D01*
G01*
X142200000Y-55000000D02*
G75*
G02*
X147800000Y-55000000I2800000J0D01*
G01*
%TO.C,H1*%
X57800000Y-55000000D02*
G75*
G02*
X52200000Y-55000000I-2800000J0D01*
G01*
X52200000Y-55000000D02*
G75*
G02*
X57800000Y-55000000I2800000J0D01*
G01*
%TO.C,J1*%
X57758621Y-112205000D02*
G75*
G02*
X52758621Y-112205000I-2500000J0D01*
G01*
X52758621Y-112205000D02*
G75*
G02*
X57758621Y-112205000I2500000J0D01*
G01*
%TO.C,J8*%
X147600400Y-105819000D02*
G75*
G02*
X142600400Y-105819000I-2500000J0D01*
G01*
X142600400Y-105819000D02*
G75*
G02*
X147600400Y-105819000I2500000J0D01*
G01*
%TO.C,J2*%
X57758621Y-100205000D02*
G75*
G02*
X52758621Y-100205000I-2500000J0D01*
G01*
X52758621Y-100205000D02*
G75*
G02*
X57758621Y-100205000I2500000J0D01*
G01*
%TO.C,H4*%
X57800000Y-145000000D02*
G75*
G02*
X52200000Y-145000000I-2800000J0D01*
G01*
X52200000Y-145000000D02*
G75*
G02*
X57800000Y-145000000I2800000J0D01*
G01*
%TO.C,J15*%
X107460000Y-144360000D02*
G75*
G02*
X102460000Y-144360000I-2500000J0D01*
G01*
X102460000Y-144360000D02*
G75*
G02*
X107460000Y-144360000I2500000J0D01*
G01*
%TO.C,J3*%
X57758621Y-88205000D02*
G75*
G02*
X52758621Y-88205000I-2500000J0D01*
G01*
X52758621Y-88205000D02*
G75*
G02*
X57758621Y-88205000I2500000J0D01*
G01*
%TO.C,J14*%
X97460000Y-144360000D02*
G75*
G02*
X92460000Y-144360000I-2500000J0D01*
G01*
X92460000Y-144360000D02*
G75*
G02*
X97460000Y-144360000I2500000J0D01*
G01*
%TD*%
M02*
